  0
SECTION
  2
HEADER
  9
$ACADVER
  1
AC1032
  9
$ACADMAINTVER
 90
4
  9
$DWGCODEPAGE
  3
ANSI_1252
  9
$LASTSAVEDBY
  1
msemblantes
  9
$REQUIREDVERSIONS
160
0
  9
$INSBASE
 10
0.0
 20
0.0
 30
0.0
  9
$EXTMIN
 10
1e+20
 20
1e+20
 30
1e+20
  9
$EXTMAX
 10
-1e+20
 20
-1e+20
 30
-1e+20
  9
$LIMMIN
 10
0.0
 20
0.0
  9
$LIMMAX
 10
420.0
 20
297.0
  9
$ORTHOMODE
 70
0
  9
$REGENMODE
 70
1
  9
$FILLMODE
 70
1
  9
$QTEXTMODE
 70
0
  9
$MIRRTEXT
 70
1
  9
$LTSCALE
 40
1.0
  9
$ATTMODE
 70
1
  9
$TEXTSIZE
 40
2.5
  9
$TRACEWID
 40
1.0
  9
$TEXTSTYLE
  7
OpenSans
  9
$CLAYER
  8
0
  9
$CELTYPE
  6
ByLayer
  9
$CECOLOR
 62
0
  9
$CELTSCALE
 40
1.0
  9
$DISPSILH
 70
0
  9
$DIMSCALE
 40
1.0
  9
$DIMASZ
 40
0.175
  9
$DIMEXO
 40
0.125
  9
$DIMDLI
 40
3.75
  9
$DIMRND
 40
0.0
  9
$DIMDLE
 40
0.0
  9
$DIMEXE
 40
0.375
  9
$DIMTP
 40
0.0
  9
$DIMTM
 40
0.0
  9
$DIMTXT
 40
0.25
  9
$DIMCEN
 40
2.5
  9
$DIMTSZ
 40
0.0
  9
$DIMTOL
 70
0
  9
$DIMLIM
 70
0
  9
$DIMTIH
 70
0
  9
$DIMTOH
 70
0
  9
$DIMSE1
 70
0
  9
$DIMSE2
 70
0
  9
$DIMTAD
 70
1
  9
$DIMZIN
 70
12
  9
$DIMBLK
  1
_ARCHTICK
  9
$DIMASO
 70
1
  9
$DIMSHO
 70
1
  9
$DIMPOST
  1

  9
$DIMAPOST
  1

  9
$DIMALT
 70
0
  9
$DIMALTD
 70
3
  9
$DIMALTF
 40
0.03937007874
  9
$DIMLFAC
 40
100.0
  9
$DIMTOFL
 70
1
  9
$DIMTVP
 40
0.0
  9
$DIMTIX
 70
0
  9
$DIMSOXD
 70
0
  9
$DIMSAH
 70
0
  9
$DIMBLK1
  1

  9
$DIMBLK2
  1

  9
$DIMSTYLE
  2
EZDXF
  9
$DIMCLRD
 70
0
  9
$DIMCLRE
 70
0
  9
$DIMCLRT
 70
0
  9
$DIMTFAC
 40
0.5
  9
$DIMGAP
 40
0.1
  9
$DIMJUST
 70
0
  9
$DIMSD1
 70
0
  9
$DIMSD2
 70
0
  9
$DIMTOLJ
 70
0
  9
$DIMTZIN
 70
8
  9
$DIMALTZ
 70
0
  9
$DIMALTTZ
 70
0
  9
$DIMUPT
 70
1
  9
$DIMDEC
 70
2
  9
$DIMTDEC
 70
2
  9
$DIMALTU
 70
2
  9
$DIMALTTD
 70
3
  9
$DIMTXSTY
  7
OpenSansCondensed-Light
  9
$DIMAUNIT
 70
0
  9
$DIMADEC
 70
2
  9
$DIMALTRND
 40
0.0
  9
$DIMAZIN
 70
3
  9
$DIMDSEP
 70
46
  9
$DIMATFIT
 70
3
  9
$DIMFRAC
 70
0
  9
$DIMLDRBLK
  1

  9
$DIMLUNIT
 70
2
  9
$DIMLWD
 70
-2
  9
$DIMLWE
 70
-2
  9
$DIMTMOVE
 70
2
  9
$DIMFXL
 40
1.0
  9
$DIMFXLON
 70
0
  9
$DIMJOGANG
 40
0.785398163397
  9
$DIMTFILL
 70
0
  9
$DIMTFILLCLR
 70
0
  9
$DIMARCSYM
 70
0
  9
$DIMLTYPE
  6

  9
$DIMLTEX1
  6

  9
$DIMLTEX2
  6

  9
$DIMTXTDIRECTION
 70
0
  9
$LUNITS
 70
2
  9
$LUPREC
 70
4
  9
$SKETCHINC
 40
1.0
  9
$FILLETRAD
 40
10.0
  9
$AUNITS
 70
0
  9
$AUPREC
 70
2
  9
$MENU
  1
.
  9
$ELEVATION
 40
0.0
  9
$PELEVATION
 40
0.0
  9
$THICKNESS
 40
0.0
  9
$LIMCHECK
 70
0
  9
$CHAMFERA
 40
0.0
  9
$CHAMFERB
 40
0.0
  9
$CHAMFERC
 40
0.0
  9
$CHAMFERD
 40
0.0
  9
$SKPOLY
 70
0
  9
$TDCREATE
 40
2461319.641412037
  9
$TDUCREATE
 40
2458532.13305332
  9
$TDUPDATE
 40
2461319.641412037
  9
$TDUUPDATE
 40
2461319.54044
  9
$TDINDWG
 40
0.00028
  9
$TDUSRTIMER
 40
0.00028
  9
$USRTIMER
 70
1
  9
$ANGBASE
 50
0.0
  9
$ANGDIR
 70
0
  9
$PDMODE
 70
0
  9
$PDSIZE
 40
0.0
  9
$PLINEWID
 40
0.0
  9
$SPLFRAME
 70
0
  9
$SPLINETYPE
 70
6
  9
$SPLINESEGS
 70
8
  9
$HANDSEED
  5
5D9
  9
$SURFTAB1
 70
6
  9
$SURFTAB2
 70
6
  9
$SURFTYPE
 70
6
  9
$SURFU
 70
6
  9
$SURFV
 70
6
  9
$UCSBASE
  2

  9
$UCSORG
 10
0.0
 20
0.0
 30
0.0
  9
$UCSXDIR
 10
1.0
 20
0.0
 30
0.0
  9
$UCSYDIR
 10
0.0
 20
1.0
 30
0.0
  9
$UCSORTHOREF
  2

  9
$UCSORTHOVIEW
 70
0
  9
$UCSORGTOP
 10
0.0
 20
0.0
 30
0.0
  9
$UCSORGBOTTOM
 10
0.0
 20
0.0
 30
0.0
  9
$UCSORGLEFT
 10
0.0
 20
0.0
 30
0.0
  9
$UCSORGRIGHT
 10
0.0
 20
0.0
 30
0.0
  9
$UCSORGFRONT
 10
0.0
 20
0.0
 30
0.0
  9
$UCSORGBACK
 10
0.0
 20
0.0
 30
0.0
  9
$PUCSBASE
  2

  9
$PUCSORG
 10
0.0
 20
0.0
 30
0.0
  9
$PUCSXDIR
 10
1.0
 20
0.0
 30
0.0
  9
$PUCSYDIR
 10
0.0
 20
1.0
 30
0.0
  9
$PUCSORTHOREF
  2

  9
$PUCSORTHOVIEW
 70
0
  9
$PUCSORGTOP
 10
0.0
 20
0.0
 30
0.0
  9
$PUCSORGBOTTOM
 10
0.0
 20
0.0
 30
0.0
  9
$PUCSORGLEFT
 10
0.0
 20
0.0
 30
0.0
  9
$PUCSORGRIGHT
 10
0.0
 20
0.0
 30
0.0
  9
$PUCSORGFRONT
 10
0.0
 20
0.0
 30
0.0
  9
$PUCSORGBACK
 10
0.0
 20
0.0
 30
0.0
  9
$USERI1
 70
0
  9
$USERI2
 70
0
  9
$USERI3
 70
0
  9
$USERI4
 70
0
  9
$USERI5
 70
0
  9
$USERR1
 40
0.0
  9
$USERR2
 40
0.0
  9
$USERR3
 40
0.0
  9
$USERR4
 40
0.0
  9
$USERR5
 40
0.0
  9
$WORLDVIEW
 70
1
  9
$SHADEDGE
 70
3
  9
$SHADEDIF
 70
70
  9
$TILEMODE
 70
1
  9
$MAXACTVP
 70
64
  9
$PINSBASE
 10
0.0
 20
0.0
 30
0.0
  9
$PLIMCHECK
 70
0
  9
$PEXTMIN
 10
1e+20
 20
1e+20
 30
1e+20
  9
$PEXTMAX
 10
-1e+20
 20
-1e+20
 30
-1e+20
  9
$PLIMMIN
 10
0.0
 20
0.0
  9
$PLIMMAX
 10
420.0
 20
297.0
  9
$UNITMODE
 70
0
  9
$VISRETAIN
 70
1
  9
$PLINEGEN
 70
0
  9
$PSLTSCALE
 70
1
  9
$TREEDEPTH
 70
3020
  9
$CMLSTYLE
  2
S
  9
$CMLJUST
 70
0
  9
$CMLSCALE
 40
20.0
  9
$PROXYGRAPHICS
 70
1
  9
$MEASUREMENT
 70
1
  9
$CELWEIGHT
370
-1
  9
$ENDCAPS
280
0
  9
$JOINSTYLE
280
0
  9
$LWDISPLAY
290
0
  9
$INSUNITS
 70
6
  9
$HYPERLINKBASE
  1

  9
$STYLESHEET
  1

  9
$XEDIT
290
1
  9
$CEPSNTYPE
380
0
  9
$PSTYLEMODE
290
1
  9
$FINGERPRINTGUID
  2
{C83254BA-37B7-4A44-8C93-A42D7C1B4CE3}
  9
$VERSIONGUID
  2
{7FDF211A-5853-4C7E-A233-7B17DFAB77C0}
  9
$EXTNAMES
290
1
  9
$PSVPSCALE
 40
0.0
  9
$OLESTARTUP
290
0
  9
$SORTENTS
280
127
  9
$INDEXCTL
280
0
  9
$HIDETEXT
280
1
  9
$XCLIPFRAME
280
1
  9
$HALOGAP
280
0
  9
$OBSCOLOR
 70
257
  9
$OBSLTYPE
280
0
  9
$INTERSECTIONDISPLAY
280
0
  9
$INTERSECTIONCOLOR
 70
257
  9
$DIMASSOC
280
2
  9
$PROJECTNAME
  1

  9
$CAMERADISPLAY
290
0
  9
$LENSLENGTH
 40
50.0
  9
$CAMERAHEIGHT
 40
0.0
  9
$STEPSPERSEC
 40
24.0
  9
$STEPSIZE
 40
100.0
  9
$3DDWFPREC
 40
2.0
  9
$PSOLWIDTH
 40
0.005
  9
$PSOLHEIGHT
 40
0.08
  9
$LOFTANG1
 40
1.570796326795
  9
$LOFTANG2
 40
1.570796326795
  9
$LOFTMAG1
 40
0.0
  9
$LOFTMAG2
 40
0.0
  9
$LOFTPARAM
 70
7
  9
$LOFTNORMALS
280
1
  9
$LATITUDE
 40
37.795
  9
$LONGITUDE
 40
-122.394
  9
$NORTHDIRECTION
 40
0.0
  9
$TIMEZONE
 70
-8000
  9
$LIGHTGLYPHDISPLAY
280
1
  9
$TILEMODELIGHTSYNCH
280
1
  9
$CMATERIAL
347
39D
  9
$SOLIDHIST
280
0
  9
$SHOWHIST
280
1
  9
$DWFFRAME
280
2
  9
$DGNFRAME
280
2
  9
$REALWORLDSCALE
290
1
  9
$INTERFERECOLOR
 62
0
  9
$CSHADOW
280
0
  9
$SHADOWPLANELOCATION
 40
0.0
  0
ENDSEC
  0
SECTION
  2
CLASSES
  0
CLASS
  1
ACDBDICTIONARYWDFLT
  2
AcDbDictionaryWithDefault
  3
ObjectDBX Classes
 90
0
 91
1
280
0
281
0
  0
CLASS
  1
SUN
  2
AcDbSun
  3
SCENEOE
 90
1153
 91
0
280
0
281
0
  0
CLASS
  1
VISUALSTYLE
  2
AcDbVisualStyle
  3
ObjectDBX Classes
 90
4095
 91
25
280
0
281
0
  0
CLASS
  1
MATERIAL
  2
AcDbMaterial
  3
ObjectDBX Classes
 90
1153
 91
3
280
0
281
0
  0
CLASS
  1
SCALE
  2
AcDbScale
  3
ObjectDBX Classes
 90
1153
 91
17
280
0
281
0
  0
CLASS
  1
TABLESTYLE
  2
AcDbTableStyle
  3
ObjectDBX Classes
 90
4095
 91
1
280
0
281
0
  0
CLASS
  1
MLEADERSTYLE
  2
AcDbMLeaderStyle
  3
ACDB_MLEADERSTYLE_CLASS
 90
4095
 91
1
280
0
281
0
  0
CLASS
  1
DICTIONARYVAR
  2
AcDbDictionaryVar
  3
ObjectDBX Classes
 90
0
 91
0
280
0
281
0
  0
CLASS
  1
CELLSTYLEMAP
  2
AcDbCellStyleMap
  3
ObjectDBX Classes
 90
256
 91
256
280
0
281
0
  0
CLASS
  1
MENTALRAYRENDERSETTINGS
  2
AcDbMentalRayRenderSettings
  3
SCENEOE
 90
33
 91
-534838016
280
0
281
0
  0
CLASS
  1
ACDBDETAILVIEWSTYLE
  2
AcDbDetailViewStyle
  3
ObjectDBX Classes
 90
168
 91
256
280
0
281
0
  0
CLASS
  1
ACDBSECTIONVIEWSTYLE
  2
AcDbSectionViewStyle
  3
ObjectDBX Classes
 90
256
 91
0
280
0
281
0
  0
CLASS
  1
RASTERVARIABLES
  2
AcDbRasterVariables
  3
ISM
 90
256
 91
0
280
0
281
0
  0
CLASS
  1
ACDBPLACEHOLDER
  2
AcDbPlaceHolder
  3
ObjectDBX Classes
 90
0
 91
0
280
0
281
0
  0
CLASS
  1
LAYOUT
  2
AcDbLayout
  3
ObjectDBX Classes
 90
0
 91
0
280
0
281
0
  0
ENDSEC
  0
SECTION
  2
TABLES
  0
TABLE
  2
VPORT
  5
8
330
0
100
AcDbSymbolTable
 70
1
  0
VPORT
  5
23
330
8
100
AcDbSymbolTableRecord
100
AcDbViewportTableRecord
  2
*Active
 70
0
 10
0.0
 20
0.0
 11
1.0
 21
1.0
 12
55.45012195703885
 22
27.94130921582632
 13
0.0
 23
0.0
 14
0.5
 24
0.5
 15
0.5
 25
0.5
 16
0.0
 26
0.0
 36
1.0
 17
0.0
 27
0.0
 37
0.0
 40
92.3482768062172
 41
1.853042479908152
 42
50.0
 43
0.0
 44
0.0
 50
0.0
 51
0.0
 71
0
 72
1000
 73
1
 74
3
 75
0
 76
0
 77
0
 78
0
281
0
 65
0
110
0.0
120
0.0
130
0.0
111
1.0
121
0.0
131
0.0
112
0.0
122
1.0
132
0.0
 79
0
146
0.0
 60
3
 61
5
348
5A
292
1
282
1
141
0.0
142
0.0
 63
250
421
3258135347
1001
ACAD_NAV_VCDISPLAY
1070
3
  0
ENDTAB
  0
TABLE
  2
LTYPE
  5
2
330
0
100
AcDbSymbolTable
 70
21
  0
LTYPE
  5
24
330
2
100
AcDbSymbolTableRecord
100
AcDbLinetypeTableRecord
  2
ByBlock
 70
0
  3

 72
65
 73
0
 40
0.0
  0
LTYPE
  5
25
330
2
100
AcDbSymbolTableRecord
100
AcDbLinetypeTableRecord
  2
ByLayer
 70
0
  3

 72
65
 73
0
 40
0.0
  0
LTYPE
  5
26
330
2
100
AcDbSymbolTableRecord
100
AcDbLinetypeTableRecord
  2
Continuous
 70
0
  3

 72
65
 73
0
 40
0.0
  0
LTYPE
  5
2F
330
2
100
AcDbSymbolTableRecord
100
AcDbLinetypeTableRecord
  2
CENTER
 70
0
  3
Center ____ _ ____ _ ____ _ ____ _ ____ _ ____
 72
65
 73
4
 40
5.08
 49
3.175
 74
0
 49
-0.635
 74
0
 49
0.635
 74
0
 49
-0.635
 74
0
  0
LTYPE
  5
30
330
2
100
AcDbSymbolTableRecord
100
AcDbLinetypeTableRecord
  2
CENTERX2
 70
0
  3
Center (2x) ________  __  ________  __  ________
 72
65
 73
4
 40
8.89
 49
6.35
 74
0
 49
-0.635
 74
0
 49
1.27
 74
0
 49
-0.635
 74
0
  0
LTYPE
  5
31
330
2
100
AcDbSymbolTableRecord
100
AcDbLinetypeTableRecord
  2
CENTER2
 70
0
  3
Center (.5x) ____ _ ____ _ ____ _ ____ _ ____
 72
65
 73
4
 40
2.54
 49
1.587
 74
0
 49
-0.318
 74
0
 49
0.318
 74
0
 49
-0.318
 74
0
  0
LTYPE
  5
32
330
2
100
AcDbSymbolTableRecord
100
AcDbLinetypeTableRecord
  2
DASHED
 70
0
  3
Dashed __ __ __ __ __ __ __ __ __ __ __ __ __ _
 72
65
 73
2
 40
1.524
 49
1.27
 74
0
 49
-0.254
 74
0
  0
LTYPE
  5
33
330
2
100
AcDbSymbolTableRecord
100
AcDbLinetypeTableRecord
  2
DASHEDX2
 70
0
  3
Dashed (2x) ____  ____  ____  ____  ____  ____
 72
65
 73
2
 40
3.048
 49
2.54
 74
0
 49
-0.508
 74
0
  0
LTYPE
  5
34
330
2
100
AcDbSymbolTableRecord
100
AcDbLinetypeTableRecord
  2
DASHED2
 70
0
  3
Dashed (.5x) _ _ _ _ _ _ _ _ _ _ _ _ _ _
 72
65
 73
2
 40
0.762
 49
0.635
 74
0
 49
-0.127
 74
0
  0
LTYPE
  5
35
330
2
100
AcDbSymbolTableRecord
100
AcDbLinetypeTableRecord
  2
PHANTOM
 70
0
  3
Phantom ______  __  __  ______  __  __  ______
 72
65
 73
6
 40
6.35
 49
3.175
 74
0
 49
-0.635
 74
0
 49
0.635
 74
0
 49
-0.635
 74
0
 49
0.635
 74
0
 49
-0.635
 74
0
  0
LTYPE
  5
36
330
2
100
AcDbSymbolTableRecord
100
AcDbLinetypeTableRecord
  2
PHANTOMX2
 70
0
  3
Phantom (2x)____________    ____    ____    ____________
 72
65
 73
6
 40
10.795
 49
6.35
 74
0
 49
-0.635
 74
0
 49
1.27
 74
0
 49
-0.635
 74
0
 49
1.27
 74
0
 49
-0.635
 74
0
  0
LTYPE
  5
37
330
2
100
AcDbSymbolTableRecord
100
AcDbLinetypeTableRecord
  2
PHANTOM2
 70
0
  3
Phantom (.5x) ___ _ _ ___ _ _ ___ _ _ ___ _ _ ___
 72
65
 73
6
 40
3.175
 49
1.587
 74
0
 49
-0.318
 74
0
 49
0.318
 74
0
 49
-0.318
 74
0
 49
0.318
 74
0
 49
-0.318
 74
0
  0
LTYPE
  5
38
330
2
100
AcDbSymbolTableRecord
100
AcDbLinetypeTableRecord
  2
DASHDOT
 70
0
  3
Dash dot __ . __ . __ . __ . __ . __ . __ . __
 72
65
 73
4
 40
3.556
 49
2.54
 74
0
 49
-0.508
 74
0
 49
0.0
 74
0
 49
-0.508
 74
0
  0
LTYPE
  5
39
330
2
100
AcDbSymbolTableRecord
100
AcDbLinetypeTableRecord
  2
DASHDOTX2
 70
0
  3
Dash dot (2x) ____  .  ____  .  ____  .  ____
 72
65
 73
4
 40
6.096
 49
5.08
 74
0
 49
-0.508
 74
0
 49
0.0
 74
0
 49
-0.508
 74
0
  0
LTYPE
  5
3A
330
2
100
AcDbSymbolTableRecord
100
AcDbLinetypeTableRecord
  2
DASHDOT2
 70
0
  3
Dash dot (.5x) _ . _ . _ . _ . _ . _ . _ . _
 72
65
 73
4
 40
1.778
 49
1.27
 74
0
 49
-0.254
 74
0
 49
0.0
 74
0
 49
-0.254
 74
0
  0
LTYPE
  5
3B
330
2
100
AcDbSymbolTableRecord
100
AcDbLinetypeTableRecord
  2
DOT
 70
0
  3
Dot .  .  .  .  .  .  .  .  .  .  .  .  .  .  .  .
 72
65
 73
2
 40
0.508
 49
0.0
 74
0
 49
-0.508
 74
0
  0
LTYPE
  5
3C
330
2
100
AcDbSymbolTableRecord
100
AcDbLinetypeTableRecord
  2
DOTX2
 70
0
  3
Dot (2x) .    .    .    .    .    .    .    . 
 72
65
 73
2
 40
1.016
 49
0.0
 74
0
 49
-1.016
 74
0
  0
LTYPE
  5
3D
330
2
100
AcDbSymbolTableRecord
100
AcDbLinetypeTableRecord
  2
DOT2
 70
0
  3
Dot (.5) . . . . . . . . . . . . . . . . . . . 
 72
65
 73
2
 40
0.254
 49
0.0
 74
0
 49
-0.254
 74
0
  0
LTYPE
  5
3E
330
2
100
AcDbSymbolTableRecord
100
AcDbLinetypeTableRecord
  2
DIVIDE
 70
0
  3
Divide __ . . __ . . __ . . __ . . __ . . __
 72
65
 73
6
 40
4.064
 49
2.54
 74
0
 49
-0.508
 74
0
 49
0.0
 74
0
 49
-0.508
 74
0
 49
0.0
 74
0
 49
-0.508
 74
0
  0
LTYPE
  5
3F
330
2
100
AcDbSymbolTableRecord
100
AcDbLinetypeTableRecord
  2
DIVIDEX2
 70
0
  3
Divide (2x) ____  . .  ____  . .  ____  . .  ____
 72
65
 73
6
 40
6.604
 49
5.08
 74
0
 49
-0.508
 74
0
 49
0.0
 74
0
 49
-0.508
 74
0
 49
0.0
 74
0
 49
-0.508
 74
0
  0
LTYPE
  5
40
330
2
100
AcDbSymbolTableRecord
100
AcDbLinetypeTableRecord
  2
DIVIDE2
 70
0
  3
Divide(.5x) _ . _ . _ . _ . _ . _ . _ . _
 72
65
 73
6
 40
2.032
 49
1.27
 74
0
 49
-0.254
 74
0
 49
0.0
 74
0
 49
-0.254
 74
0
 49
0.0
 74
0
 49
-0.254
 74
0
  0
ENDTAB
  0
TABLE
  2
LAYER
  5
1
330
0
100
AcDbSymbolTable
 70
27
  0
LAYER
  5
27
330
1
100
AcDbSymbolTableRecord
100
AcDbLayerTableRecord
  2
0
 70
0
 62
7
  6
Continuous
370
-3
390
13
347
21
348
0
  0
LAYER
  5
28
330
1
100
AcDbSymbolTableRecord
100
AcDbLayerTableRecord
  2
Defpoints
 70
0
 62
7
  6
Continuous
290
0
370
-3
390
13
347
21
348
0
  0
LAYER
  5
8B
330
1
100
AcDbSymbolTableRecord
100
AcDbLayerTableRecord
  2
BORDER_LIMITS
 70
0
 62
7
  6
Continuous
370
18
390
13
347
21
348
0
  0
LAYER
  5
8C
330
1
100
AcDbSymbolTableRecord
100
AcDbLayerTableRecord
  2
DRAWING_BORDER
 70
0
 62
7
  6
Continuous
370
50
390
13
347
21
348
0
  0
LAYER
  5
8D
330
1
100
AcDbSymbolTableRecord
100
AcDbLayerTableRecord
  2
FORMATO
 70
0
 62
7
  6
Continuous
370
25
390
13
347
21
348
0
  0
LAYER
  5
8E
330
1
100
AcDbSymbolTableRecord
100
AcDbLayerTableRecord
  2
_DATEC
 70
0
 62
7
  6
Continuous
370
13
390
13
347
21
348
0
  0
LAYER
  5
8F
330
1
100
AcDbSymbolTableRecord
100
AcDbLayerTableRecord
  2
05-EST-TEXTO
 70
0
 62
7
  6
Continuous
370
13
390
13
347
21
348
0
  0
LAYER
  5
90
330
1
100
AcDbSymbolTableRecord
100
AcDbLayerTableRecord
  2
E_EJES
 70
0
 62
8
  6
Continuous
370
9
390
13
347
21
348
0
  0
LAYER
  5
91
330
1
100
AcDbSymbolTableRecord
100
AcDbLayerTableRecord
  2
E_EJES_BURBUJA
 70
0
 62
7
  6
Continuous
370
18
390
13
347
21
348
0
  0
LAYER
  5
92
330
1
100
AcDbSymbolTableRecord
100
AcDbLayerTableRecord
  2
E_ZAPATAS
 70
0
 62
7
  6
Continuous
370
35
390
13
347
21
348
0
  0
LAYER
  5
93
330
1
100
AcDbSymbolTableRecord
100
AcDbLayerTableRecord
  2
E_PEDESTALES
 70
0
 62
7
  6
Continuous
370
35
390
13
347
21
348
0
  0
LAYER
  5
94
330
1
100
AcDbSymbolTableRecord
100
AcDbLayerTableRecord
  2
E_MUROS
 70
0
 62
7
  6
Continuous
370
50
390
13
347
21
348
0
  0
LAYER
  5
95
330
1
100
AcDbSymbolTableRecord
100
AcDbLayerTableRecord
  2
E_PILASTRAS
 70
0
 62
7
  6
Continuous
370
35
390
13
347
21
348
0
  0
LAYER
  5
96
330
1
100
AcDbSymbolTableRecord
100
AcDbLayerTableRecord
  2
E_VIGAS_CIM
 70
0
 62
8
  6
DASHED
370
18
390
13
347
21
348
0
  0
LAYER
  5
97
330
1
100
AcDbSymbolTableRecord
100
AcDbLayerTableRecord
  2
E_COLUMNAS
 70
0
 62
7
  6
Continuous
370
35
390
13
347
21
348
0
  0
LAYER
  5
98
330
1
100
AcDbSymbolTableRecord
100
AcDbLayerTableRecord
  2
E_VIGAS_ACERO
 70
0
 62
7
  6
Continuous
370
25
390
13
347
21
348
0
  0
LAYER
  5
99
330
1
100
AcDbSymbolTableRecord
100
AcDbLayerTableRecord
  2
E_LOSA
 70
0
 62
8
  6
DASHED
370
13
390
13
347
21
348
0
  0
LAYER
  5
9A
330
1
100
AcDbSymbolTableRecord
100
AcDbLayerTableRecord
  2
E_TEXTO
 70
0
 62
7
  6
Continuous
370
13
390
13
347
21
348
0
  0
LAYER
  5
9B
330
1
100
AcDbSymbolTableRecord
100
AcDbLayerTableRecord
  2
E_TEXTO_VIGA
 70
0
 62
7
  6
Continuous
370
13
390
13
347
21
348
0
  0
LAYER
  5
9C
330
1
100
AcDbSymbolTableRecord
100
AcDbLayerTableRecord
  2
E_COTAS
 70
0
 62
7
  6
Continuous
370
13
390
13
347
21
348
0
  0
LAYER
  5
9D
330
1
100
AcDbSymbolTableRecord
100
AcDbLayerTableRecord
  2
E_TABLA
 70
0
 62
7
  6
Continuous
370
25
390
13
347
21
348
0
  0
LAYER
  5
9E
330
1
100
AcDbSymbolTableRecord
100
AcDbLayerTableRecord
  2
E_TITULO
 70
0
 62
7
  6
Continuous
370
25
390
13
347
21
348
0
  0
LAYER
  5
9F
330
1
100
AcDbSymbolTableRecord
100
AcDbLayerTableRecord
  2
E_HATCH
 70
0
 62
7
  6
Continuous
370
13
390
13
347
21
348
0
  0
LAYER
  5
A0
330
1
100
AcDbSymbolTableRecord
100
AcDbLayerTableRecord
  2
E_ARMADO
 70
0
 62
7
  6
Continuous
370
35
390
13
347
21
348
0
  0
LAYER
  5
A1
330
1
100
AcDbSymbolTableRecord
100
AcDbLayerTableRecord
  2
E_ARMADO_FINO
 70
0
 62
7
  6
Continuous
370
18
390
13
347
21
348
0
  0
LAYER
  5
A2
330
1
100
AcDbSymbolTableRecord
100
AcDbLayerTableRecord
  2
E_CORTE
 70
0
 62
7
  6
Continuous
370
50
390
13
347
21
348
0
  0
LAYER
  5
A3
330
1
100
AcDbSymbolTableRecord
100
AcDbLayerTableRecord
  2
E_REPLANTILLO
 70
0
 62
8
  6
Continuous
370
13
390
13
347
21
348
0
  0
ENDTAB
  0
TABLE
  2
STYLE
  5
5
330
0
100
AcDbSymbolTable
 70
27
  0
STYLE
  5
29
330
5
100
AcDbSymbolTableRecord
100
AcDbTextStyleTableRecord
  2
Standard
 70
0
 40
0.0
 41
1.0
 50
0.0
 71
0
 42
2.5
  3
txt
  4

  0
STYLE
  5
41
330
5
100
AcDbSymbolTableRecord
100
AcDbTextStyleTableRecord
  2
OpenSans-Light
 70
0
 40
0.0
 41
1.0
 50
0.0
 71
0
 42
2.5
  3
OpenSans-Light.ttf
  4

1001
ACAD
1000
Open Sans Light
1071
34
  0
STYLE
  5
42
330
5
100
AcDbSymbolTableRecord
100
AcDbTextStyleTableRecord
  2
OpenSans-Light-Italic
 70
0
 40
0.0
 41
1.0
 50
0.0
 71
0
 42
2.5
  3
OpenSans-LightItalic.ttf
  4

1001
ACAD
1000
Open Sans Light
1071
16777250
  0
STYLE
  5
43
330
5
100
AcDbSymbolTableRecord
100
AcDbTextStyleTableRecord
  2
OpenSans
 70
0
 40
0.0
 41
1.0
 50
0.0
 71
0
 42
2.5
  3
OpenSans-Regular.ttf
  4

1001
ACAD
1000
Open Sans
1071
34
  0
STYLE
  5
44
330
5
100
AcDbSymbolTableRecord
100
AcDbTextStyleTableRecord
  2
OpenSans-Italic
 70
0
 40
0.0
 41
1.0
 50
0.0
 71
0
 42
2.5
  3
OpenSans-Italic.ttf
  4

1001
ACAD
1000
Open Sans
1071
16777250
  0
STYLE
  5
45
330
5
100
AcDbSymbolTableRecord
100
AcDbTextStyleTableRecord
  2
OpenSans-SemiBold
 70
0
 40
0.0
 41
1.0
 50
0.0
 71
0
 42
2.5
  3
OpenSans-Semibold.ttf
  4

1001
ACAD
1000
Open Sans Semibold
1071
33554466
  0
STYLE
  5
46
330
5
100
AcDbSymbolTableRecord
100
AcDbTextStyleTableRecord
  2
OpenSans-SemiBoldItalic
 70
0
 40
0.0
 41
1.0
 50
0.0
 71
0
 42
2.5
  3
OpenSans-SemiboldItalic.ttf
  4

1001
ACAD
1000
Open Sans Semibold
1071
50331682
  0
STYLE
  5
47
330
5
100
AcDbSymbolTableRecord
100
AcDbTextStyleTableRecord
  2
OpenSans-Bold
 70
0
 40
0.0
 41
1.0
 50
0.0
 71
0
 42
2.5
  3
OpenSans-Bold.ttf
  4

1001
ACAD
1000
Open Sans
1071
33554466
  0
STYLE
  5
48
330
5
100
AcDbSymbolTableRecord
100
AcDbTextStyleTableRecord
  2
OpenSans-BoldItalic
 70
0
 40
0.0
 41
1.0
 50
0.0
 71
0
 42
2.5
  3
OpenSans-BoldItalic.ttf
  4

1001
ACAD
1000
Open Sans
1071
50331682
  0
STYLE
  5
49
330
5
100
AcDbSymbolTableRecord
100
AcDbTextStyleTableRecord
  2
OpenSans-ExtraBold
 70
0
 40
0.0
 41
1.0
 50
0.0
 71
0
 42
2.5
  3
OpenSans-ExtraBold.ttf
  4

1001
ACAD
1000
Open Sans Extrabold
1071
33554466
  0
STYLE
  5
4A
330
5
100
AcDbSymbolTableRecord
100
AcDbTextStyleTableRecord
  2
OpenSans-ExtraBoldItalic
 70
0
 40
0.0
 41
1.0
 50
0.0
 71
0
 42
2.5
  3
OpenSans-ExtraBoldItalic.ttf
  4

1001
ACAD
1000
Open Sans Extrabold
1071
50331682
  0
STYLE
  5
4B
330
5
100
AcDbSymbolTableRecord
100
AcDbTextStyleTableRecord
  2
OpenSansCondensed-Bold
 70
0
 40
0.0
 41
1.0
 50
0.0
 71
0
 42
2.5
  3
OpenSansCondensed-Bold.ttf
  4

1001
ACAD
1000
OpenSansCondensed-Bold
1071
34
  0
STYLE
  5
4C
330
5
100
AcDbSymbolTableRecord
100
AcDbTextStyleTableRecord
  2
OpenSansCondensed-Light
 70
0
 40
0.0
 41
1.0
 50
0.0
 71
0
 42
2.5
  3
OpenSansCondensed-Light.ttf
  4

1001
ACAD
1000
OpenSansCondensed-Light
1071
34
  0
STYLE
  5
4D
330
5
100
AcDbSymbolTableRecord
100
AcDbTextStyleTableRecord
  2
OpenSansCondensed-Italic
 70
0
 40
0.0
 41
1.0
 50
0.0
 71
0
 42
2.5
  3
OpenSansCondensed-LightItalic.ttf
  4

1001
ACAD
1000
OpenSansCondensed-LightItalic
1071
34
  0
STYLE
  5
4E
330
5
100
AcDbSymbolTableRecord
100
AcDbTextStyleTableRecord
  2
LiberationSans
 70
0
 40
0.0
 41
1.0
 50
0.0
 71
0
 42
2.5
  3
LiberationSans-Regular.ttf
  4

1001
ACAD
1000
LiberationSans-Regular
1071
34
  0
STYLE
  5
4F
330
5
100
AcDbSymbolTableRecord
100
AcDbTextStyleTableRecord
  2
LiberationSans-Bold
 70
0
 40
0.0
 41
1.0
 50
0.0
 71
0
 42
2.5
  3
LiberationSans-Bold.ttf
  4

1001
ACAD
1000
LiberationSans-Bold
1071
34
  0
STYLE
  5
50
330
5
100
AcDbSymbolTableRecord
100
AcDbTextStyleTableRecord
  2
LiberationSans-BoldItalic
 70
0
 40
0.0
 41
1.0
 50
0.0
 71
0
 42
2.5
  3
LiberationSans-BoldItalic.ttf
  4

1001
ACAD
1000
LiberationSans-BoldItalic
1071
34
  0
STYLE
  5
51
330
5
100
AcDbSymbolTableRecord
100
AcDbTextStyleTableRecord
  2
LiberationSans-Italic
 70
0
 40
0.0
 41
1.0
 50
0.0
 71
0
 42
2.5
  3
LiberationSans-Italic.ttf
  4

1001
ACAD
1000
LiberationSans-Italic
1071
34
  0
STYLE
  5
52
330
5
100
AcDbSymbolTableRecord
100
AcDbTextStyleTableRecord
  2
LiberationSerif
 70
0
 40
0.0
 41
1.0
 50
0.0
 71
0
 42
2.5
  3
LiberationSerif-Regular.ttf
  4

1001
ACAD
1000
LiberationSerif-Regular
1071
34
  0
STYLE
  5
53
330
5
100
AcDbSymbolTableRecord
100
AcDbTextStyleTableRecord
  2
LiberationSerif-Bold
 70
0
 40
0.0
 41
1.0
 50
0.0
 71
0
 42
2.5
  3
LiberationSerif-Bold.ttf
  4

1001
ACAD
1000
LiberationSerif-Bold
1071
34
  0
STYLE
  5
54
330
5
100
AcDbSymbolTableRecord
100
AcDbTextStyleTableRecord
  2
LiberationSerif-BoldItalic
 70
0
 40
0.0
 41
1.0
 50
0.0
 71
0
 42
2.5
  3
LiberationSerif-BoldItalic.ttf
  4

1001
ACAD
1000
LiberationSerif-BoldItalic
1071
34
  0
STYLE
  5
55
330
5
100
AcDbSymbolTableRecord
100
AcDbTextStyleTableRecord
  2
LiberationSerif-Italic
 70
0
 40
0.0
 41
1.0
 50
0.0
 71
0
 42
2.5
  3
LiberationSerif-Italic.ttf
  4

1001
ACAD
1000
LiberationSerif-Italic
1071
34
  0
STYLE
  5
56
330
5
100
AcDbSymbolTableRecord
100
AcDbTextStyleTableRecord
  2
LiberationMono
 70
0
 40
0.0
 41
1.0
 50
0.0
 71
0
 42
2.5
  3
LiberationMono-Regular.ttf
  4

1001
ACAD
1000
LiberationMono-Regular
1071
34
  0
STYLE
  5
57
330
5
100
AcDbSymbolTableRecord
100
AcDbTextStyleTableRecord
  2
LiberationMono-Bold
 70
0
 40
0.0
 41
1.0
 50
0.0
 71
0
 42
2.5
  3
LiberationMono-Bold.ttf
  4

1001
ACAD
1000
LiberationMono-Bold
1071
34
  0
STYLE
  5
58
330
5
100
AcDbSymbolTableRecord
100
AcDbTextStyleTableRecord
  2
LiberationMono-BoldItalic
 70
0
 40
0.0
 41
1.0
 50
0.0
 71
0
 42
2.5
  3
LiberationMono-BoldItalic.ttf
  4

1001
ACAD
1000
LiberationMono-BoldItalic
1071
34
  0
STYLE
  5
59
330
5
100
AcDbSymbolTableRecord
100
AcDbTextStyleTableRecord
  2
LiberationMono-Italic
 70
0
 40
0.0
 41
1.0
 50
0.0
 71
0
 42
2.5
  3
LiberationMono-Italic.ttf
  4

1001
ACAD
1000
LiberationMono-Italic
1071
34
  0
STYLE
  5
8A
330
5
100
AcDbSymbolTableRecord
100
AcDbTextStyleTableRecord
  2
KUBIEC
 70
0
 40
0.0
 41
1.0
 50
0.0
 71
0
 42
2.5
  3
romans.shx
  4

  0
ENDTAB
  0
TABLE
  2
VIEW
  5
3A0
330
0
100
AcDbSymbolTable
 70
0
  0
ENDTAB
  0
TABLE
  2
UCS
  5
39F
330
0
100
AcDbSymbolTable
 70
0
  0
ENDTAB
  0
TABLE
  2
APPID
  5
3
330
0
100
AcDbSymbolTable
 70
4
  0
APPID
  5
2A
330
3
100
AcDbSymbolTableRecord
100
AcDbRegAppTableRecord
  2
ACAD
 70
0
  0
APPID
  5
369
330
3
100
AcDbSymbolTableRecord
100
AcDbRegAppTableRecord
  2
HATCHBACKGROUNDCOLOR
 70
0
  0
APPID
  5
36A
330
3
100
AcDbSymbolTableRecord
100
AcDbRegAppTableRecord
  2
EZDXF
 70
0
  0
APPID
  5
393
330
3
100
AcDbSymbolTableRecord
100
AcDbRegAppTableRecord
  2
ACAD_NAV_VCDISPLAY
 70
0
  0
ENDTAB
  0
TABLE
  2
DIMSTYLE
  5
4
330
0
100
AcDbSymbolTable
 70
13
100
AcDbDimStyleTable
  0
DIMSTYLE
105
2B
330
4
100
AcDbSymbolTableRecord
100
AcDbDimStyleTableRecord
  2
Standard
 70
0
 40
1.0
 41
2.5
 42
0.625
 43
3.75
 44
1.25
 45
0.0
 46
0.0
 47
0.0
 48
0.0
 49
2.5
 50
45.0
140
2.5
141
2.5
142
0.0
143
0.03937007874
144
1.0
145
0.0
146
1.0
147
0.625
148
0.0
 69
0
 70
0
 71
0
 72
0
 73
0
 74
0
 75
0
 76
0
 77
1
 78
8
 79
3
170
0
171
3
172
1
173
0
174
0
175
0
176
-1056964608
177
-1056964608
178
-1056964608
179
2
271
2
272
2
273
2
274
3
275
0
276
0
277
2
278
44
279
0
280
0
281
0
282
0
283
0
284
8
285
0
286
0
288
0
289
3
290
0
371
-2
372
-2
  0
DIMSTYLE
105
73
330
4
100
AcDbSymbolTableRecord
100
AcDbDimStyleTableRecord
  2
EZDXF
 70
0
 40
1.0
 41
0.175
 42
0.125
 43
3.75
 44
0.375
 45
0.0
 46
0.0
 47
0.0
 48
0.0
 49
2.5
 50
45.0
140
0.25
141
2.5
142
0.0
143
0.03937007874
144
100.0
145
0.0
146
0.5
147
0.1
148
0.0
 69
0
 70
0
 71
0
 72
0
 73
0
 74
0
 75
0
 76
0
 77
1
 78
12
 79
3
170
0
171
3
172
1
173
0
174
0
175
0
176
-1056964608
177
-1056964608
178
-1056964608
179
2
271
2
272
2
273
2
274
3
275
0
276
0
277
2
278
46
279
2
280
0
281
0
282
0
283
0
284
8
285
0
286
0
288
1
289
3
290
0
340
4C
342
74
371
-2
372
-2
  0
DIMSTYLE
105
7C
330
4
100
AcDbSymbolTableRecord
100
AcDbDimStyleTableRecord
  2
EZ_M_100_H25_CM
 70
0
 40
1.0
 41
0.25
 42
0.125
 43
3.75
 44
0.375
 45
0.0
 46
0.0
 47
0.0
 48
0.0
 49
2.5
 50
45.0
140
0.25
141
2.5
142
0.125
143
0.03937007874
144
100.0
145
0.0
146
0.5
147
0.1
148
0.0
 69
0
 70
0
 71
0
 72
0
 73
0
 74
0
 75
0
 76
0
 77
1
 78
12
 79
3
170
0
171
3
172
1
173
0
174
0
175
0
176
-1056964608
177
-1056964608
178
-1056964608
179
2
271
2
272
2
273
2
274
3
275
0
276
0
277
2
278
46
279
2
280
0
281
0
282
0
283
0
284
8
285
0
286
0
288
1
289
3
290
0
340
4C
371
-2
372
-2
  0
DIMSTYLE
105
7D
330
4
100
AcDbSymbolTableRecord
100
AcDbDimStyleTableRecord
  2
EZ_M_50_H25_CM
 70
0
 40
1.0
 41
0.125
 42
0.0625
 43
3.75
 44
0.1875
 45
0.0
 46
0.0
 47
0.0
 48
0.0
 49
2.5
 50
45.0
140
0.125
141
2.5
142
0.0625
143
0.03937007874
144
100.0
145
0.0
146
0.5
147
0.05
148
0.0
 69
0
 70
0
 71
0
 72
0
 73
0
 74
0
 75
0
 76
0
 77
1
 78
12
 79
3
170
0
171
3
172
1
173
0
174
0
175
0
176
-1056964608
177
-1056964608
178
-1056964608
179
2
271
2
272
2
273
2
274
3
275
0
276
0
277
2
278
46
279
2
280
0
281
0
282
0
283
0
284
8
285
0
286
0
288
1
289
3
290
0
340
4C
371
-2
372
-2
  0
DIMSTYLE
105
7E
330
4
100
AcDbSymbolTableRecord
100
AcDbDimStyleTableRecord
  2
EZ_M_25_H25_CM
 70
0
 40
1.0
 41
0.0625
 42
0.03125
 43
3.75
 44
0.09375
 45
0.0
 46
0.0
 47
0.0
 48
0.0
 49
2.5
 50
45.0
140
0.0625
141
2.5
142
0.03125
143
0.03937007874
144
100.0
145
0.0
146
0.5
147
0.025
148
0.0
 69
0
 70
0
 71
0
 72
0
 73
0
 74
0
 75
0
 76
0
 77
1
 78
12
 79
3
170
0
171
3
172
1
173
0
174
0
175
0
176
-1056964608
177
-1056964608
178
-1056964608
179
2
271
2
272
2
273
2
274
3
275
0
276
0
277
2
278
46
279
2
280
0
281
0
282
0
283
0
284
8
285
0
286
0
288
1
289
3
290
0
340
4C
371
-2
372
-2
  0
DIMSTYLE
105
7F
330
4
100
AcDbSymbolTableRecord
100
AcDbDimStyleTableRecord
  2
EZ_M_20_H25_CM
 70
0
 40
1.0
 41
0.05
 42
0.025
 43
3.75
 44
0.07500000000000001
 45
0.0
 46
0.0
 47
0.0
 48
0.0
 49
2.5
 50
45.0
140
0.05
141
2.5
142
0.025
143
0.03937007874
144
100.0
145
0.0
146
0.5
147
0.02
148
0.0
 69
0
 70
0
 71
0
 72
0
 73
0
 74
0
 75
0
 76
0
 77
1
 78
12
 79
3
170
0
171
3
172
1
173
0
174
0
175
0
176
-1056964608
177
-1056964608
178
-1056964608
179
2
271
2
272
2
273
2
274
3
275
0
276
0
277
2
278
46
279
2
280
0
281
0
282
0
283
0
284
8
285
0
286
0
288
1
289
3
290
0
340
4C
371
-2
372
-2
  0
DIMSTYLE
105
80
330
4
100
AcDbSymbolTableRecord
100
AcDbDimStyleTableRecord
  2
EZ_M_10_H25_CM
 70
0
 40
1.0
 41
0.025
 42
0.0125
 43
3.75
 44
0.03750000000000001
 45
0.0
 46
0.0
 47
0.0
 48
0.0
 49
2.5
 50
45.0
140
0.025
141
2.5
142
0.0125
143
0.03937007874
144
100.0
145
0.0
146
0.5
147
0.01
148
0.0
 69
0
 70
0
 71
0
 72
0
 73
0
 74
0
 75
0
 76
0
 77
1
 78
12
 79
3
170
0
171
3
172
1
173
0
174
0
175
0
176
-1056964608
177
-1056964608
178
-1056964608
179
2
271
2
272
2
273
2
274
3
275
0
276
0
277
2
278
46
279
2
280
0
281
0
282
0
283
0
284
8
285
0
286
0
288
1
289
3
290
0
340
4C
371
-2
372
-2
  0
DIMSTYLE
105
81
330
4
100
AcDbSymbolTableRecord
100
AcDbDimStyleTableRecord
  2
EZ_M_5_H25_CM
 70
0
 40
1.0
 41
0.0125
 42
0.00625
 43
3.75
 44
0.01875
 45
0.0
 46
0.0
 47
0.0
 48
0.0
 49
2.5
 50
45.0
140
0.0125
141
2.5
142
0.00625
143
0.03937007874
144
100.0
145
0.0
146
0.5
147
0.005000000000000001
148
0.0
 69
0
 70
0
 71
0
 72
0
 73
0
 74
0
 75
0
 76
0
 77
1
 78
12
 79
3
170
0
171
3
172
1
173
0
174
0
175
0
176
-1056964608
177
-1056964608
178
-1056964608
179
2
271
2
272
2
273
2
274
3
275
0
276
0
277
2
278
46
279
2
280
0
281
0
282
0
283
0
284
8
285
0
286
0
288
1
289
3
290
0
340
4C
371
-2
372
-2
  0
DIMSTYLE
105
82
330
4
100
AcDbSymbolTableRecord
100
AcDbDimStyleTableRecord
  2
EZ_M_1_H25_CM
 70
0
 40
1.0
 41
0.0025
 42
0.00125
 43
3.75
 44
0.00375
 45
0.0
 46
0.0
 47
0.0
 48
0.0
 49
2.5
 50
45.0
140
0.0025
141
2.5
142
0.00125
143
0.03937007874
144
100.0
145
0.0
146
0.5
147
0.001
148
0.0
 69
0
 70
0
 71
0
 72
0
 73
0
 74
0
 75
0
 76
0
 77
1
 78
12
 79
3
170
0
171
3
172
1
173
0
174
0
175
0
176
-1056964608
177
-1056964608
178
-1056964608
179
2
271
2
272
2
273
2
274
3
275
0
276
0
277
2
278
46
279
2
280
0
281
0
282
0
283
0
284
8
285
0
286
0
288
1
289
3
290
0
340
4C
371
-2
372
-2
  0
DIMSTYLE
105
83
330
4
100
AcDbSymbolTableRecord
100
AcDbDimStyleTableRecord
  2
EZ_RADIUS
 70
0
 40
1.0
 41
0.25
 42
0.125
 43
3.75
 44
0.375
 45
0.0
 46
0.0
 47
0.0
 48
0.0
 49
2.5
 50
45.0
140
0.25
141
2.5
142
0.0
143
0.03937007874
144
100.0
145
0.0
146
0.5
147
0.1
148
0.0
 69
0
 70
0
 71
0
 72
0
 73
0
 74
0
 75
0
 76
0
 77
1
 78
12
 79
3
170
0
171
3
172
1
173
0
174
0
175
0
176
-1056964608
177
-1056964608
178
-1056964608
179
2
271
2
272
2
273
2
274
3
275
0
276
0
277
2
278
46
279
1
280
0
281
0
282
0
283
0
284
8
285
0
286
0
288
1
289
3
290
0
340
4C
342
84
371
-2
372
-2
  0
DIMSTYLE
105
88
330
4
100
AcDbSymbolTableRecord
100
AcDbDimStyleTableRecord
  2
EZ_RADIUS_INSIDE
 70
0
 40
1.0
 41
0.25
 42
0.125
 43
3.75
 44
0.375
 45
0.0
 46
0.0
 47
0.0
 48
0.0
 49
2.5
 50
45.0
140
0.25
141
2.5
142
0.0
143
0.03937007874
144
100.0
145
0.0
146
0.5
147
0.1
148
0.0
 69
0
 70
0
 71
0
 72
0
 73
0
 74
0
 75
0
 76
0
 77
1
 78
12
 79
3
170
0
171
3
172
1
173
0
174
1
175
0
176
-1056964608
177
-1056964608
178
-1056964608
179
2
271
2
272
2
273
2
274
3
275
0
276
0
277
2
278
46
279
0
280
0
281
0
282
0
283
0
284
8
285
0
286
0
288
1
289
3
290
0
340
4C
342
84
371
-2
372
-2
  0
DIMSTYLE
105
89
330
4
100
AcDbSymbolTableRecord
100
AcDbDimStyleTableRecord
  2
EZ_CURVED
 70
0
 40
1.0
 41
0.25
 42
0.125
 43
3.75
 44
0.375
 45
0.0
 46
0.0
 47
0.0
 48
0.0
 49
2.5
 50
45.0
140
0.25
141
2.5
142
0.0
143
0.03937007874
144
100.0
145
0.0
146
0.5
147
0.1
148
0.0
 69
0
 70
0
 71
0
 72
0
 73
0
 74
0
 75
0
 76
0
 77
1
 78
12
 79
2
 90
2
170
0
171
3
172
1
173
0
174
0
175
0
176
-1056964608
177
-1056964608
178
-1056964608
179
2
271
2
272
2
273
2
274
3
275
0
276
0
277
2
278
46
279
2
280
0
281
0
282
0
283
0
284
8
285
0
286
0
288
1
289
3
290
0
340
4C
371
-2
372
-2
  0
DIMSTYLE
105
A4
330
4
100
AcDbSymbolTableRecord
100
AcDbDimStyleTableRecord
  2
KUB
 70
0
 40
1.0
 41
2.5
 42
0.1
 43
3.75
 44
0.1
 45
0.0
 46
0.0
 47
0.0
 48
0.0
 49
2.5
 50
45.0
140
0.18
141
2.5
142
0.1
143
0.03937007874
144
1.0
145
0.0
146
1.0
147
0.06
148
0.0
 69
0
 70
0
 71
0
 72
0
 73
0
 74
0
 75
0
 76
0
 77
1
 78
8
 79
3
170
0
171
3
172
1
173
0
174
0
175
0
176
-1023410169
177
-1023410169
178
-1023410169
179
2
271
2
272
2
273
2
274
3
275
0
276
0
277
2
278
46
279
0
280
0
281
0
282
0
283
0
284
8
285
0
286
0
288
0
289
3
290
0
340
8A
371
-2
372
-2
  0
ENDTAB
  0
TABLE
  2
BLOCK_RECORD
  5
9
330
0
100
AcDbSymbolTable
 70
5
  0
BLOCK_RECORD
  5
17
330
9
100
AcDbSymbolTableRecord
100
AcDbBlockTableRecord
  2
*Model_Space
340
1A
 70
0
280
1
281
0
  0
BLOCK_RECORD
  5
1B
330
9
100
AcDbSymbolTableRecord
100
AcDbBlockTableRecord
  2
*Paper_Space
340
1E
 70
0
280
1
281
0
  0
BLOCK_RECORD
  5
74
330
9
100
AcDbSymbolTableRecord
100
AcDbBlockTableRecord
  2
_ARCHTICK
340
0
 70
0
280
1
281
0
  0
BLOCK_RECORD
  5
78
330
9
100
AcDbSymbolTableRecord
100
AcDbBlockTableRecord
  2
_CLOSEDFILLED
340
0
 70
0
280
1
281
0
  0
BLOCK_RECORD
  5
84
330
9
100
AcDbSymbolTableRecord
100
AcDbBlockTableRecord
  2
_CLOSEDBLANK
340
0
 70
0
280
1
281
0
  0
ENDTAB
  0
ENDSEC
  0
SECTION
  2
BLOCKS
  0
BLOCK
  5
18
330
17
100
AcDbEntity
  8
0
100
AcDbBlockBegin
  2
*Model_Space
 70
0
 10
0.0
 20
0.0
 30
0.0
  3
*Model_Space
  1

  0
ENDBLK
  5
19
330
17
100
AcDbEntity
  8
0
100
AcDbBlockEnd
  0
BLOCK
  5
1C
330
1B
100
AcDbEntity
 67
1
  8
0
100
AcDbBlockBegin
  2
*Paper_Space
 70
0
 10
0.0
 20
0.0
 30
0.0
  3
*Paper_Space
  1

  0
ENDBLK
  5
1D
330
1B
100
AcDbEntity
 67
1
  8
0
100
AcDbBlockEnd
  0
BLOCK
  5
75
330
74
100
AcDbEntity
  8
0
100
AcDbBlockBegin
  2
_ARCHTICK
 70
0
 10
0.0
 20
0.0
 30
0.0
  3
_ARCHTICK
  1

  0
LWPOLYLINE
  5
77
330
74
100
AcDbEntity
  8
0
  6
ByBlock
 62
0
390
20
100
AcDbPolyline
 90
2
 70
0
 43
0.15
 10
-0.5
 20
-0.5
 10
0.5
 20
0.5
  0
ENDBLK
  5
76
330
74
100
AcDbEntity
  8
0
100
AcDbBlockEnd
  0
BLOCK
  5
79
330
78
100
AcDbEntity
  8
0
100
AcDbBlockBegin
  2
_CLOSEDFILLED
 70
0
 10
0.0
 20
0.0
 30
0.0
  3
_CLOSEDFILLED
  1

  0
SOLID
  5
7B
330
78
100
AcDbEntity
  8
0
  6
ByBlock
 62
0
390
20
100
AcDbTrace
 10
-1.0
 20
0.1643989837240253
 30
0.0
 11
0.0
 21
0.0
 31
0.0
 12
-1.0
 22
-0.1643989837240253
 32
0.0
 13
-1.0
 23
-0.1643989837240253
 33
0.0
  0
ENDBLK
  5
7A
330
78
100
AcDbEntity
  8
0
100
AcDbBlockEnd
  0
BLOCK
  5
85
330
84
100
AcDbEntity
  8
0
100
AcDbBlockBegin
  2
_CLOSEDBLANK
 70
0
 10
0.0
 20
0.0
 30
0.0
  3
_CLOSEDBLANK
  1

  0
LWPOLYLINE
  5
87
330
84
100
AcDbEntity
  8
0
  6
ByBlock
 62
0
390
20
100
AcDbPolyline
 90
3
 70
1
 10
-1.0
 20
0.1643989837240253
 10
0.0
 20
0.0
 10
-1.0
 20
-0.1643989837240253
  0
ENDBLK
  5
86
330
84
100
AcDbEntity
  8
0
100
AcDbBlockEnd
  0
ENDSEC
  0
SECTION
  2
ENTITIES
  0
LWPOLYLINE
  5
A5
330
17
100
AcDbEntity
  8
BORDER_LIMITS
100
AcDbPolyline
 90
4
 70
1
 10
0.0
 20
0.0
 10
84.0
 20
0.0
 10
84.0
 20
59.4
 10
0.0
 20
59.4
  0
LWPOLYLINE
  5
A6
330
17
100
AcDbEntity
  8
DRAWING_BORDER
100
AcDbPolyline
 90
4
 70
1
 10
1.0
 20
1.0
 10
83.0
 20
1.0
 10
83.0
 20
58.4
 10
1.0
 20
58.4
  0
LINE
  5
A7
330
17
100
AcDbEntity
  8
FORMATO
100
AcDbLine
 10
83.0
 20
10.677
 30
0.0
 11
68.484
 21
10.677
 31
0.0
  0
LINE
  5
A8
330
17
100
AcDbEntity
  8
FORMATO
100
AcDbLine
 10
68.484
 20
1.0
 30
0.0
 11
68.484
 21
46.23199999999999
 31
0.0
  0
LINE
  5
A9
330
17
100
AcDbEntity
  8
FORMATO
100
AcDbLine
 10
68.484
 20
11.839
 30
0.0
 11
83.0
 21
11.839
 31
0.0
  0
LINE
  5
AA
330
17
100
AcDbEntity
  8
FORMATO
100
AcDbLine
 10
72.11299999999999
 20
11.839
 30
0.0
 11
72.11299999999999
 21
10.677
 31
0.0
  0
LINE
  5
AB
330
17
100
AcDbEntity
  8
FORMATO
100
AcDbLine
 10
79.371
 20
11.839
 30
0.0
 11
79.371
 21
10.677
 31
0.0
  0
LINE
  5
AC
330
17
100
AcDbEntity
  8
FORMATO
100
AcDbLine
 10
68.484
 20
10.677
 30
0.0
 11
83.0
 21
10.677
 31
0.0
  0
LINE
  5
AD
330
17
100
AcDbEntity
  8
FORMATO
100
AcDbLine
 10
68.484
 20
16.387
 30
0.0
 11
83.0
 21
16.387
 31
0.0
  0
LINE
  5
AE
330
17
100
AcDbEntity
  8
FORMATO
100
AcDbLine
 10
75.74199999999999
 20
11.839
 30
0.0
 11
75.74199999999999
 21
10.677
 31
0.0
  0
LINE
  5
AF
330
17
100
AcDbEntity
  8
FORMATO
100
AcDbLine
 10
83.0
 20
16.387
 30
0.0
 11
68.484
 21
16.387
 31
0.0
  0
LINE
  5
B0
330
17
100
AcDbEntity
  8
FORMATO
100
AcDbLine
 10
83.0
 20
13.29
 30
0.0
 11
68.484
 21
13.29
 31
0.0
  0
LINE
  5
B1
330
17
100
AcDbEntity
  8
FORMATO
100
AcDbLine
 10
83.0
 20
17.839
 30
0.0
 11
68.484
 21
17.839
 31
0.0
  0
LINE
  5
B2
330
17
100
AcDbEntity
  8
FORMATO
100
AcDbLine
 10
83.0
 20
19.774
 30
0.0
 11
68.484
 21
19.774
 31
0.0
  0
LINE
  5
B3
330
17
100
AcDbEntity
  8
FORMATO
100
AcDbLine
 10
83.0
 20
46.23199999999999
 30
0.0
 11
68.484
 21
46.23199999999999
 31
0.0
  0
LINE
  5
B4
330
17
100
AcDbEntity
  8
_DATEC
100
AcDbLine
 10
72.66799999999999
 20
14.671
 30
0.0
 11
77.383
 21
14.671
 31
0.0
  0
LINE
  5
B5
330
17
100
AcDbEntity
  8
FORMATO
100
AcDbLine
 10
72.307
 20
13.29
 30
0.0
 11
72.307
 21
16.387
 31
0.0
  0
LINE
  5
B6
330
17
100
AcDbEntity
  8
FORMATO
100
AcDbLine
 10
77.931
 20
13.29
 30
0.0
 11
77.931
 21
16.387
 31
0.0
  0
LINE
  5
B7
330
17
100
AcDbEntity
  8
_DATEC
100
AcDbLine
 10
78.214
 20
14.671
 30
0.0
 11
82.92999999999999
 21
14.671
 31
0.0
  0
LWPOLYLINE
  5
B8
330
17
100
AcDbEntity
  8
FORMATO
100
AcDbPolyline
 90
3
 70
0
 10
83.0
 20
19.774
 10
83.0
 20
1.0
 10
68.484
 20
1.0
  0
LINE
  5
B9
330
17
100
AcDbEntity
  8
FORMATO
100
AcDbLine
 10
83.484
 20
29.258
 30
0.0
 11
83.00399999999999
 21
29.258
 31
0.0
  0
TEXT
  5
BA
330
17
100
AcDbEntity
  8
_DATEC
100
AcDbText
 10
68.884
 20
10.17833333333333
 30
0.0
 40
0.16
  1
SELLOS MUNICIPALES:
  7
KUBIEC
 11
68.884
 21
10.125
 31
0.0
100
AcDbText
 73
1
  0
TEXT
  5
BB
330
17
100
AcDbEntity
  8
_DATEC
100
AcDbText
 10
79.585
 20
11.56133333333333
 30
0.0
 40
0.127
  1
PLANO Nº:
  7
KUBIEC
 11
79.585
 21
11.519
 31
0.0
100
AcDbText
 73
1
  0
TEXT
  5
BC
330
17
100
AcDbEntity
  8
_DATEC
100
AcDbText
 10
72.28699999999999
 20
11.56133333333333
 30
0.0
 40
0.127
  1
ESCALA:
  7
KUBIEC
 11
72.28699999999999
 21
11.519
 31
0.0
100
AcDbText
 73
1
  0
TEXT
  5
BD
330
17
100
AcDbEntity
  8
_DATEC
100
AcDbText
 10
75.88799999999999
 20
11.56133333333333
 30
0.0
 40
0.127
  1
FECHA:
  7
KUBIEC
 11
75.88799999999999
 21
11.519
 31
0.0
100
AcDbText
 73
1
  0
TEXT
  5
BE
330
17
100
AcDbEntity
  8
_DATEC
100
AcDbText
 10
68.547
 20
13.01533333333333
 30
0.0
 40
0.127
  1
PROPIETARIO:
  7
KUBIEC
 11
68.547
 21
12.973
 31
0.0
100
AcDbText
 73
1
  0
TEXT
  5
BF
330
17
100
AcDbEntity
  8
_DATEC
100
AcDbText
 10
68.585
 20
10.98733333333333
 30
0.0
 40
0.127
  1
MARCELO SEMBLANTES
  7
KUBIEC
 11
68.585
 21
10.945
 31
0.0
100
AcDbText
 73
1
  0
TEXT
  5
C0
330
17
100
AcDbEntity
  8
_DATEC
100
AcDbText
 10
72.597
 20
16.11033333333333
 30
0.0
 40
0.127
  1
DISEÑO ESTRUCTURAL:
  7
KUBIEC
 11
72.597
 21
16.068
 31
0.0
100
AcDbText
 73
1
  0
TEXT
  5
C1
330
17
100
AcDbEntity
  8
_DATEC
100
AcDbText
 10
73.69533333333332
 20
14.45333333333333
 30
0.0
 40
0.127
  1
ING. MARCELO SEMBLANTES V.
  7
KUBIEC
 72
1
 11
75.17699999999999
 21
14.411
 31
0.0
100
AcDbText
 73
1
  0
TEXT
  5
C2
330
17
100
AcDbEntity
  8
_DATEC
100
AcDbText
 10
74.0595
 20
14.15166666666667
 30
0.0
 40
0.113
  1
MAGÍSTER EN INGENIERÍA
  7
KUBIEC
 72
1
 11
75.133
 21
14.114
 31
0.0
100
AcDbText
 73
1
  0
TEXT
  5
C3
330
17
100
AcDbEntity
  8
_DATEC
100
AcDbText
 10
73.54092857142855
 20
13.53566666666667
 30
0.0
 40
0.113
  1
R. SENESCYT: 7402-R-16-28686
  7
KUBIEC
 72
1
 11
75.13099999999999
 21
13.498
 31
0.0
100
AcDbText
 73
1
  0
TEXT
  5
C4
330
17
100
AcDbEntity
  8
_DATEC
100
AcDbText
 10
73.94380952380952
 20
13.84466666666667
 30
0.0
 40
0.113
  1
ESTRUCTURAL Y GEOTECNIA
  7
KUBIEC
 72
1
 11
75.133
 21
13.807
 31
0.0
100
AcDbText
 73
1
  0
TEXT
  5
C5
330
17
100
AcDbEntity
  8
_DATEC
100
AcDbText
 10
78.14299999999999
 20
16.11033333333333
 30
0.0
 40
0.127
  1
REVISADO POR:
  7
KUBIEC
 11
78.14299999999999
 21
16.068
 31
0.0
100
AcDbText
 73
1
  0
TEXT
  5
C6
330
17
100
AcDbEntity
  8
_DATEC
100
AcDbText
 10
79.63442857142856
 20
14.45333333333333
 30
0.0
 40
0.127
  1
ING. HENRY VILLÓN B.
  7
KUBIEC
 72
1
 11
80.72299999999998
 21
14.411
 31
0.0
100
AcDbText
 73
1
  0
TEXT
  5
C7
330
17
100
AcDbEntity
  8
_DATEC
100
AcDbText
 10
79.65192857142857
 20
14.15166666666667
 30
0.0
 40
0.113
  1
MASTER EN CIENCIAS
  7
KUBIEC
 72
1
 11
80.564
 21
14.114
 31
0.0
100
AcDbText
 73
1
  0
TEXT
  5
C8
330
17
100
AcDbEntity
  8
_DATEC
100
AcDbText
 10
79.35088095238095
 20
13.53566666666667
 30
0.0
 40
0.113
  1
R. SENESCYT: 7241138502
  7
KUBIEC
 72
1
 11
80.532
 21
13.498
 31
0.0
100
AcDbText
 73
1
  0
TEXT
  5
C9
330
17
100
AcDbEntity
  8
_DATEC
100
AcDbText
 10
79.16495238095237
 20
13.84466666666667
 30
0.0
 40
0.113
  1
DE LA INGENIERIA ESTRUCTURAL
  7
KUBIEC
 72
1
 11
80.564
 21
13.807
 31
0.0
100
AcDbText
 73
1
  0
TEXT
  5
CA
330
17
100
AcDbEntity
  8
_DATEC
100
AcDbText
 10
68.62899999999999
 20
16.11033333333333
 30
0.0
 40
0.127
  1
CONTIENE:
  7
KUBIEC
 11
68.62899999999999
 21
16.068
 31
0.0
100
AcDbText
 73
1
  0
TEXT
  5
CB
330
17
100
AcDbEntity
  8
_DATEC
100
AcDbText
 10
74.69780952380952
 20
18.50466666666667
 30
0.0
 40
0.26
  1
CASA M-R
  7
KUBIEC
 72
1
 11
75.744
 21
18.418
 31
0.0
100
AcDbText
 73
1
  0
TEXT
  5
CC
330
17
100
AcDbEntity
  8
_DATEC
100
AcDbText
 10
76.544
 20
17.54033333333333
 30
0.0
 40
0.127
  1
CLAVE CATASTRAL: 20222-03-033
  7
KUBIEC
 11
76.544
 21
17.498
 31
0.0
100
AcDbText
 73
1
  0
TEXT
  5
CD
330
17
100
AcDbEntity
  8
_DATEC
100
AcDbText
 10
69.94399999999999
 20
17.11033333333333
 30
0.0
 40
0.127
  1
TUMBACO - QUITO - ECUADOR
  7
KUBIEC
 11
69.94399999999999
 21
17.068
 31
0.0
100
AcDbText
 73
1
  0
TEXT
  5
CE
330
17
100
AcDbEntity
  8
_DATEC
100
AcDbText
 10
68.514
 20
15.59033333333333
 30
0.0
 40
0.127
  1
- PLACAS BASE Y ANCLAJES,
  7
KUBIEC
 11
68.514
 21
15.548
 31
0.0
100
AcDbText
 73
1
  0
TEXT
  5
CF
330
17
100
AcDbEntity
  8
_DATEC
100
AcDbText
 10
68.514
 20
15.29033333333333
 30
0.0
 40
0.127
  1
  LOSA COLABORANTE
  7
KUBIEC
 11
68.514
 21
15.248
 31
0.0
100
AcDbText
 73
1
  0
TEXT
  5
D0
330
17
100
AcDbEntity
  8
_DATEC
100
AcDbText
 10
68.684
 20
12.34033333333333
 30
0.0
 40
0.127
  1
SR. ALFREDO MORA
  7
KUBIEC
 11
68.684
 21
12.298
 31
0.0
100
AcDbText
 73
1
  0
TEXT
  5
D1
330
17
100
AcDbEntity
  8
_DATEC
100
AcDbText
 10
74.0965238095238
 20
10.99033333333333
 30
0.0
 40
0.127
  1
INDICADAS
  7
KUBIEC
 72
1
 11
74.28399999999999
 21
10.948
 31
0.0
100
AcDbText
 73
1
  0
TEXT
  5
D2
330
17
100
AcDbEntity
  8
_DATEC
100
AcDbText
 10
77.14295238095238
 20
10.99033333333333
 30
0.0
 40
0.127
  1
2026-10-05
  7
KUBIEC
 72
1
 11
77.78399999999999
 21
10.948
 31
0.0
100
AcDbText
 73
1
  0
TEXT
  5
D3
330
17
100
AcDbEntity
  8
_DATEC
100
AcDbText
 10
80.92395238095237
 20
10.99033333333333
 30
0.0
 40
0.127
  1
E-14
  7
KUBIEC
 72
1
 11
81.184
 21
10.948
 31
0.0
100
AcDbText
 73
1
  0
TEXT
  5
D4
330
17
100
AcDbEntity
  8
05-EST-TEXTO
100
AcDbText
 10
68.884
 20
45.89466666666667
 30
0.0
 40
0.14
  1
ESPECIFICACIONES GENERALES: NORMAS DE DISEÑO: NEC (NEC-SE-DS, NEC-SE-AC, NEC-SE-HM, NEC-SE-GC), ACI 318-19, AISC 360-16, AISC
  7
KUBIEC
 41
0.85
 11
68.884
 21
45.848
 31
0.0
100
AcDbText
 73
1
  0
TEXT
  5
D5
330
17
100
AcDbEntity
  8
05-EST-TEXTO
100
AcDbText
 10
68.884
 20
45.65216666666667
 30
0.0
 40
0.14
  1
341-16 Y AWS D1.1.
  7
KUBIEC
 41
0.85
 11
68.884
 21
45.6055
 31
0.0
100
AcDbText
 73
1
  0
TEXT
  5
D6
330
17
100
AcDbEntity
  8
05-EST-TEXTO
100
AcDbText
 10
68.884
 20
45.40966666666667
 30
0.0
 40
0.14
  1
MATERIALES: ACERO ESTRUCTURAL ASTM A572 Gr.50 fy = 3515 kg/cm2 (COLUMNAS CAJÓN Y VIGAS VK); ASTM A36 fy = 2530 kg/cm2 (TUBOS
  7
KUBIEC
 41
0.85
 11
68.884
 21
45.363
 31
0.0
100
AcDbText
 73
1
  0
TEXT
  5
D7
330
17
100
AcDbEntity
  8
05-EST-TEXTO
100
AcDbText
 10
68.884
 20
45.16716666666667
 30
0.0
 40
0.14
  1
[]100X100X3).
  7
KUBIEC
 41
0.85
 11
68.884
 21
45.1205
 31
0.0
100
AcDbText
 73
1
  0
TEXT
  5
D8
330
17
100
AcDbEntity
  8
05-EST-TEXTO
100
AcDbText
 10
68.884
 20
44.92466666666667
 30
0.0
 40
0.14
  1
HORMIGÓN ARMADO f'c = 280 kg/cm2; ACERO DE REFUERZO fy = 4200 kg/cm2. RELLENO DE COLUMNAS CAJÓN: HORMIGÓN f'c >= 210 kg/cm2.
  7
KUBIEC
 41
0.85
 11
68.884
 21
44.878
 31
0.0
100
AcDbText
 73
1
  0
TEXT
  5
D9
330
17
100
AcDbEntity
  8
05-EST-TEXTO
100
AcDbText
 10
68.884
 20
44.68216666666667
 30
0.0
 40
0.14
  1
NOTAS GENERALES: LAS MEDIDAS ESTÁN INDICADAS EN METROS (m), EXCEPTO DONDE SE INDIQUE LO CONTRARIO. LAS MEDIDAS PREVALECEN SOBRE
  7
KUBIEC
 41
0.85
 11
68.884
 21
44.6355
 31
0.0
100
AcDbText
 73
1
  0
TEXT
  5
DA
330
17
100
AcDbEntity
  8
05-EST-TEXTO
100
AcDbText
 10
68.884
 20
44.43966666666667
 30
0.0
 40
0.14
  1
LA ESCALA DEL DIBUJO.
  7
KUBIEC
 41
0.85
 11
68.884
 21
44.393
 31
0.0
100
AcDbText
 73
1
  0
TEXT
  5
DB
330
17
100
AcDbEntity
  8
05-EST-TEXTO
100
AcDbText
 10
68.884
 20
44.19716666666667
 30
0.0
 40
0.14
  1
LOS PLANOS ARQUITECTÓNICOS RIGEN SOBRE LOS ESTRUCTURALES EN CUANTO A TRAZO, DIMENSIONES Y NIVELES. CUALQUIER DISCREPANCIA DEBERÁ
  7
KUBIEC
 41
0.85
 11
68.884
 21
44.1505
 31
0.0
100
AcDbText
 73
1
  0
TEXT
  5
DC
330
17
100
AcDbEntity
  8
05-EST-TEXTO
100
AcDbText
 10
68.884
 20
43.95466666666666
 30
0.0
 40
0.14
  1
SER NOTIFICADA AL PROYECTISTA O SUPERVISOR.
  7
KUBIEC
 41
0.85
 11
68.884
 21
43.90799999999999
 31
0.0
100
AcDbText
 73
1
  0
TEXT
  5
DD
330
17
100
AcDbEntity
  8
05-EST-TEXTO
100
AcDbText
 10
68.884
 20
43.71216666666666
 30
0.0
 40
0.14
  1
SEGÚN ESTUDIO DE SUELOS GEO-2026-0915-193: CAPACIDAD ADMISIBLE qadm = 24.0 Ton/m2 (FS = 3.0); PROFUNDIDAD DE DESPLANTE Df >=
  7
KUBIEC
 41
0.85
 11
68.884
 21
43.66549999999999
 31
0.0
100
AcDbText
 73
1
  0
TEXT
  5
DE
330
17
100
AcDbEntity
  8
05-EST-TEXTO
100
AcDbText
 10
68.884
 20
43.46966666666666
 30
0.0
 40
0.14
  1
1.40 m MEDIDA DESDE EL NPT.
  7
KUBIEC
 41
0.85
 11
68.884
 21
43.42299999999999
 31
0.0
100
AcDbText
 73
1
  0
TEXT
  5
DF
330
17
100
AcDbEntity
  8
05-EST-TEXTO
100
AcDbText
 10
68.884
 20
43.22716666666668
 30
0.0
 40
0.14
  1
EL FONDO DE LA EXCAVACIÓN SE COMPACTARÁ MECÁNICAMENTE AL 95% DEL PROCTOR ESTÁNDAR, EN CAPAS DE GROSOR NO MAYOR A 20 cm.
  7
KUBIEC
 41
0.85
 11
68.884
 21
43.18050000000001
 31
0.0
100
AcDbText
 73
1
  0
TEXT
  5
E0
330
17
100
AcDbEntity
  8
05-EST-TEXTO
100
AcDbText
 10
68.884
 20
42.98466666666668
 30
0.0
 40
0.14
  1
REPLANTILLO DE HORMIGÓN POBRE e = 10 cm.
  7
KUBIEC
 41
0.85
 11
68.884
 21
42.93800000000001
 31
0.0
100
AcDbText
 73
1
  0
TEXT
  5
E1
330
17
100
AcDbEntity
  8
05-EST-TEXTO
100
AcDbText
 10
68.884
 20
42.74216666666668
 30
0.0
 40
0.14
  1
RECUBRIMIENTOS: ZAPATAS 7.5 cm; MUROS 4 cm. LOS TRASLAPES DE VARILLAS SERÁN CLASE B (ACI 318-19, 25.5.2) Y SE UBICARÁN FUERA DE
  7
KUBIEC
 41
0.85
 11
68.884
 21
42.69550000000001
 31
0.0
100
AcDbText
 73
1
  0
TEXT
  5
E2
330
17
100
AcDbEntity
  8
05-EST-TEXTO
100
AcDbText
 10
68.884
 20
42.49966666666668
 30
0.0
 40
0.14
  1
LOS NUDOS.
  7
KUBIEC
 41
0.85
 11
68.884
 21
42.45300000000001
 31
0.0
100
AcDbText
 73
1
  0
TEXT
  5
E3
330
17
100
AcDbEntity
  8
05-EST-TEXTO
100
AcDbText
 10
68.884
 20
42.25716666666668
 30
0.0
 40
0.14
  1
LOS DOBLECES DE LAS VARILLAS SE HARÁN ALREDEDOR DE UN PERNO CUYO DIÁMETRO MÍNIMO SERÁ DE 6 VECES EL DE LA VARILLA. LOS ESTRIBOS
  7
KUBIEC
 41
0.85
 11
68.884
 21
42.21050000000001
 31
0.0
100
AcDbText
 73
1
  0
TEXT
  5
E4
330
17
100
AcDbEntity
  8
05-EST-TEXTO
100
AcDbText
 10
68.884
 20
42.01466666666668
 30
0.0
 40
0.14
  1
SE REMATARÁN CON GANCHOS A 135° Y LONGITUD MÍNIMA DE 6 db O 7.5 cm. EL PRIMER Y ÚLTIMO ESTRIBO EN UNA VIGA O COLUMNA SE COLOCARÁ
  7
KUBIEC
 41
0.85
 11
68.884
 21
41.96800000000001
 31
0.0
100
AcDbText
 73
1
  0
TEXT
  5
E5
330
17
100
AcDbEntity
  8
05-EST-TEXTO
100
AcDbText
 10
68.884
 20
41.77216666666667
 30
0.0
 40
0.14
  1
A 5 cm DE LA CARA DEL ELEMENTO.
  7
KUBIEC
 41
0.85
 11
68.884
 21
41.7255
 31
0.0
100
AcDbText
 73
1
  0
TEXT
  5
E6
330
17
100
AcDbEntity
  8
05-EST-TEXTO
100
AcDbText
 10
68.884
 20
41.52966666666667
 30
0.0
 40
0.14
  1
EL HORMIGÓN SERÁ VIBRADO POR MEDIOS MECÁNICOS Y CURADO POR CUALQUIER MÉTODO QUE GARANTICE ALCANZAR LA RESISTENCIA DE DISEÑO.
  7
KUBIEC
 41
0.85
 11
68.884
 21
41.483
 31
0.0
100
AcDbText
 73
1
  0
TEXT
  5
E7
330
17
100
AcDbEntity
  8
05-EST-TEXTO
100
AcDbText
 10
68.884
 20
41.28716666666667
 30
0.0
 40
0.14
  1
LOS ELEMENTOS ESTRUCTURALES BAJO NINGÚN CONCEPTO SERÁN ATRAVESADOS POR TUBOS DE INSTALACIONES. LAS PERFORACIONES PARA LAS
  7
KUBIEC
 41
0.85
 11
68.884
 21
41.2405
 31
0.0
100
AcDbText
 73
1
  0
TEXT
  5
E8
330
17
100
AcDbEntity
  8
05-EST-TEXTO
100
AcDbText
 10
68.884
 20
41.04466666666667
 30
0.0
 40
0.14
  1
VARILLAS DE ANCLAJE DE LAS PLACAS DEBERÁN SER REALIZADAS CON TALADRO, SE PROHÍBE HACER O AMPLIAR ESTAS PERFORACIONES CON
  7
KUBIEC
 41
0.85
 11
68.884
 21
40.998
 31
0.0
100
AcDbText
 73
1
  0
TEXT
  5
E9
330
17
100
AcDbEntity
  8
05-EST-TEXTO
100
AcDbText
 10
68.884
 20
40.80216666666667
 30
0.0
 40
0.14
  1
OXICORTE.
  7
KUBIEC
 41
0.85
 11
68.884
 21
40.7555
 31
0.0
100
AcDbText
 73
1
  0
TEXT
  5
3A1
330
17
100
AcDbEntity
  8
E_TITULO
100
AcDbText
 10
3.0
 20
56.4
 30
0.0
 40
0.3
  1
PLACAS BASE Y ANCLAJES - PRE-DISEÑO (A VERIFICAR EN CYPE)
  7
KUBIEC
 11
3.0
 21
56.4
 31
0.0
100
AcDbText
  0
TEXT
  5
3A2
330
17
100
AcDbEntity
  8
E_TITULO
100
AcDbText
 10
3.0
 20
53.9
 30
0.0
 40
0.26
  1
PB-1: COLUMNA []200X200X8
  7
KUBIEC
 11
3.0
 21
53.9
 31
0.0
100
AcDbText
  0
LWPOLYLINE
  5
3A3
330
17
100
AcDbEntity
  8
E_COLUMNAS
100
AcDbPolyline
 90
4
 70
1
 10
5.2
 20
42.2
 10
12.8
 20
42.2
 10
12.8
 20
49.8
 10
5.2
 20
49.8
  0
LWPOLYLINE
  5
3A4
330
17
100
AcDbEntity
  8
E_COLUMNAS
100
AcDbPolyline
 90
4
 70
1
 10
7.0
 20
44.0
 10
11.0
 20
44.0
 10
11.0
 20
48.0
 10
7.0
 20
48.0
  0
LWPOLYLINE
  5
3A5
330
17
100
AcDbEntity
  8
E_ARMADO_FINO
100
AcDbPolyline
 90
4
 70
1
 10
7.16
 20
44.16
 10
10.84
 20
44.16
 10
10.84
 20
47.84
 10
7.16
 20
47.84
  0
LWPOLYLINE
  5
3A6
330
17
100
AcDbEntity
  8
E_PEDESTALES
  6
DASHED
100
AcDbPolyline
 90
4
 70
1
 10
5.0
 20
42.0
 10
13.0
 20
42.0
 10
13.0
 20
50.0
 10
5.0
 20
50.0
  0
LWPOLYLINE
  5
3A7
330
17
100
AcDbEntity
  8
E_ARMADO_FINO
  6
DASHED
100
AcDbPolyline
 90
4
 70
1
 10
8.0
 20
45.0
 10
10.0
 20
45.0
 10
10.0
 20
47.0
 10
8.0
 20
47.0
  0
CIRCLE
  5
3A8
330
17
100
AcDbEntity
  8
E_ARMADO
100
AcDbCircle
 10
6.5
 20
43.5
 30
0.0
 40
0.19
  0
CIRCLE
  5
3A9
330
17
100
AcDbEntity
  8
E_ARMADO_FINO
100
AcDbCircle
 10
6.5
 20
43.5
 30
0.0
 40
0.25
  0
LWPOLYLINE
  5
3AA
330
17
100
AcDbEntity
  8
E_ARMADO_FINO
100
AcDbPolyline
 90
4
 70
1
 10
6.0
 20
43.0
 10
7.0
 20
43.0
 10
7.0
 20
44.0
 10
6.0
 20
44.0
  0
CIRCLE
  5
3AB
330
17
100
AcDbEntity
  8
E_ARMADO
100
AcDbCircle
 10
6.5
 20
48.5
 30
0.0
 40
0.19
  0
CIRCLE
  5
3AC
330
17
100
AcDbEntity
  8
E_ARMADO_FINO
100
AcDbCircle
 10
6.5
 20
48.5
 30
0.0
 40
0.25
  0
LWPOLYLINE
  5
3AD
330
17
100
AcDbEntity
  8
E_ARMADO_FINO
100
AcDbPolyline
 90
4
 70
1
 10
6.0
 20
48.0
 10
7.0
 20
48.0
 10
7.0
 20
49.0
 10
6.0
 20
49.0
  0
CIRCLE
  5
3AE
330
17
100
AcDbEntity
  8
E_ARMADO
100
AcDbCircle
 10
11.5
 20
43.5
 30
0.0
 40
0.19
  0
CIRCLE
  5
3AF
330
17
100
AcDbEntity
  8
E_ARMADO_FINO
100
AcDbCircle
 10
11.5
 20
43.5
 30
0.0
 40
0.25
  0
LWPOLYLINE
  5
3B0
330
17
100
AcDbEntity
  8
E_ARMADO_FINO
100
AcDbPolyline
 90
4
 70
1
 10
11.0
 20
43.0
 10
12.0
 20
43.0
 10
12.0
 20
44.0
 10
11.0
 20
44.0
  0
CIRCLE
  5
3B1
330
17
100
AcDbEntity
  8
E_ARMADO
100
AcDbCircle
 10
11.5
 20
48.5
 30
0.0
 40
0.19
  0
CIRCLE
  5
3B2
330
17
100
AcDbEntity
  8
E_ARMADO_FINO
100
AcDbCircle
 10
11.5
 20
48.5
 30
0.0
 40
0.25
  0
LWPOLYLINE
  5
3B3
330
17
100
AcDbEntity
  8
E_ARMADO_FINO
100
AcDbPolyline
 90
4
 70
1
 10
11.0
 20
48.0
 10
12.0
 20
48.0
 10
12.0
 20
49.0
 10
11.0
 20
49.0
  0
LINE
  5
3B4
330
17
100
AcDbEntity
  8
E_EJES
  6
CENTER
100
AcDbLine
 10
4.3999999999999995
 20
46.0
 30
0.0
 11
13.600000000000001
 21
46.0
 31
0.0
  0
LINE
  5
3B5
330
17
100
AcDbEntity
  8
E_EJES
  6
CENTER
100
AcDbLine
 10
9.0
 20
41.4
 30
0.0
 11
9.0
 21
50.6
 31
0.0
  0
LINE
  5
3B6
330
17
100
AcDbEntity
  8
E_CORTE
100
AcDbLine
 10
4.1
 20
45.64
 30
0.0
 11
4.1
 21
46.36
 31
0.0
  0
LINE
  5
3B7
330
17
100
AcDbEntity
  8
E_CORTE
100
AcDbLine
 10
13.9
 20
45.64
 30
0.0
 11
13.9
 21
46.36
 31
0.0
  0
TEXT
  5
3B8
330
17
100
AcDbEntity
  8
E_TEXTO
100
AcDbText
 10
3.3999999999999995
 20
46.0
 30
0.0
 40
0.22
  1
A
  7
KUBIEC
 72
1
 11
3.3999999999999995
 21
46.0
 31
0.0
100
AcDbText
 73
2
  0
TEXT
  5
3B9
330
17
100
AcDbEntity
  8
E_TEXTO
100
AcDbText
 10
14.600000000000001
 20
46.0
 30
0.0
 40
0.22
  1
A
  7
KUBIEC
 72
1
 11
14.600000000000001
 21
46.0
 31
0.0
100
AcDbText
 73
2
  0
LINE
  5
3BA
330
17
100
AcDbEntity
  8
E_COTAS
100
AcDbLine
 10
5.2
 20
42.2
 30
0.0
 11
5.2
 21
41.18
 31
0.0
  0
LINE
  5
3BB
330
17
100
AcDbEntity
  8
E_COTAS
100
AcDbLine
 10
12.8
 20
42.2
 30
0.0
 11
12.8
 21
41.18
 31
0.0
  0
LINE
  5
3BC
330
17
100
AcDbEntity
  8
E_COTAS
100
AcDbLine
 10
5.2
 20
41.3
 30
0.0
 11
12.8
 21
41.3
 31
0.0
  0
LINE
  5
3BD
330
17
100
AcDbEntity
  8
E_COTAS
100
AcDbLine
 10
5.11
 20
41.209999999999994
 30
0.0
 11
5.29
 21
41.39
 31
0.0
  0
LINE
  5
3BE
330
17
100
AcDbEntity
  8
E_COTAS
100
AcDbLine
 10
12.71
 20
41.209999999999994
 30
0.0
 11
12.89
 21
41.39
 31
0.0
  0
TEXT
  5
3BF
330
17
100
AcDbEntity
  8
E_COTAS
100
AcDbText
 10
9.0
 20
41.349999999999994
 30
0.0
 40
0.17
  1
380
  7
KUBIEC
 72
1
 11
9.0
 21
41.349999999999994
 31
0.0
100
AcDbText
 73
1
  0
LINE
  5
3C0
330
17
100
AcDbEntity
  8
E_COTAS
100
AcDbLine
 10
6.5
 20
42.2
 30
0.0
 11
6.5
 21
41.68
 31
0.0
  0
LINE
  5
3C1
330
17
100
AcDbEntity
  8
E_COTAS
100
AcDbLine
 10
11.5
 20
42.2
 30
0.0
 11
11.5
 21
41.68
 31
0.0
  0
LINE
  5
3C2
330
17
100
AcDbEntity
  8
E_COTAS
100
AcDbLine
 10
6.5
 20
41.8
 30
0.0
 11
11.5
 21
41.8
 31
0.0
  0
LINE
  5
3C3
330
17
100
AcDbEntity
  8
E_COTAS
100
AcDbLine
 10
6.41
 20
41.709999999999994
 30
0.0
 11
6.59
 21
41.89
 31
0.0
  0
LINE
  5
3C4
330
17
100
AcDbEntity
  8
E_COTAS
100
AcDbLine
 10
11.41
 20
41.709999999999994
 30
0.0
 11
11.59
 21
41.89
 31
0.0
  0
TEXT
  5
3C5
330
17
100
AcDbEntity
  8
E_COTAS
100
AcDbText
 10
9.0
 20
41.849999999999994
 30
0.0
 40
0.17
  1
250
  7
KUBIEC
 72
1
 11
9.0
 21
41.849999999999994
 31
0.0
100
AcDbText
 73
1
  0
LINE
  5
3C6
330
17
100
AcDbEntity
  8
E_COTAS
100
AcDbLine
 10
5.2
 20
42.2
 30
0.0
 11
5.2
 21
41.68
 31
0.0
  0
LINE
  5
3C7
330
17
100
AcDbEntity
  8
E_COTAS
100
AcDbLine
 10
6.5
 20
42.2
 30
0.0
 11
6.5
 21
41.68
 31
0.0
  0
LINE
  5
3C8
330
17
100
AcDbEntity
  8
E_COTAS
100
AcDbLine
 10
5.2
 20
41.8
 30
0.0
 11
6.5
 21
41.8
 31
0.0
  0
LINE
  5
3C9
330
17
100
AcDbEntity
  8
E_COTAS
100
AcDbLine
 10
5.11
 20
41.709999999999994
 30
0.0
 11
5.29
 21
41.89
 31
0.0
  0
LINE
  5
3CA
330
17
100
AcDbEntity
  8
E_COTAS
100
AcDbLine
 10
6.41
 20
41.709999999999994
 30
0.0
 11
6.59
 21
41.89
 31
0.0
  0
TEXT
  5
3CB
330
17
100
AcDbEntity
  8
E_COTAS
100
AcDbText
 10
5.85
 20
41.849999999999994
 30
0.0
 40
0.17
  1
65
  7
KUBIEC
 72
1
 11
5.85
 21
41.849999999999994
 31
0.0
100
AcDbText
 73
1
  0
LINE
  5
3CC
330
17
100
AcDbEntity
  8
E_COTAS
100
AcDbLine
 10
11.5
 20
42.2
 30
0.0
 11
11.5
 21
41.68
 31
0.0
  0
LINE
  5
3CD
330
17
100
AcDbEntity
  8
E_COTAS
100
AcDbLine
 10
12.8
 20
42.2
 30
0.0
 11
12.8
 21
41.68
 31
0.0
  0
LINE
  5
3CE
330
17
100
AcDbEntity
  8
E_COTAS
100
AcDbLine
 10
11.5
 20
41.8
 30
0.0
 11
12.8
 21
41.8
 31
0.0
  0
LINE
  5
3CF
330
17
100
AcDbEntity
  8
E_COTAS
100
AcDbLine
 10
11.41
 20
41.709999999999994
 30
0.0
 11
11.59
 21
41.89
 31
0.0
  0
LINE
  5
3D0
330
17
100
AcDbEntity
  8
E_COTAS
100
AcDbLine
 10
12.71
 20
41.709999999999994
 30
0.0
 11
12.89
 21
41.89
 31
0.0
  0
TEXT
  5
3D1
330
17
100
AcDbEntity
  8
E_COTAS
100
AcDbText
 10
12.15
 20
41.849999999999994
 30
0.0
 40
0.17
  1
65
  7
KUBIEC
 72
1
 11
12.15
 21
41.849999999999994
 31
0.0
100
AcDbText
 73
1
  0
LINE
  5
3D2
330
17
100
AcDbEntity
  8
E_COTAS
100
AcDbLine
 10
12.8
 20
42.2
 30
0.0
 11
14.02
 21
42.2
 31
0.0
  0
LINE
  5
3D3
330
17
100
AcDbEntity
  8
E_COTAS
100
AcDbLine
 10
12.8
 20
49.8
 30
0.0
 11
14.02
 21
49.8
 31
0.0
  0
LINE
  5
3D4
330
17
100
AcDbEntity
  8
E_COTAS
100
AcDbLine
 10
13.9
 20
42.2
 30
0.0
 11
13.9
 21
49.8
 31
0.0
  0
LINE
  5
3D5
330
17
100
AcDbEntity
  8
E_COTAS
100
AcDbLine
 10
13.81
 20
42.11
 30
0.0
 11
13.99
 21
42.290000000000006
 31
0.0
  0
LINE
  5
3D6
330
17
100
AcDbEntity
  8
E_COTAS
100
AcDbLine
 10
13.81
 20
49.709999999999994
 30
0.0
 11
13.99
 21
49.89
 31
0.0
  0
TEXT
  5
3D7
330
17
100
AcDbEntity
  8
E_COTAS
100
AcDbText
 10
13.85
 20
46.0
 30
0.0
 40
0.17
  1
380
 50
90.0
  7
KUBIEC
 72
1
 11
13.85
 21
46.0
 31
0.0
100
AcDbText
 73
1
  0
LINE
  5
3D8
330
17
100
AcDbEntity
  8
E_COTAS
100
AcDbLine
 10
12.8
 20
43.5
 30
0.0
 11
13.42
 21
43.5
 31
0.0
  0
LINE
  5
3D9
330
17
100
AcDbEntity
  8
E_COTAS
100
AcDbLine
 10
12.8
 20
48.5
 30
0.0
 11
13.42
 21
48.5
 31
0.0
  0
LINE
  5
3DA
330
17
100
AcDbEntity
  8
E_COTAS
100
AcDbLine
 10
13.3
 20
43.5
 30
0.0
 11
13.3
 21
48.5
 31
0.0
  0
LINE
  5
3DB
330
17
100
AcDbEntity
  8
E_COTAS
100
AcDbLine
 10
13.21
 20
43.41
 30
0.0
 11
13.39
 21
43.59
 31
0.0
  0
LINE
  5
3DC
330
17
100
AcDbEntity
  8
E_COTAS
100
AcDbLine
 10
13.21
 20
48.41
 30
0.0
 11
13.39
 21
48.59
 31
0.0
  0
TEXT
  5
3DD
330
17
100
AcDbEntity
  8
E_COTAS
100
AcDbText
 10
13.25
 20
46.0
 30
0.0
 40
0.17
  1
250
 50
90.0
  7
KUBIEC
 72
1
 11
13.25
 21
46.0
 31
0.0
100
AcDbText
 73
1
  0
LINE
  5
3DE
330
17
100
AcDbEntity
  8
E_COTAS
100
AcDbLine
 10
7.0
 20
49.8
 30
0.0
 11
7.0
 21
50.42
 31
0.0
  0
LINE
  5
3DF
330
17
100
AcDbEntity
  8
E_COTAS
100
AcDbLine
 10
11.0
 20
49.8
 30
0.0
 11
11.0
 21
50.42
 31
0.0
  0
LINE
  5
3E0
330
17
100
AcDbEntity
  8
E_COTAS
100
AcDbLine
 10
7.0
 20
50.3
 30
0.0
 11
11.0
 21
50.3
 31
0.0
  0
LINE
  5
3E1
330
17
100
AcDbEntity
  8
E_COTAS
100
AcDbLine
 10
6.91
 20
50.209999999999994
 30
0.0
 11
7.09
 21
50.39
 31
0.0
  0
LINE
  5
3E2
330
17
100
AcDbEntity
  8
E_COTAS
100
AcDbLine
 10
10.91
 20
50.209999999999994
 30
0.0
 11
11.09
 21
50.39
 31
0.0
  0
TEXT
  5
3E3
330
17
100
AcDbEntity
  8
E_COTAS
100
AcDbText
 10
9.0
 20
50.349999999999994
 30
0.0
 40
0.17
  1
200
  7
KUBIEC
 72
1
 11
9.0
 21
50.349999999999994
 31
0.0
100
AcDbText
 73
1
  0
LINE
  5
3E4
330
17
100
AcDbEntity
  8
E_COTAS
100
AcDbLine
 10
5.2
 20
44.0
 30
0.0
 11
4.58
 21
44.0
 31
0.0
  0
LINE
  5
3E5
330
17
100
AcDbEntity
  8
E_COTAS
100
AcDbLine
 10
5.2
 20
48.0
 30
0.0
 11
4.58
 21
48.0
 31
0.0
  0
LINE
  5
3E6
330
17
100
AcDbEntity
  8
E_COTAS
100
AcDbLine
 10
4.7
 20
44.0
 30
0.0
 11
4.7
 21
48.0
 31
0.0
  0
LINE
  5
3E7
330
17
100
AcDbEntity
  8
E_COTAS
100
AcDbLine
 10
4.61
 20
43.91
 30
0.0
 11
4.79
 21
44.09
 31
0.0
  0
LINE
  5
3E8
330
17
100
AcDbEntity
  8
E_COTAS
100
AcDbLine
 10
4.61
 20
47.91
 30
0.0
 11
4.79
 21
48.09
 31
0.0
  0
TEXT
  5
3E9
330
17
100
AcDbEntity
  8
E_COTAS
100
AcDbText
 10
4.65
 20
46.0
 30
0.0
 40
0.17
  1
200
 50
90.0
  7
KUBIEC
 72
1
 11
4.65
 21
46.0
 31
0.0
100
AcDbText
 73
1
  0
LINE
  5
3EA
330
17
100
AcDbEntity
  8
E_COTAS
100
AcDbLine
 10
4.0
 20
51.4
 30
0.0
 11
5.36
 21
49.64
 31
0.0
  0
CIRCLE
  5
3EB
330
17
100
AcDbEntity
  8
E_COTAS
100
AcDbCircle
 10
5.36
 20
49.64
 30
0.0
 40
0.04
  0
TEXT
  5
3EC
330
17
100
AcDbEntity
  8
E_TEXTO
100
AcDbText
 10
4.0
 20
51.4
 30
0.0
 40
0.16
  1
PL 380x380 (A36), t segun cuadro
  7
KUBIEC
 11
4.0
 21
51.4
 31
0.0
100
AcDbText
  0
LINE
  5
3ED
330
17
100
AcDbEntity
  8
E_COTAS
100
AcDbLine
 10
13.600000000000001
 20
51.5
 30
0.0
 11
11.5
 21
48.5
 31
0.0
  0
CIRCLE
  5
3EE
330
17
100
AcDbEntity
  8
E_COTAS
100
AcDbCircle
 10
11.5
 20
48.5
 30
0.0
 40
0.04
  0
TEXT
  5
3EF
330
17
100
AcDbEntity
  8
E_TEXTO
100
AcDbText
 10
13.600000000000001
 20
51.5
 30
0.0
 40
0.16
  1
4 anclajes φ19 F1554 Gr.36
  7
KUBIEC
 11
13.600000000000001
 21
51.5
 31
0.0
100
AcDbText
  0
LINE
  5
3F0
330
17
100
AcDbEntity
  8
E_COTAS
100
AcDbLine
 10
11.4
 20
39.6
 30
0.0
 11
9.7
 21
45.3
 31
0.0
  0
CIRCLE
  5
3F1
330
17
100
AcDbEntity
  8
E_COTAS
100
AcDbCircle
 10
9.7
 20
45.3
 30
0.0
 40
0.04
  0
TEXT
  5
3F2
330
17
100
AcDbEntity
  8
E_TEXTO
100
AcDbText
 10
11.4
 20
39.6
 30
0.0
 40
0.16
  1
taco de corte []100x100x6 (oculto)
  7
KUBIEC
 11
11.4
 21
39.6
 31
0.0
100
AcDbText
  0
TEXT
  5
3F3
330
17
100
AcDbEntity
  8
E_TEXTO
100
AcDbText
 10
9.0
 20
40.4
 30
0.0
 40
0.2
  1
PLANTA  ESC 1:5
  7
KUBIEC
 72
1
 11
9.0
 21
40.4
 31
0.0
100
AcDbText
 73
2
  0
LWPOLYLINE
  5
3F4
330
17
100
AcDbEntity
  8
E_PEDESTALES
100
AcDbPolyline
 90
4
 70
1
 10
21.0
 20
32.0
 10
29.0
 20
32.0
 10
29.0
 20
41.0
 10
21.0
 20
41.0
  0
HATCH
  5
3F5
330
17
100
AcDbEntity
  8
E_HATCH
 62
7
100
AcDbHatch
 10
0.0
 20
0.0
 30
0.0
210
0.0
220
0.0
230
1.0
  2
AR-CONC
 70
0
 71
0
 91
1
 92
3
 72
0
 73
1
 93
4
 10
21.0
 20
32.0
 10
29.0
 20
32.0
 10
29.0
 20
41.0
 10
21.0
 20
41.0
 97
0
 75
1
 76
1
 52
0.0
 41
0.045
 77
0
 78
13
 53
50.0
 43
0.0
 44
0.0
 45
8.1983101048
 46
-0.7172588493
 79
2
 49
0.85725
 49
-9.42975
 53
355.0
 43
0.0
 44
0.0
 45
-1.5859539641
 46
8.5975580358
 79
2
 49
0.6858
 49
-7.5438262876
 53
100.4514447
 43
0.683190315
 44
-0.0597714075
 45
6.6123561191
 46
7.880298836
 79
2
 49
0.728550396
 49
-8.014061007
 53
46.1842
 43
0.0
 44
2.286
 45
12.1985568401
 46
-1.891904757
 79
2
 49
1.285875
 49
-14.144625
 53
96.63555761
 43
1.0165455
 44
2.1283425
 45
10.6831860323
 46
11.1341756069
 79
2
 49
1.0928260413
 49
-12.0211023672
 53
351.18415117
 43
0.0
 44
2.286
 45
10.6831860329
 46
11.1341756063
 79
2
 49
1.0286985181
 49
-11.3156879364
 53
21.0
 43
1.143
 44
1.7145
 45
6.8226476071
 46
-4.6019339184
 79
2
 49
0.85725
 49
-9.42975
 53
326.0
 43
1.143
 44
1.7145
 45
2.7810912756
 46
8.2884584755
 79
2
 49
0.6858
 49
-7.5438
 53
71.451445
 43
1.711553967
 44
1.3310055045
 45
9.6037388675
 46
3.6865245999
 79
2
 49
0.728550396
 49
-8.014047192
 53
37.5
 43
0.0
 44
0.0
 45
0.1389871463
 46
3.8049767493
 79
6
 49
0.0
 49
-7.45236
 49
0.0
 49
-7.6581
 49
0.0
 49
-7.572375
 53
7.5
 43
0.0
 44
0.0
 45
3.006884813
 46
4.5081258668
 79
6
 49
0.0
 49
-4.36626
 49
0.0
 49
-7.28091
 49
0.0
 49
-2.886075
 53
-32.5
 43
-2.54889
 44
0.0
 45
6.1015767825
 46
-0.2577934797
 79
6
 49
0.0
 49
-2.8575
 49
0.0
 49
-8.9154
 49
0.0
 49
-11.83005
 53
-42.5
 43
-3.69189
 44
0.0
 45
6.6658131624
 46
1.1441920965
 79
6
 49
0.0
 49
-3.71475
 49
0.0
 49
-5.92074
 49
0.0
 49
-8.40105
 98
0
  0
LINE
  5
3F6
330
17
100
AcDbEntity
  8
E_ARMADO
100
AcDbLine
 10
21.7
 20
32.1
 30
0.0
 11
21.7
 21
40.84
 31
0.0
  0
LINE
  5
3F7
330
17
100
AcDbEntity
  8
E_ARMADO_FINO
  6
DASHED
100
AcDbLine
 10
22.2
 20
32.1
 30
0.0
 11
22.2
 21
40.84
 31
0.0
  0
LINE
  5
3F8
330
17
100
AcDbEntity
  8
E_ARMADO
100
AcDbLine
 10
28.3
 20
32.1
 30
0.0
 11
28.3
 21
40.84
 31
0.0
  0
LINE
  5
3F9
330
17
100
AcDbEntity
  8
E_ARMADO_FINO
  6
DASHED
100
AcDbLine
 10
27.8
 20
32.1
 30
0.0
 11
27.8
 21
40.84
 31
0.0
  0
LINE
  5
3FA
330
17
100
AcDbEntity
  8
E_ARMADO_FINO
100
AcDbLine
 10
21.6
 20
40.4
 30
0.0
 11
28.4
 21
40.4
 31
0.0
  0
LINE
  5
3FB
330
17
100
AcDbEntity
  8
E_ARMADO_FINO
100
AcDbLine
 10
21.6
 20
39.4
 30
0.0
 11
28.4
 21
39.4
 31
0.0
  0
LINE
  5
3FC
330
17
100
AcDbEntity
  8
E_ARMADO_FINO
100
AcDbLine
 10
21.6
 20
38.4
 30
0.0
 11
28.4
 21
38.4
 31
0.0
  0
LINE
  5
3FD
330
17
100
AcDbEntity
  8
E_ARMADO_FINO
100
AcDbLine
 10
21.6
 20
37.4
 30
0.0
 11
28.4
 21
37.4
 31
0.0
  0
LINE
  5
3FE
330
17
100
AcDbEntity
  8
E_ARMADO_FINO
100
AcDbLine
 10
21.6
 20
35.0
 30
0.0
 11
28.4
 21
35.0
 31
0.0
  0
LINE
  5
3FF
330
17
100
AcDbEntity
  8
E_ARMADO_FINO
100
AcDbLine
 10
21.6
 20
32.6
 30
0.0
 11
28.4
 21
32.6
 31
0.0
  0
LWPOLYLINE
  5
400
330
17
100
AcDbEntity
  8
E_ARMADO_FINO
100
AcDbPolyline
 90
4
 70
1
 10
21.2
 20
41.0
 10
28.8
 20
41.0
 10
28.8
 20
41.8
 10
21.2
 20
41.8
  0
LWPOLYLINE
  5
401
330
17
100
AcDbEntity
  8
E_COLUMNAS
100
AcDbPolyline
 90
4
 70
1
 10
21.2
 20
41.8
 10
28.8
 20
41.8
 10
28.8
 20
42.44
 10
21.2
 20
42.44
  0
HATCH
  5
402
330
17
100
AcDbEntity
  8
E_HATCH
 62
7
100
AcDbHatch
 10
0.0
 20
0.0
 30
0.0
210
0.0
220
0.0
230
1.0
  2
ANSI31
 70
0
 71
0
 91
1
 92
3
 72
0
 73
1
 93
4
 10
21.2
 20
41.8
 10
28.8
 20
41.8
 10
28.8
 20
42.44
 10
21.2
 20
42.44
 97
0
 75
1
 76
1
 52
0.0
 41
0.06
 77
0
 78
1
 53
45.0
 43
0.0
 44
0.0
 45
-0.1347038418
 46
0.1347038418
 79
0
 98
0
  0
LINE
  5
403
330
17
100
AcDbEntity
  8
E_COLUMNAS
100
AcDbLine
 10
23.0
 20
42.44
 30
0.0
 11
23.0
 21
47.64
 31
0.0
  0
LINE
  5
404
330
17
100
AcDbEntity
  8
E_COLUMNAS
100
AcDbLine
 10
27.0
 20
42.44
 30
0.0
 11
27.0
 21
47.64
 31
0.0
  0
LINE
  5
405
330
17
100
AcDbEntity
  8
E_ARMADO_FINO
100
AcDbLine
 10
23.16
 20
42.44
 30
0.0
 11
23.16
 21
47.64
 31
0.0
  0
LINE
  5
406
330
17
100
AcDbEntity
  8
E_ARMADO_FINO
100
AcDbLine
 10
26.84
 20
42.44
 30
0.0
 11
26.84
 21
47.64
 31
0.0
  0
HATCH
  5
407
330
17
100
AcDbEntity
  8
E_HATCH
 62
7
100
AcDbHatch
 10
0.0
 20
0.0
 30
0.0
210
0.0
220
0.0
230
1.0
  2
ANSI31
 70
0
 71
0
 91
1
 92
3
 72
0
 73
1
 93
4
 10
23.0
 20
42.44
 10
23.16
 20
42.44
 10
23.16
 20
47.64
 10
23.0
 20
47.64
 97
0
 75
1
 76
1
 52
0.0
 41
0.05
 77
0
 78
1
 53
45.0
 43
0.0
 44
0.0
 45
-0.1122532015
 46
0.1122532015
 79
0
 98
0
  0
HATCH
  5
408
330
17
100
AcDbEntity
  8
E_HATCH
 62
7
100
AcDbHatch
 10
0.0
 20
0.0
 30
0.0
210
0.0
220
0.0
230
1.0
  2
ANSI31
 70
0
 71
0
 91
1
 92
3
 72
0
 73
1
 93
4
 10
26.84
 20
42.44
 10
27.0
 20
42.44
 10
27.0
 20
47.64
 10
26.84
 20
47.64
 97
0
 75
1
 76
1
 52
0.0
 41
0.05
 77
0
 78
1
 53
45.0
 43
0.0
 44
0.0
 45
-0.1122532015
 46
0.1122532015
 79
0
 98
0
  0
HATCH
  5
409
330
17
100
AcDbEntity
  8
E_HATCH
 62
7
100
AcDbHatch
 10
0.0
 20
0.0
 30
0.0
210
0.0
220
0.0
230
1.0
  2
AR-SAND
 70
0
 71
0
 91
1
 92
3
 72
0
 73
1
 93
4
 10
23.16
 20
42.44
 10
26.84
 20
42.44
 10
26.84
 20
47.64
 10
23.16
 20
47.64
 97
0
 75
1
 76
1
 52
0.0
 41
0.045
 77
0
 78
4
 53
37.5
 43
0.0
 44
0.0
 45
-0.0720014083
 46
2.202359568
 79
6
 49
0.0
 49
-1.73736
 49
0.0
 49
-1.9431
 49
0.0
 49
-1.857375
 53
7.5
 43
0.0
 44
0.0
 45
2.0228547741
 46
3.2257129526
 79
6
 49
0.0
 49
-0.93726
 49
0.0
 49
-1.56591
 49
0.0
 49
-0.600075
 53
-32.5
 43
-1.40589
 44
0.0
 45
3.5594656661
 46
0.0064673311
 79
6
 49
0.0
 49
-0.5715
 49
0.0
 49
-2.0574
 49
0.0
 49
-2.68605
 53
-42.5
 43
-1.40589
 44
0.0
 45
3.4360040361
 46
1.0031819547
 79
6
 49
0.0
 49
-0.28575
 49
0.0
 49
-1.34874
 49
0.0
 49
-1.54305
 98
0
  0
LWPOLYLINE
  5
40A
330
17
100
AcDbEntity
  8
E_CORTE
100
AcDbPolyline
 90
6
 70
0
 10
22.7
 20
47.64
 10
23.62
 20
47.879999999999995
 10
24.54
 20
47.4
 10
25.46
 20
47.879999999999995
 10
26.38
 20
47.4
 10
27.3
 20
47.64
  0
HATCH
  5
40B
330
17
100
AcDbEntity
  8
E_HATCH
 62
7
100
AcDbHatch
 10
0.0
 20
0.0
 30
0.0
210
0.0
220
0.0
230
1.0
  2
SOLID
 70
1
 71
0
 91
1
 92
3
 72
0
 73
1
 93
3
 10
23.0
 20
42.44
 10
22.88
 20
42.44
 10
23.0
 20
42.56
 97
0
 75
1
 76
1
 98
0
  0
HATCH
  5
40C
330
17
100
AcDbEntity
  8
E_HATCH
 62
7
100
AcDbHatch
 10
0.0
 20
0.0
 30
0.0
210
0.0
220
0.0
230
1.0
  2
SOLID
 70
1
 71
0
 91
1
 92
3
 72
0
 73
1
 93
3
 10
27.0
 20
42.44
 10
27.12
 20
42.44
 10
27.0
 20
42.56
 97
0
 75
1
 76
1
 98
0
  0
LWPOLYLINE
  5
40D
330
17
100
AcDbEntity
  8
E_COLUMNAS
100
AcDbPolyline
 90
4
 70
1
 10
24.0
 20
40.3
 10
26.0
 20
40.3
 10
26.0
 20
41.8
 10
24.0
 20
41.8
  0
LWPOLYLINE
  5
40E
330
17
100
AcDbEntity
  8
E_ARMADO_FINO
  6
DASHED
100
AcDbPolyline
 90
4
 70
1
 10
23.5
 20
40.1
 10
26.5
 20
40.1
 10
26.5
 20
41.0
 10
23.5
 20
41.0
  0
LWPOLYLINE
  5
40F
330
17
100
AcDbEntity
  8
E_ARMADO
100
AcDbPolyline
 90
4
 70
1
 10
22.31
 20
33.0
 10
22.69
 20
33.0
 10
22.69
 20
43.04
 10
22.31
 20
43.04
  0
LWPOLYLINE
  5
410
330
17
100
AcDbEntity
  8
E_ARMADO_FINO
100
AcDbPolyline
 90
4
 70
1
 10
22.0
 20
42.44
 10
23.0
 20
42.44
 10
23.0
 20
42.6
 10
22.0
 20
42.6
  0
LWPOLYLINE
  5
411
330
17
100
AcDbEntity
  8
E_ARMADO
100
AcDbPolyline
 90
4
 70
1
 10
22.2
 20
42.6
 10
22.8
 20
42.6
 10
22.8
 20
42.9
 10
22.2
 20
42.9
  0
LWPOLYLINE
  5
412
330
17
100
AcDbEntity
  8
E_ARMADO_FINO
100
AcDbPolyline
 90
4
 70
1
 10
22.2
 20
41.34
 10
22.8
 20
41.34
 10
22.8
 20
41.64
 10
22.2
 20
41.64
  0
LWPOLYLINE
  5
413
330
17
100
AcDbEntity
  8
E_ARMADO_FINO
100
AcDbPolyline
 90
4
 70
1
 10
22.0
 20
41.64
 10
23.0
 20
41.64
 10
23.0
 20
41.8
 10
22.0
 20
41.8
  0
LWPOLYLINE
  5
414
330
17
100
AcDbEntity
  8
E_ARMADO
100
AcDbPolyline
 90
4
 70
1
 10
22.0
 20
32.84
 10
23.0
 20
32.84
 10
23.0
 20
33.0
 10
22.0
 20
33.0
  0
LWPOLYLINE
  5
415
330
17
100
AcDbEntity
  8
E_ARMADO_FINO
100
AcDbPolyline
 90
4
 70
1
 10
22.2
 20
33.0
 10
22.8
 20
33.0
 10
22.8
 20
33.3
 10
22.2
 20
33.3
  0
LWPOLYLINE
  5
416
330
17
100
AcDbEntity
  8
E_ARMADO
100
AcDbPolyline
 90
4
 70
1
 10
27.31
 20
33.0
 10
27.69
 20
33.0
 10
27.69
 20
43.04
 10
27.31
 20
43.04
  0
LWPOLYLINE
  5
417
330
17
100
AcDbEntity
  8
E_ARMADO_FINO
100
AcDbPolyline
 90
4
 70
1
 10
27.0
 20
42.44
 10
28.0
 20
42.44
 10
28.0
 20
42.6
 10
27.0
 20
42.6
  0
LWPOLYLINE
  5
418
330
17
100
AcDbEntity
  8
E_ARMADO
100
AcDbPolyline
 90
4
 70
1
 10
27.2
 20
42.6
 10
27.8
 20
42.6
 10
27.8
 20
42.9
 10
27.2
 20
42.9
  0
LWPOLYLINE
  5
419
330
17
100
AcDbEntity
  8
E_ARMADO_FINO
100
AcDbPolyline
 90
4
 70
1
 10
27.2
 20
41.34
 10
27.8
 20
41.34
 10
27.8
 20
41.64
 10
27.2
 20
41.64
  0
LWPOLYLINE
  5
41A
330
17
100
AcDbEntity
  8
E_ARMADO_FINO
100
AcDbPolyline
 90
4
 70
1
 10
27.0
 20
41.64
 10
28.0
 20
41.64
 10
28.0
 20
41.8
 10
27.0
 20
41.8
  0
LWPOLYLINE
  5
41B
330
17
100
AcDbEntity
  8
E_ARMADO
100
AcDbPolyline
 90
4
 70
1
 10
27.0
 20
32.84
 10
28.0
 20
32.84
 10
28.0
 20
33.0
 10
27.0
 20
33.0
  0
LWPOLYLINE
  5
41C
330
17
100
AcDbEntity
  8
E_ARMADO_FINO
100
AcDbPolyline
 90
4
 70
1
 10
27.2
 20
33.0
 10
27.8
 20
33.0
 10
27.8
 20
33.3
 10
27.2
 20
33.3
  0
LINE
  5
41D
330
17
100
AcDbEntity
  8
E_COTAS
100
AcDbLine
 10
29.0
 20
41.0
 30
0.0
 11
30.32
 21
41.0
 31
0.0
  0
LINE
  5
41E
330
17
100
AcDbEntity
  8
E_COTAS
100
AcDbLine
 10
29.0
 20
41.8
 30
0.0
 11
30.32
 21
41.8
 31
0.0
  0
LINE
  5
41F
330
17
100
AcDbEntity
  8
E_COTAS
100
AcDbLine
 10
30.2
 20
41.0
 30
0.0
 11
30.2
 21
41.8
 31
0.0
  0
LINE
  5
420
330
17
100
AcDbEntity
  8
E_COTAS
100
AcDbLine
 10
30.11
 20
40.91
 30
0.0
 11
30.29
 21
41.09
 31
0.0
  0
LINE
  5
421
330
17
100
AcDbEntity
  8
E_COTAS
100
AcDbLine
 10
30.11
 20
41.709999999999994
 30
0.0
 11
30.29
 21
41.89
 31
0.0
  0
TEXT
  5
422
330
17
100
AcDbEntity
  8
E_COTAS
100
AcDbText
 10
30.15
 20
41.4
 30
0.0
 40
0.17
  1
40
 50
90.0
  7
KUBIEC
 72
1
 11
30.15
 21
41.4
 31
0.0
100
AcDbText
 73
1
  0
LINE
  5
423
330
17
100
AcDbEntity
  8
E_COTAS
100
AcDbLine
 10
29.0
 20
41.8
 30
0.0
 11
30.32
 21
41.8
 31
0.0
  0
LINE
  5
424
330
17
100
AcDbEntity
  8
E_COTAS
100
AcDbLine
 10
29.0
 20
42.44
 30
0.0
 11
30.32
 21
42.44
 31
0.0
  0
LINE
  5
425
330
17
100
AcDbEntity
  8
E_COTAS
100
AcDbLine
 10
30.2
 20
41.8
 30
0.0
 11
30.2
 21
42.44
 31
0.0
  0
LINE
  5
426
330
17
100
AcDbEntity
  8
E_COTAS
100
AcDbLine
 10
30.11
 20
41.709999999999994
 30
0.0
 11
30.29
 21
41.89
 31
0.0
  0
LINE
  5
427
330
17
100
AcDbEntity
  8
E_COTAS
100
AcDbLine
 10
30.11
 20
42.349999999999994
 30
0.0
 11
30.29
 21
42.53
 31
0.0
  0
TEXT
  5
428
330
17
100
AcDbEntity
  8
E_COTAS
100
AcDbText
 10
30.15
 20
42.12
 30
0.0
 40
0.17
  1
32
 50
90.0
  7
KUBIEC
 72
1
 11
30.15
 21
42.12
 31
0.0
100
AcDbText
 73
1
  0
LINE
  5
429
330
17
100
AcDbEntity
  8
E_COTAS
100
AcDbLine
 10
29.0
 20
33.0
 30
0.0
 11
30.32
 21
33.0
 31
0.0
  0
LINE
  5
42A
330
17
100
AcDbEntity
  8
E_COTAS
100
AcDbLine
 10
29.0
 20
41.0
 30
0.0
 11
30.32
 21
41.0
 31
0.0
  0
LINE
  5
42B
330
17
100
AcDbEntity
  8
E_COTAS
100
AcDbLine
 10
30.2
 20
33.0
 30
0.0
 11
30.2
 21
41.0
 31
0.0
  0
LINE
  5
42C
330
17
100
AcDbEntity
  8
E_COTAS
100
AcDbLine
 10
30.11
 20
32.91
 30
0.0
 11
30.29
 21
33.09
 31
0.0
  0
LINE
  5
42D
330
17
100
AcDbEntity
  8
E_COTAS
100
AcDbLine
 10
30.11
 20
40.91
 30
0.0
 11
30.29
 21
41.09
 31
0.0
  0
TEXT
  5
42E
330
17
100
AcDbEntity
  8
E_COTAS
100
AcDbText
 10
30.15
 20
37.0
 30
0.0
 40
0.17
  1
hef 400
 50
90.0
  7
KUBIEC
 72
1
 11
30.15
 21
37.0
 31
0.0
100
AcDbText
 73
1
  0
LINE
  5
42F
330
17
100
AcDbEntity
  8
E_COTAS
100
AcDbLine
 10
21.0
 20
40.3
 30
0.0
 11
19.68
 21
40.3
 31
0.0
  0
LINE
  5
430
330
17
100
AcDbEntity
  8
E_COTAS
100
AcDbLine
 10
21.0
 20
41.8
 30
0.0
 11
19.68
 21
41.8
 31
0.0
  0
LINE
  5
431
330
17
100
AcDbEntity
  8
E_COTAS
100
AcDbLine
 10
19.8
 20
40.3
 30
0.0
 11
19.8
 21
41.8
 31
0.0
  0
LINE
  5
432
330
17
100
AcDbEntity
  8
E_COTAS
100
AcDbLine
 10
19.71
 20
40.209999999999994
 30
0.0
 11
19.89
 21
40.39
 31
0.0
  0
LINE
  5
433
330
17
100
AcDbEntity
  8
E_COTAS
100
AcDbLine
 10
19.71
 20
41.709999999999994
 30
0.0
 11
19.89
 21
41.89
 31
0.0
  0
TEXT
  5
434
330
17
100
AcDbEntity
  8
E_COTAS
100
AcDbText
 10
19.75
 20
41.05
 30
0.0
 40
0.17
  1
75
 50
90.0
  7
KUBIEC
 72
1
 11
19.75
 21
41.05
 31
0.0
100
AcDbText
 73
1
  0
LINE
  5
435
330
17
100
AcDbEntity
  8
E_COTAS
100
AcDbLine
 10
21.0
 20
32.0
 30
0.0
 11
21.0
 21
31.08
 31
0.0
  0
LINE
  5
436
330
17
100
AcDbEntity
  8
E_COTAS
100
AcDbLine
 10
29.0
 20
32.0
 30
0.0
 11
29.0
 21
31.08
 31
0.0
  0
LINE
  5
437
330
17
100
AcDbEntity
  8
E_COTAS
100
AcDbLine
 10
21.0
 20
31.2
 30
0.0
 11
29.0
 21
31.2
 31
0.0
  0
LINE
  5
438
330
17
100
AcDbEntity
  8
E_COTAS
100
AcDbLine
 10
20.91
 20
31.11
 30
0.0
 11
21.09
 21
31.29
 31
0.0
  0
LINE
  5
439
330
17
100
AcDbEntity
  8
E_COTAS
100
AcDbLine
 10
28.91
 20
31.11
 30
0.0
 11
29.09
 21
31.29
 31
0.0
  0
TEXT
  5
43A
330
17
100
AcDbEntity
  8
E_COTAS
100
AcDbText
 10
25.0
 20
31.25
 30
0.0
 40
0.17
  1
400
  7
KUBIEC
 72
1
 11
25.0
 21
31.25
 31
0.0
100
AcDbText
 73
1
  0
LINE
  5
43B
330
17
100
AcDbEntity
  8
E_COTAS
100
AcDbLine
 10
23.0
 20
47.64
 30
0.0
 11
23.0
 21
48.56
 31
0.0
  0
LINE
  5
43C
330
17
100
AcDbEntity
  8
E_COTAS
100
AcDbLine
 10
27.0
 20
47.64
 30
0.0
 11
27.0
 21
48.56
 31
0.0
  0
LINE
  5
43D
330
17
100
AcDbEntity
  8
E_COTAS
100
AcDbLine
 10
23.0
 20
48.44
 30
0.0
 11
27.0
 21
48.44
 31
0.0
  0
LINE
  5
43E
330
17
100
AcDbEntity
  8
E_COTAS
100
AcDbLine
 10
22.91
 20
48.349999999999994
 30
0.0
 11
23.09
 21
48.53
 31
0.0
  0
LINE
  5
43F
330
17
100
AcDbEntity
  8
E_COTAS
100
AcDbLine
 10
26.91
 20
48.349999999999994
 30
0.0
 11
27.09
 21
48.53
 31
0.0
  0
TEXT
  5
440
330
17
100
AcDbEntity
  8
E_COTAS
100
AcDbText
 10
25.0
 20
48.489999999999995
 30
0.0
 40
0.17
  1
200
  7
KUBIEC
 72
1
 11
25.0
 21
48.489999999999995
 31
0.0
100
AcDbText
 73
1
  0
LINE
  5
441
330
17
100
AcDbEntity
  8
E_COTAS
100
AcDbLine
 10
22.5
 20
32.84
 30
0.0
 11
22.5
 21
31.02
 31
0.0
  0
LINE
  5
442
330
17
100
AcDbEntity
  8
E_COTAS
100
AcDbLine
 10
27.5
 20
32.84
 30
0.0
 11
27.5
 21
31.02
 31
0.0
  0
LINE
  5
443
330
17
100
AcDbEntity
  8
E_COTAS
100
AcDbLine
 10
22.5
 20
31.14
 30
0.0
 11
27.5
 21
31.14
 31
0.0
  0
LINE
  5
444
330
17
100
AcDbEntity
  8
E_COTAS
100
AcDbLine
 10
22.41
 20
31.05
 30
0.0
 11
22.59
 21
31.23
 31
0.0
  0
LINE
  5
445
330
17
100
AcDbEntity
  8
E_COTAS
100
AcDbLine
 10
27.41
 20
31.05
 30
0.0
 11
27.59
 21
31.23
 31
0.0
  0
TEXT
  5
446
330
17
100
AcDbEntity
  8
E_COTAS
100
AcDbText
 10
25.0
 20
31.19
 30
0.0
 40
0.17
  1
250
  7
KUBIEC
 72
1
 11
25.0
 21
31.19
 31
0.0
100
AcDbText
 73
1
  0
LINE
  5
447
330
17
100
AcDbEntity
  8
E_COTAS
100
AcDbLine
 10
16.6
 20
44.04
 30
0.0
 11
21.2
 21
42.12
 31
0.0
  0
CIRCLE
  5
448
330
17
100
AcDbEntity
  8
E_COTAS
100
AcDbCircle
 10
21.2
 20
42.12
 30
0.0
 40
0.04
  0
TEXT
  5
449
330
17
100
AcDbEntity
  8
E_TEXTO
100
AcDbText
 10
16.6
 20
44.04
 30
0.0
 40
0.16
  1
PL 380x380x32
  7
KUBIEC
 72
2
 11
16.6
 21
44.04
 31
0.0
100
AcDbText
  0
LINE
  5
44A
330
17
100
AcDbEntity
  8
E_COTAS
100
AcDbLine
 10
18.4
 20
39.4
 30
0.0
 11
25.0
 21
41.0
 31
0.0
  0
CIRCLE
  5
44B
330
17
100
AcDbEntity
  8
E_COTAS
100
AcDbCircle
 10
25.0
 20
41.0
 30
0.0
 40
0.04
  0
TEXT
  5
44C
330
17
100
AcDbEntity
  8
E_TEXTO
100
AcDbText
 10
18.4
 20
39.4
 30
0.0
 40
0.16
  1
taco []100x100x6 L=75
  7
KUBIEC
 72
2
 11
18.4
 21
39.4
 31
0.0
100
AcDbText
  0
LINE
  5
44D
330
17
100
AcDbEntity
  8
E_COTAS
100
AcDbLine
 10
12.2
 20
36.0
 30
0.0
 11
22.5
 21
36.0
 31
0.0
  0
CIRCLE
  5
44E
330
17
100
AcDbEntity
  8
E_COTAS
100
AcDbCircle
 10
22.5
 20
36.0
 30
0.0
 40
0.04
  0
TEXT
  5
44F
330
17
100
AcDbEntity
  8
E_TEXTO
100
AcDbText
 10
12.2
 20
36.0
 30
0.0
 40
0.16
  1
anclaje φ19 L=530
  7
KUBIEC
 72
2
 11
12.2
 21
36.0
 31
0.0
100
AcDbText
  0
LINE
  5
450
330
17
100
AcDbEntity
  8
E_COTAS
100
AcDbLine
 10
12.2
 20
37.8
 30
0.0
 11
22.8
 21
38.3
 31
0.0
  0
CIRCLE
  5
451
330
17
100
AcDbEntity
  8
E_COTAS
100
AcDbCircle
 10
22.8
 20
38.3
 30
0.0
 40
0.04
  0
TEXT
  5
452
330
17
100
AcDbEntity
  8
E_TEXTO
100
AcDbText
 10
12.2
 20
37.8
 30
0.0
 40
0.16
  1
estribos φ10@50 (3 en 150 mm)
  7
KUBIEC
 72
2
 11
12.2
 21
37.8
 31
0.0
100
AcDbText
  0
LINE
  5
453
330
17
100
AcDbEntity
  8
E_COTAS
100
AcDbLine
 10
31.6
 20
34.4
 30
0.0
 11
28.3
 21
37.0
 31
0.0
  0
CIRCLE
  5
454
330
17
100
AcDbEntity
  8
E_COTAS
100
AcDbCircle
 10
28.3
 20
37.0
 30
0.0
 40
0.04
  0
TEXT
  5
455
330
17
100
AcDbEntity
  8
E_TEXTO
100
AcDbText
 10
31.6
 20
34.4
 30
0.0
 40
0.16
  1
8 barras verticales del pedestal
  7
KUBIEC
 11
31.6
 21
34.4
 31
0.0
100
AcDbText
  0
LINE
  5
456
330
17
100
AcDbEntity
  8
E_COTAS
100
AcDbLine
 10
27.4
 20
43.4
 30
0.0
 11
25.0
 21
41.4
 31
0.0
  0
CIRCLE
  5
457
330
17
100
AcDbEntity
  8
E_COTAS
100
AcDbCircle
 10
25.0
 20
41.4
 30
0.0
 40
0.04
  0
TEXT
  5
458
330
17
100
AcDbEntity
  8
E_TEXTO
100
AcDbText
 10
27.4
 20
43.4
 30
0.0
 40
0.16
  1
grout sin retraccion (e=40)
  7
KUBIEC
 11
27.4
 21
43.4
 31
0.0
100
AcDbText
  0
LINE
  5
459
330
17
100
AcDbEntity
  8
E_COTAS
100
AcDbLine
 10
28.8
 20
46.24
 30
0.0
 11
26.92
 21
44.84
 31
0.0
  0
CIRCLE
  5
45A
330
17
100
AcDbEntity
  8
E_COTAS
100
AcDbCircle
 10
26.92
 20
44.84
 30
0.0
 40
0.04
  0
TEXT
  5
45B
330
17
100
AcDbEntity
  8
E_TEXTO
100
AcDbText
 10
28.8
 20
46.24
 30
0.0
 40
0.16
  1
columna cajon (rellena f'c>=210)
  7
KUBIEC
 11
28.8
 21
46.24
 31
0.0
100
AcDbText
  0
LINE
  5
45C
330
17
100
AcDbEntity
  8
E_COTAS
100
AcDbLine
 10
29.4
 20
43.84
 30
0.0
 11
27.0
 21
42.5
 31
0.0
  0
CIRCLE
  5
45D
330
17
100
AcDbEntity
  8
E_COTAS
100
AcDbCircle
 10
27.0
 20
42.5
 30
0.0
 40
0.04
  0
TEXT
  5
45E
330
17
100
AcDbEntity
  8
E_TEXTO
100
AcDbText
 10
29.4
 20
43.84
 30
0.0
 40
0.16
  1
filete 6 mm perimetral
  7
KUBIEC
 11
29.4
 21
43.84
 31
0.0
100
AcDbText
  0
TEXT
  5
45F
330
17
100
AcDbEntity
  8
E_TEXTO
100
AcDbText
 10
25.0
 20
30.6
 30
0.0
 40
0.2
  1
CORTE A-A  ESC 1:5
  7
KUBIEC
 72
1
 11
25.0
 21
30.6
 31
0.0
100
AcDbText
 73
2
  0
TEXT
  5
460
330
17
100
AcDbEntity
  8
E_TITULO
100
AcDbText
 10
3.0
 20
28.4
 30
0.0
 40
0.26
  1
PB-2: COLUMNA []250X200X8
  7
KUBIEC
 11
3.0
 21
28.4
 31
0.0
100
AcDbText
  0
LWPOLYLINE
  5
461
330
17
100
AcDbEntity
  8
E_COLUMNAS
100
AcDbPolyline
 90
4
 70
1
 10
5.2
 20
16.2
 10
12.8
 20
16.2
 10
12.8
 20
23.8
 10
5.2
 20
23.8
  0
LWPOLYLINE
  5
462
330
17
100
AcDbEntity
  8
E_COLUMNAS
100
AcDbPolyline
 90
4
 70
1
 10
6.5
 20
18.0
 10
11.5
 20
18.0
 10
11.5
 20
22.0
 10
6.5
 20
22.0
  0
LWPOLYLINE
  5
463
330
17
100
AcDbEntity
  8
E_ARMADO_FINO
100
AcDbPolyline
 90
4
 70
1
 10
6.66
 20
18.16
 10
11.34
 20
18.16
 10
11.34
 20
21.84
 10
6.66
 20
21.84
  0
LWPOLYLINE
  5
464
330
17
100
AcDbEntity
  8
E_PEDESTALES
  6
DASHED
100
AcDbPolyline
 90
4
 70
1
 10
5.0
 20
16.0
 10
13.0
 20
16.0
 10
13.0
 20
24.0
 10
5.0
 20
24.0
  0
LWPOLYLINE
  5
465
330
17
100
AcDbEntity
  8
E_ARMADO_FINO
  6
DASHED
100
AcDbPolyline
 90
4
 70
1
 10
8.0
 20
19.0
 10
10.0
 20
19.0
 10
10.0
 20
21.0
 10
8.0
 20
21.0
  0
CIRCLE
  5
466
330
17
100
AcDbEntity
  8
E_ARMADO
100
AcDbCircle
 10
6.5
 20
17.5
 30
0.0
 40
0.19
  0
CIRCLE
  5
467
330
17
100
AcDbEntity
  8
E_ARMADO_FINO
100
AcDbCircle
 10
6.5
 20
17.5
 30
0.0
 40
0.25
  0
LWPOLYLINE
  5
468
330
17
100
AcDbEntity
  8
E_ARMADO_FINO
100
AcDbPolyline
 90
4
 70
1
 10
6.0
 20
17.0
 10
7.0
 20
17.0
 10
7.0
 20
18.0
 10
6.0
 20
18.0
  0
CIRCLE
  5
469
330
17
100
AcDbEntity
  8
E_ARMADO
100
AcDbCircle
 10
6.5
 20
22.5
 30
0.0
 40
0.19
  0
CIRCLE
  5
46A
330
17
100
AcDbEntity
  8
E_ARMADO_FINO
100
AcDbCircle
 10
6.5
 20
22.5
 30
0.0
 40
0.25
  0
LWPOLYLINE
  5
46B
330
17
100
AcDbEntity
  8
E_ARMADO_FINO
100
AcDbPolyline
 90
4
 70
1
 10
6.0
 20
22.0
 10
7.0
 20
22.0
 10
7.0
 20
23.0
 10
6.0
 20
23.0
  0
CIRCLE
  5
46C
330
17
100
AcDbEntity
  8
E_ARMADO
100
AcDbCircle
 10
11.5
 20
17.5
 30
0.0
 40
0.19
  0
CIRCLE
  5
46D
330
17
100
AcDbEntity
  8
E_ARMADO_FINO
100
AcDbCircle
 10
11.5
 20
17.5
 30
0.0
 40
0.25
  0
LWPOLYLINE
  5
46E
330
17
100
AcDbEntity
  8
E_ARMADO_FINO
100
AcDbPolyline
 90
4
 70
1
 10
11.0
 20
17.0
 10
12.0
 20
17.0
 10
12.0
 20
18.0
 10
11.0
 20
18.0
  0
CIRCLE
  5
46F
330
17
100
AcDbEntity
  8
E_ARMADO
100
AcDbCircle
 10
11.5
 20
22.5
 30
0.0
 40
0.19
  0
CIRCLE
  5
470
330
17
100
AcDbEntity
  8
E_ARMADO_FINO
100
AcDbCircle
 10
11.5
 20
22.5
 30
0.0
 40
0.25
  0
LWPOLYLINE
  5
471
330
17
100
AcDbEntity
  8
E_ARMADO_FINO
100
AcDbPolyline
 90
4
 70
1
 10
11.0
 20
22.0
 10
12.0
 20
22.0
 10
12.0
 20
23.0
 10
11.0
 20
23.0
  0
LINE
  5
472
330
17
100
AcDbEntity
  8
E_EJES
  6
CENTER
100
AcDbLine
 10
4.3999999999999995
 20
20.0
 30
0.0
 11
13.600000000000001
 21
20.0
 31
0.0
  0
LINE
  5
473
330
17
100
AcDbEntity
  8
E_EJES
  6
CENTER
100
AcDbLine
 10
9.0
 20
15.399999999999999
 30
0.0
 11
9.0
 21
24.6
 31
0.0
  0
LINE
  5
474
330
17
100
AcDbEntity
  8
E_CORTE
100
AcDbLine
 10
4.1
 20
19.64
 30
0.0
 11
4.1
 21
20.36
 31
0.0
  0
LINE
  5
475
330
17
100
AcDbEntity
  8
E_CORTE
100
AcDbLine
 10
13.9
 20
19.64
 30
0.0
 11
13.9
 21
20.36
 31
0.0
  0
TEXT
  5
476
330
17
100
AcDbEntity
  8
E_TEXTO
100
AcDbText
 10
3.3999999999999995
 20
20.0
 30
0.0
 40
0.22
  1
A
  7
KUBIEC
 72
1
 11
3.3999999999999995
 21
20.0
 31
0.0
100
AcDbText
 73
2
  0
TEXT
  5
477
330
17
100
AcDbEntity
  8
E_TEXTO
100
AcDbText
 10
14.600000000000001
 20
20.0
 30
0.0
 40
0.22
  1
A
  7
KUBIEC
 72
1
 11
14.600000000000001
 21
20.0
 31
0.0
100
AcDbText
 73
2
  0
LINE
  5
478
330
17
100
AcDbEntity
  8
E_COTAS
100
AcDbLine
 10
5.2
 20
16.2
 30
0.0
 11
5.2
 21
15.18
 31
0.0
  0
LINE
  5
479
330
17
100
AcDbEntity
  8
E_COTAS
100
AcDbLine
 10
12.8
 20
16.2
 30
0.0
 11
12.8
 21
15.18
 31
0.0
  0
LINE
  5
47A
330
17
100
AcDbEntity
  8
E_COTAS
100
AcDbLine
 10
5.2
 20
15.3
 30
0.0
 11
12.8
 21
15.3
 31
0.0
  0
LINE
  5
47B
330
17
100
AcDbEntity
  8
E_COTAS
100
AcDbLine
 10
5.11
 20
15.21
 30
0.0
 11
5.29
 21
15.39
 31
0.0
  0
LINE
  5
47C
330
17
100
AcDbEntity
  8
E_COTAS
100
AcDbLine
 10
12.71
 20
15.21
 30
0.0
 11
12.89
 21
15.39
 31
0.0
  0
TEXT
  5
47D
330
17
100
AcDbEntity
  8
E_COTAS
100
AcDbText
 10
9.0
 20
15.350000000000001
 30
0.0
 40
0.17
  1
380
  7
KUBIEC
 72
1
 11
9.0
 21
15.350000000000001
 31
0.0
100
AcDbText
 73
1
  0
LINE
  5
47E
330
17
100
AcDbEntity
  8
E_COTAS
100
AcDbLine
 10
6.5
 20
16.2
 30
0.0
 11
6.5
 21
15.68
 31
0.0
  0
LINE
  5
47F
330
17
100
AcDbEntity
  8
E_COTAS
100
AcDbLine
 10
11.5
 20
16.2
 30
0.0
 11
11.5
 21
15.68
 31
0.0
  0
LINE
  5
480
330
17
100
AcDbEntity
  8
E_COTAS
100
AcDbLine
 10
6.5
 20
15.8
 30
0.0
 11
11.5
 21
15.8
 31
0.0
  0
LINE
  5
481
330
17
100
AcDbEntity
  8
E_COTAS
100
AcDbLine
 10
6.41
 20
15.71
 30
0.0
 11
6.59
 21
15.89
 31
0.0
  0
LINE
  5
482
330
17
100
AcDbEntity
  8
E_COTAS
100
AcDbLine
 10
11.41
 20
15.71
 30
0.0
 11
11.59
 21
15.89
 31
0.0
  0
TEXT
  5
483
330
17
100
AcDbEntity
  8
E_COTAS
100
AcDbText
 10
9.0
 20
15.850000000000001
 30
0.0
 40
0.17
  1
250
  7
KUBIEC
 72
1
 11
9.0
 21
15.850000000000001
 31
0.0
100
AcDbText
 73
1
  0
LINE
  5
484
330
17
100
AcDbEntity
  8
E_COTAS
100
AcDbLine
 10
5.2
 20
16.2
 30
0.0
 11
5.2
 21
15.68
 31
0.0
  0
LINE
  5
485
330
17
100
AcDbEntity
  8
E_COTAS
100
AcDbLine
 10
6.5
 20
16.2
 30
0.0
 11
6.5
 21
15.68
 31
0.0
  0
LINE
  5
486
330
17
100
AcDbEntity
  8
E_COTAS
100
AcDbLine
 10
5.2
 20
15.8
 30
0.0
 11
6.5
 21
15.8
 31
0.0
  0
LINE
  5
487
330
17
100
AcDbEntity
  8
E_COTAS
100
AcDbLine
 10
5.11
 20
15.71
 30
0.0
 11
5.29
 21
15.89
 31
0.0
  0
LINE
  5
488
330
17
100
AcDbEntity
  8
E_COTAS
100
AcDbLine
 10
6.41
 20
15.71
 30
0.0
 11
6.59
 21
15.89
 31
0.0
  0
TEXT
  5
489
330
17
100
AcDbEntity
  8
E_COTAS
100
AcDbText
 10
5.85
 20
15.850000000000001
 30
0.0
 40
0.17
  1
65
  7
KUBIEC
 72
1
 11
5.85
 21
15.850000000000001
 31
0.0
100
AcDbText
 73
1
  0
LINE
  5
48A
330
17
100
AcDbEntity
  8
E_COTAS
100
AcDbLine
 10
11.5
 20
16.2
 30
0.0
 11
11.5
 21
15.68
 31
0.0
  0
LINE
  5
48B
330
17
100
AcDbEntity
  8
E_COTAS
100
AcDbLine
 10
12.8
 20
16.2
 30
0.0
 11
12.8
 21
15.68
 31
0.0
  0
LINE
  5
48C
330
17
100
AcDbEntity
  8
E_COTAS
100
AcDbLine
 10
11.5
 20
15.8
 30
0.0
 11
12.8
 21
15.8
 31
0.0
  0
LINE
  5
48D
330
17
100
AcDbEntity
  8
E_COTAS
100
AcDbLine
 10
11.41
 20
15.71
 30
0.0
 11
11.59
 21
15.89
 31
0.0
  0
LINE
  5
48E
330
17
100
AcDbEntity
  8
E_COTAS
100
AcDbLine
 10
12.71
 20
15.71
 30
0.0
 11
12.89
 21
15.89
 31
0.0
  0
TEXT
  5
48F
330
17
100
AcDbEntity
  8
E_COTAS
100
AcDbText
 10
12.15
 20
15.850000000000001
 30
0.0
 40
0.17
  1
65
  7
KUBIEC
 72
1
 11
12.15
 21
15.850000000000001
 31
0.0
100
AcDbText
 73
1
  0
LINE
  5
490
330
17
100
AcDbEntity
  8
E_COTAS
100
AcDbLine
 10
12.8
 20
16.2
 30
0.0
 11
14.02
 21
16.2
 31
0.0
  0
LINE
  5
491
330
17
100
AcDbEntity
  8
E_COTAS
100
AcDbLine
 10
12.8
 20
23.8
 30
0.0
 11
14.02
 21
23.8
 31
0.0
  0
LINE
  5
492
330
17
100
AcDbEntity
  8
E_COTAS
100
AcDbLine
 10
13.9
 20
16.2
 30
0.0
 11
13.9
 21
23.8
 31
0.0
  0
LINE
  5
493
330
17
100
AcDbEntity
  8
E_COTAS
100
AcDbLine
 10
13.81
 20
16.11
 30
0.0
 11
13.99
 21
16.29
 31
0.0
  0
LINE
  5
494
330
17
100
AcDbEntity
  8
E_COTAS
100
AcDbLine
 10
13.81
 20
23.71
 30
0.0
 11
13.99
 21
23.89
 31
0.0
  0
TEXT
  5
495
330
17
100
AcDbEntity
  8
E_COTAS
100
AcDbText
 10
13.85
 20
20.0
 30
0.0
 40
0.17
  1
380
 50
90.0
  7
KUBIEC
 72
1
 11
13.85
 21
20.0
 31
0.0
100
AcDbText
 73
1
  0
LINE
  5
496
330
17
100
AcDbEntity
  8
E_COTAS
100
AcDbLine
 10
12.8
 20
17.5
 30
0.0
 11
13.42
 21
17.5
 31
0.0
  0
LINE
  5
497
330
17
100
AcDbEntity
  8
E_COTAS
100
AcDbLine
 10
12.8
 20
22.5
 30
0.0
 11
13.42
 21
22.5
 31
0.0
  0
LINE
  5
498
330
17
100
AcDbEntity
  8
E_COTAS
100
AcDbLine
 10
13.3
 20
17.5
 30
0.0
 11
13.3
 21
22.5
 31
0.0
  0
LINE
  5
499
330
17
100
AcDbEntity
  8
E_COTAS
100
AcDbLine
 10
13.21
 20
17.41
 30
0.0
 11
13.39
 21
17.59
 31
0.0
  0
LINE
  5
49A
330
17
100
AcDbEntity
  8
E_COTAS
100
AcDbLine
 10
13.21
 20
22.41
 30
0.0
 11
13.39
 21
22.59
 31
0.0
  0
TEXT
  5
49B
330
17
100
AcDbEntity
  8
E_COTAS
100
AcDbText
 10
13.25
 20
20.0
 30
0.0
 40
0.17
  1
250
 50
90.0
  7
KUBIEC
 72
1
 11
13.25
 21
20.0
 31
0.0
100
AcDbText
 73
1
  0
LINE
  5
49C
330
17
100
AcDbEntity
  8
E_COTAS
100
AcDbLine
 10
6.5
 20
23.8
 30
0.0
 11
6.5
 21
24.42
 31
0.0
  0
LINE
  5
49D
330
17
100
AcDbEntity
  8
E_COTAS
100
AcDbLine
 10
11.5
 20
23.8
 30
0.0
 11
11.5
 21
24.42
 31
0.0
  0
LINE
  5
49E
330
17
100
AcDbEntity
  8
E_COTAS
100
AcDbLine
 10
6.5
 20
24.3
 30
0.0
 11
11.5
 21
24.3
 31
0.0
  0
LINE
  5
49F
330
17
100
AcDbEntity
  8
E_COTAS
100
AcDbLine
 10
6.41
 20
24.21
 30
0.0
 11
6.59
 21
24.39
 31
0.0
  0
LINE
  5
4A0
330
17
100
AcDbEntity
  8
E_COTAS
100
AcDbLine
 10
11.41
 20
24.21
 30
0.0
 11
11.59
 21
24.39
 31
0.0
  0
TEXT
  5
4A1
330
17
100
AcDbEntity
  8
E_COTAS
100
AcDbText
 10
9.0
 20
24.35
 30
0.0
 40
0.17
  1
250
  7
KUBIEC
 72
1
 11
9.0
 21
24.35
 31
0.0
100
AcDbText
 73
1
  0
LINE
  5
4A2
330
17
100
AcDbEntity
  8
E_COTAS
100
AcDbLine
 10
5.2
 20
18.0
 30
0.0
 11
4.58
 21
18.0
 31
0.0
  0
LINE
  5
4A3
330
17
100
AcDbEntity
  8
E_COTAS
100
AcDbLine
 10
5.2
 20
22.0
 30
0.0
 11
4.58
 21
22.0
 31
0.0
  0
LINE
  5
4A4
330
17
100
AcDbEntity
  8
E_COTAS
100
AcDbLine
 10
4.7
 20
18.0
 30
0.0
 11
4.7
 21
22.0
 31
0.0
  0
LINE
  5
4A5
330
17
100
AcDbEntity
  8
E_COTAS
100
AcDbLine
 10
4.61
 20
17.91
 30
0.0
 11
4.79
 21
18.09
 31
0.0
  0
LINE
  5
4A6
330
17
100
AcDbEntity
  8
E_COTAS
100
AcDbLine
 10
4.61
 20
21.91
 30
0.0
 11
4.79
 21
22.09
 31
0.0
  0
TEXT
  5
4A7
330
17
100
AcDbEntity
  8
E_COTAS
100
AcDbText
 10
4.65
 20
20.0
 30
0.0
 40
0.17
  1
200
 50
90.0
  7
KUBIEC
 72
1
 11
4.65
 21
20.0
 31
0.0
100
AcDbText
 73
1
  0
LINE
  5
4A8
330
17
100
AcDbEntity
  8
E_COTAS
100
AcDbLine
 10
4.0
 20
25.4
 30
0.0
 11
5.36
 21
23.64
 31
0.0
  0
CIRCLE
  5
4A9
330
17
100
AcDbEntity
  8
E_COTAS
100
AcDbCircle
 10
5.36
 20
23.64
 30
0.0
 40
0.04
  0
TEXT
  5
4AA
330
17
100
AcDbEntity
  8
E_TEXTO
100
AcDbText
 10
4.0
 20
25.4
 30
0.0
 40
0.16
  1
PL 380x380 (A36), t segun cuadro
  7
KUBIEC
 11
4.0
 21
25.4
 31
0.0
100
AcDbText
  0
LINE
  5
4AB
330
17
100
AcDbEntity
  8
E_COTAS
100
AcDbLine
 10
13.600000000000001
 20
25.5
 30
0.0
 11
11.5
 21
22.5
 31
0.0
  0
CIRCLE
  5
4AC
330
17
100
AcDbEntity
  8
E_COTAS
100
AcDbCircle
 10
11.5
 20
22.5
 30
0.0
 40
0.04
  0
TEXT
  5
4AD
330
17
100
AcDbEntity
  8
E_TEXTO
100
AcDbText
 10
13.600000000000001
 20
25.5
 30
0.0
 40
0.16
  1
4 anclajes φ19 F1554 Gr.36
  7
KUBIEC
 11
13.600000000000001
 21
25.5
 31
0.0
100
AcDbText
  0
LINE
  5
4AE
330
17
100
AcDbEntity
  8
E_COTAS
100
AcDbLine
 10
11.4
 20
13.6
 30
0.0
 11
9.7
 21
19.3
 31
0.0
  0
CIRCLE
  5
4AF
330
17
100
AcDbEntity
  8
E_COTAS
100
AcDbCircle
 10
9.7
 20
19.3
 30
0.0
 40
0.04
  0
TEXT
  5
4B0
330
17
100
AcDbEntity
  8
E_TEXTO
100
AcDbText
 10
11.4
 20
13.6
 30
0.0
 40
0.16
  1
taco de corte []100x100x6 (oculto)
  7
KUBIEC
 11
11.4
 21
13.6
 31
0.0
100
AcDbText
  0
TEXT
  5
4B1
330
17
100
AcDbEntity
  8
E_TEXTO
100
AcDbText
 10
9.0
 20
14.399999999999999
 30
0.0
 40
0.2
  1
PLANTA  ESC 1:5
  7
KUBIEC
 72
1
 11
9.0
 21
14.399999999999999
 31
0.0
100
AcDbText
 73
2
  0
LWPOLYLINE
  5
4B2
330
17
100
AcDbEntity
  8
E_PEDESTALES
100
AcDbPolyline
 90
4
 70
1
 10
21.0
 20
6.0
 10
29.0
 20
6.0
 10
29.0
 20
15.0
 10
21.0
 20
15.0
  0
HATCH
  5
4B3
330
17
100
AcDbEntity
  8
E_HATCH
 62
7
100
AcDbHatch
 10
0.0
 20
0.0
 30
0.0
210
0.0
220
0.0
230
1.0
  2
AR-CONC
 70
0
 71
0
 91
1
 92
3
 72
0
 73
1
 93
4
 10
21.0
 20
6.0
 10
29.0
 20
6.0
 10
29.0
 20
15.0
 10
21.0
 20
15.0
 97
0
 75
1
 76
1
 52
0.0
 41
0.045
 77
0
 78
13
 53
50.0
 43
0.0
 44
0.0
 45
8.1983101048
 46
-0.7172588493
 79
2
 49
0.85725
 49
-9.42975
 53
355.0
 43
0.0
 44
0.0
 45
-1.5859539641
 46
8.5975580358
 79
2
 49
0.6858
 49
-7.5438262876
 53
100.4514447
 43
0.683190315
 44
-0.0597714075
 45
6.6123561191
 46
7.880298836
 79
2
 49
0.728550396
 49
-8.014061007
 53
46.1842
 43
0.0
 44
2.286
 45
12.1985568401
 46
-1.891904757
 79
2
 49
1.285875
 49
-14.144625
 53
96.63555761
 43
1.0165455
 44
2.1283425
 45
10.6831860323
 46
11.1341756069
 79
2
 49
1.0928260413
 49
-12.0211023672
 53
351.18415117
 43
0.0
 44
2.286
 45
10.6831860329
 46
11.1341756063
 79
2
 49
1.0286985181
 49
-11.3156879364
 53
21.0
 43
1.143
 44
1.7145
 45
6.8226476071
 46
-4.6019339184
 79
2
 49
0.85725
 49
-9.42975
 53
326.0
 43
1.143
 44
1.7145
 45
2.7810912756
 46
8.2884584755
 79
2
 49
0.6858
 49
-7.5438
 53
71.451445
 43
1.711553967
 44
1.3310055045
 45
9.6037388675
 46
3.6865245999
 79
2
 49
0.728550396
 49
-8.014047192
 53
37.5
 43
0.0
 44
0.0
 45
0.1389871463
 46
3.8049767493
 79
6
 49
0.0
 49
-7.45236
 49
0.0
 49
-7.6581
 49
0.0
 49
-7.572375
 53
7.5
 43
0.0
 44
0.0
 45
3.006884813
 46
4.5081258668
 79
6
 49
0.0
 49
-4.36626
 49
0.0
 49
-7.28091
 49
0.0
 49
-2.886075
 53
-32.5
 43
-2.54889
 44
0.0
 45
6.1015767825
 46
-0.2577934797
 79
6
 49
0.0
 49
-2.8575
 49
0.0
 49
-8.9154
 49
0.0
 49
-11.83005
 53
-42.5
 43
-3.69189
 44
0.0
 45
6.6658131624
 46
1.1441920965
 79
6
 49
0.0
 49
-3.71475
 49
0.0
 49
-5.92074
 49
0.0
 49
-8.40105
 98
0
  0
LINE
  5
4B4
330
17
100
AcDbEntity
  8
E_ARMADO
100
AcDbLine
 10
21.7
 20
6.1
 30
0.0
 11
21.7
 21
14.84
 31
0.0
  0
LINE
  5
4B5
330
17
100
AcDbEntity
  8
E_ARMADO_FINO
  6
DASHED
100
AcDbLine
 10
22.2
 20
6.1
 30
0.0
 11
22.2
 21
14.84
 31
0.0
  0
LINE
  5
4B6
330
17
100
AcDbEntity
  8
E_ARMADO
100
AcDbLine
 10
28.3
 20
6.1
 30
0.0
 11
28.3
 21
14.84
 31
0.0
  0
LINE
  5
4B7
330
17
100
AcDbEntity
  8
E_ARMADO_FINO
  6
DASHED
100
AcDbLine
 10
27.8
 20
6.1
 30
0.0
 11
27.8
 21
14.84
 31
0.0
  0
LINE
  5
4B8
330
17
100
AcDbEntity
  8
E_ARMADO_FINO
100
AcDbLine
 10
21.6
 20
14.4
 30
0.0
 11
28.4
 21
14.4
 31
0.0
  0
LINE
  5
4B9
330
17
100
AcDbEntity
  8
E_ARMADO_FINO
100
AcDbLine
 10
21.6
 20
13.4
 30
0.0
 11
28.4
 21
13.4
 31
0.0
  0
LINE
  5
4BA
330
17
100
AcDbEntity
  8
E_ARMADO_FINO
100
AcDbLine
 10
21.6
 20
12.4
 30
0.0
 11
28.4
 21
12.4
 31
0.0
  0
LINE
  5
4BB
330
17
100
AcDbEntity
  8
E_ARMADO_FINO
100
AcDbLine
 10
21.6
 20
11.4
 30
0.0
 11
28.4
 21
11.4
 31
0.0
  0
LINE
  5
4BC
330
17
100
AcDbEntity
  8
E_ARMADO_FINO
100
AcDbLine
 10
21.6
 20
9.0
 30
0.0
 11
28.4
 21
9.0
 31
0.0
  0
LINE
  5
4BD
330
17
100
AcDbEntity
  8
E_ARMADO_FINO
100
AcDbLine
 10
21.6
 20
6.6
 30
0.0
 11
28.4
 21
6.6
 31
0.0
  0
LWPOLYLINE
  5
4BE
330
17
100
AcDbEntity
  8
E_ARMADO_FINO
100
AcDbPolyline
 90
4
 70
1
 10
21.2
 20
15.0
 10
28.8
 20
15.0
 10
28.8
 20
15.8
 10
21.2
 20
15.8
  0
LWPOLYLINE
  5
4BF
330
17
100
AcDbEntity
  8
E_COLUMNAS
100
AcDbPolyline
 90
4
 70
1
 10
21.2
 20
15.8
 10
28.8
 20
15.8
 10
28.8
 20
16.3
 10
21.2
 20
16.3
  0
HATCH
  5
4C0
330
17
100
AcDbEntity
  8
E_HATCH
 62
7
100
AcDbHatch
 10
0.0
 20
0.0
 30
0.0
210
0.0
220
0.0
230
1.0
  2
ANSI31
 70
0
 71
0
 91
1
 92
3
 72
0
 73
1
 93
4
 10
21.2
 20
15.8
 10
28.8
 20
15.8
 10
28.8
 20
16.3
 10
21.2
 20
16.3
 97
0
 75
1
 76
1
 52
0.0
 41
0.06
 77
0
 78
1
 53
45.0
 43
0.0
 44
0.0
 45
-0.1347038418
 46
0.1347038418
 79
0
 98
0
  0
LINE
  5
4C1
330
17
100
AcDbEntity
  8
E_COLUMNAS
100
AcDbLine
 10
22.5
 20
16.3
 30
0.0
 11
22.5
 21
21.5
 31
0.0
  0
LINE
  5
4C2
330
17
100
AcDbEntity
  8
E_COLUMNAS
100
AcDbLine
 10
27.5
 20
16.3
 30
0.0
 11
27.5
 21
21.5
 31
0.0
  0
LINE
  5
4C3
330
17
100
AcDbEntity
  8
E_ARMADO_FINO
100
AcDbLine
 10
22.66
 20
16.3
 30
0.0
 11
22.66
 21
21.5
 31
0.0
  0
LINE
  5
4C4
330
17
100
AcDbEntity
  8
E_ARMADO_FINO
100
AcDbLine
 10
27.34
 20
16.3
 30
0.0
 11
27.34
 21
21.5
 31
0.0
  0
HATCH
  5
4C5
330
17
100
AcDbEntity
  8
E_HATCH
 62
7
100
AcDbHatch
 10
0.0
 20
0.0
 30
0.0
210
0.0
220
0.0
230
1.0
  2
ANSI31
 70
0
 71
0
 91
1
 92
3
 72
0
 73
1
 93
4
 10
22.5
 20
16.3
 10
22.66
 20
16.3
 10
22.66
 20
21.5
 10
22.5
 20
21.5
 97
0
 75
1
 76
1
 52
0.0
 41
0.05
 77
0
 78
1
 53
45.0
 43
0.0
 44
0.0
 45
-0.1122532015
 46
0.1122532015
 79
0
 98
0
  0
HATCH
  5
4C6
330
17
100
AcDbEntity
  8
E_HATCH
 62
7
100
AcDbHatch
 10
0.0
 20
0.0
 30
0.0
210
0.0
220
0.0
230
1.0
  2
ANSI31
 70
0
 71
0
 91
1
 92
3
 72
0
 73
1
 93
4
 10
27.34
 20
16.3
 10
27.5
 20
16.3
 10
27.5
 20
21.5
 10
27.34
 20
21.5
 97
0
 75
1
 76
1
 52
0.0
 41
0.05
 77
0
 78
1
 53
45.0
 43
0.0
 44
0.0
 45
-0.1122532015
 46
0.1122532015
 79
0
 98
0
  0
HATCH
  5
4C7
330
17
100
AcDbEntity
  8
E_HATCH
 62
7
100
AcDbHatch
 10
0.0
 20
0.0
 30
0.0
210
0.0
220
0.0
230
1.0
  2
AR-SAND
 70
0
 71
0
 91
1
 92
3
 72
0
 73
1
 93
4
 10
22.66
 20
16.3
 10
27.34
 20
16.3
 10
27.34
 20
21.5
 10
22.66
 20
21.5
 97
0
 75
1
 76
1
 52
0.0
 41
0.045
 77
0
 78
4
 53
37.5
 43
0.0
 44
0.0
 45
-0.0720014083
 46
2.202359568
 79
6
 49
0.0
 49
-1.73736
 49
0.0
 49
-1.9431
 49
0.0
 49
-1.857375
 53
7.5
 43
0.0
 44
0.0
 45
2.0228547741
 46
3.2257129526
 79
6
 49
0.0
 49
-0.93726
 49
0.0
 49
-1.56591
 49
0.0
 49
-0.600075
 53
-32.5
 43
-1.40589
 44
0.0
 45
3.5594656661
 46
0.0064673311
 79
6
 49
0.0
 49
-0.5715
 49
0.0
 49
-2.0574
 49
0.0
 49
-2.68605
 53
-42.5
 43
-1.40589
 44
0.0
 45
3.4360040361
 46
1.0031819547
 79
6
 49
0.0
 49
-0.28575
 49
0.0
 49
-1.34874
 49
0.0
 49
-1.54305
 98
0
  0
LWPOLYLINE
  5
4C8
330
17
100
AcDbEntity
  8
E_CORTE
100
AcDbPolyline
 90
6
 70
0
 10
22.2
 20
21.5
 10
23.32
 20
21.740000000000002
 10
24.44
 20
21.259999999999998
 10
25.56
 20
21.740000000000002
 10
26.68
 20
21.259999999999998
 10
27.8
 20
21.5
  0
HATCH
  5
4C9
330
17
100
AcDbEntity
  8
E_HATCH
 62
7
100
AcDbHatch
 10
0.0
 20
0.0
 30
0.0
210
0.0
220
0.0
230
1.0
  2
SOLID
 70
1
 71
0
 91
1
 92
3
 72
0
 73
1
 93
3
 10
22.5
 20
16.3
 10
22.38
 20
16.3
 10
22.5
 20
16.42
 97
0
 75
1
 76
1
 98
0
  0
HATCH
  5
4CA
330
17
100
AcDbEntity
  8
E_HATCH
 62
7
100
AcDbHatch
 10
0.0
 20
0.0
 30
0.0
210
0.0
220
0.0
230
1.0
  2
SOLID
 70
1
 71
0
 91
1
 92
3
 72
0
 73
1
 93
3
 10
27.5
 20
16.3
 10
27.62
 20
16.3
 10
27.5
 20
16.42
 97
0
 75
1
 76
1
 98
0
  0
LWPOLYLINE
  5
4CB
330
17
100
AcDbEntity
  8
E_COLUMNAS
100
AcDbPolyline
 90
4
 70
1
 10
24.0
 20
14.3
 10
26.0
 20
14.3
 10
26.0
 20
15.8
 10
24.0
 20
15.8
  0
LWPOLYLINE
  5
4CC
330
17
100
AcDbEntity
  8
E_ARMADO_FINO
  6
DASHED
100
AcDbPolyline
 90
4
 70
1
 10
23.5
 20
14.1
 10
26.5
 20
14.1
 10
26.5
 20
15.0
 10
23.5
 20
15.0
  0
LWPOLYLINE
  5
4CD
330
17
100
AcDbEntity
  8
E_ARMADO
100
AcDbPolyline
 90
4
 70
1
 10
22.31
 20
7.0
 10
22.69
 20
7.0
 10
22.69
 20
16.9
 10
22.31
 20
16.9
  0
LWPOLYLINE
  5
4CE
330
17
100
AcDbEntity
  8
E_ARMADO_FINO
100
AcDbPolyline
 90
4
 70
1
 10
22.0
 20
16.3
 10
23.0
 20
16.3
 10
23.0
 20
16.46
 10
22.0
 20
16.46
  0
LWPOLYLINE
  5
4CF
330
17
100
AcDbEntity
  8
E_ARMADO
100
AcDbPolyline
 90
4
 70
1
 10
22.2
 20
16.46
 10
22.8
 20
16.46
 10
22.8
 20
16.759999999999998
 10
22.2
 20
16.759999999999998
  0
LWPOLYLINE
  5
4D0
330
17
100
AcDbEntity
  8
E_ARMADO_FINO
100
AcDbPolyline
 90
4
 70
1
 10
22.2
 20
15.34
 10
22.8
 20
15.34
 10
22.8
 20
15.64
 10
22.2
 20
15.64
  0
LWPOLYLINE
  5
4D1
330
17
100
AcDbEntity
  8
E_ARMADO_FINO
100
AcDbPolyline
 90
4
 70
1
 10
22.0
 20
15.64
 10
23.0
 20
15.64
 10
23.0
 20
15.8
 10
22.0
 20
15.8
  0
LWPOLYLINE
  5
4D2
330
17
100
AcDbEntity
  8
E_ARMADO
100
AcDbPolyline
 90
4
 70
1
 10
22.0
 20
6.84
 10
23.0
 20
6.84
 10
23.0
 20
7.0
 10
22.0
 20
7.0
  0
LWPOLYLINE
  5
4D3
330
17
100
AcDbEntity
  8
E_ARMADO_FINO
100
AcDbPolyline
 90
4
 70
1
 10
22.2
 20
7.0
 10
22.8
 20
7.0
 10
22.8
 20
7.3
 10
22.2
 20
7.3
  0
LWPOLYLINE
  5
4D4
330
17
100
AcDbEntity
  8
E_ARMADO
100
AcDbPolyline
 90
4
 70
1
 10
27.31
 20
7.0
 10
27.69
 20
7.0
 10
27.69
 20
16.9
 10
27.31
 20
16.9
  0
LWPOLYLINE
  5
4D5
330
17
100
AcDbEntity
  8
E_ARMADO_FINO
100
AcDbPolyline
 90
4
 70
1
 10
27.0
 20
16.3
 10
28.0
 20
16.3
 10
28.0
 20
16.46
 10
27.0
 20
16.46
  0
LWPOLYLINE
  5
4D6
330
17
100
AcDbEntity
  8
E_ARMADO
100
AcDbPolyline
 90
4
 70
1
 10
27.2
 20
16.46
 10
27.8
 20
16.46
 10
27.8
 20
16.759999999999998
 10
27.2
 20
16.759999999999998
  0
LWPOLYLINE
  5
4D7
330
17
100
AcDbEntity
  8
E_ARMADO_FINO
100
AcDbPolyline
 90
4
 70
1
 10
27.2
 20
15.34
 10
27.8
 20
15.34
 10
27.8
 20
15.64
 10
27.2
 20
15.64
  0
LWPOLYLINE
  5
4D8
330
17
100
AcDbEntity
  8
E_ARMADO_FINO
100
AcDbPolyline
 90
4
 70
1
 10
27.0
 20
15.64
 10
28.0
 20
15.64
 10
28.0
 20
15.8
 10
27.0
 20
15.8
  0
LWPOLYLINE
  5
4D9
330
17
100
AcDbEntity
  8
E_ARMADO
100
AcDbPolyline
 90
4
 70
1
 10
27.0
 20
6.84
 10
28.0
 20
6.84
 10
28.0
 20
7.0
 10
27.0
 20
7.0
  0
LWPOLYLINE
  5
4DA
330
17
100
AcDbEntity
  8
E_ARMADO_FINO
100
AcDbPolyline
 90
4
 70
1
 10
27.2
 20
7.0
 10
27.8
 20
7.0
 10
27.8
 20
7.3
 10
27.2
 20
7.3
  0
LINE
  5
4DB
330
17
100
AcDbEntity
  8
E_COTAS
100
AcDbLine
 10
29.0
 20
15.0
 30
0.0
 11
30.32
 21
15.0
 31
0.0
  0
LINE
  5
4DC
330
17
100
AcDbEntity
  8
E_COTAS
100
AcDbLine
 10
29.0
 20
15.8
 30
0.0
 11
30.32
 21
15.8
 31
0.0
  0
LINE
  5
4DD
330
17
100
AcDbEntity
  8
E_COTAS
100
AcDbLine
 10
30.2
 20
15.0
 30
0.0
 11
30.2
 21
15.8
 31
0.0
  0
LINE
  5
4DE
330
17
100
AcDbEntity
  8
E_COTAS
100
AcDbLine
 10
30.11
 20
14.91
 30
0.0
 11
30.29
 21
15.09
 31
0.0
  0
LINE
  5
4DF
330
17
100
AcDbEntity
  8
E_COTAS
100
AcDbLine
 10
30.11
 20
15.71
 30
0.0
 11
30.29
 21
15.89
 31
0.0
  0
TEXT
  5
4E0
330
17
100
AcDbEntity
  8
E_COTAS
100
AcDbText
 10
30.15
 20
15.4
 30
0.0
 40
0.17
  1
40
 50
90.0
  7
KUBIEC
 72
1
 11
30.15
 21
15.4
 31
0.0
100
AcDbText
 73
1
  0
LINE
  5
4E1
330
17
100
AcDbEntity
  8
E_COTAS
100
AcDbLine
 10
29.0
 20
15.8
 30
0.0
 11
30.32
 21
15.8
 31
0.0
  0
LINE
  5
4E2
330
17
100
AcDbEntity
  8
E_COTAS
100
AcDbLine
 10
29.0
 20
16.3
 30
0.0
 11
30.32
 21
16.3
 31
0.0
  0
LINE
  5
4E3
330
17
100
AcDbEntity
  8
E_COTAS
100
AcDbLine
 10
30.2
 20
15.8
 30
0.0
 11
30.2
 21
16.3
 31
0.0
  0
LINE
  5
4E4
330
17
100
AcDbEntity
  8
E_COTAS
100
AcDbLine
 10
30.11
 20
15.71
 30
0.0
 11
30.29
 21
15.89
 31
0.0
  0
LINE
  5
4E5
330
17
100
AcDbEntity
  8
E_COTAS
100
AcDbLine
 10
30.11
 20
16.21
 30
0.0
 11
30.29
 21
16.39
 31
0.0
  0
TEXT
  5
4E6
330
17
100
AcDbEntity
  8
E_COTAS
100
AcDbText
 10
30.15
 20
16.05
 30
0.0
 40
0.17
  1
25
 50
90.0
  7
KUBIEC
 72
1
 11
30.15
 21
16.05
 31
0.0
100
AcDbText
 73
1
  0
LINE
  5
4E7
330
17
100
AcDbEntity
  8
E_COTAS
100
AcDbLine
 10
29.0
 20
7.0
 30
0.0
 11
30.32
 21
7.0
 31
0.0
  0
LINE
  5
4E8
330
17
100
AcDbEntity
  8
E_COTAS
100
AcDbLine
 10
29.0
 20
15.0
 30
0.0
 11
30.32
 21
15.0
 31
0.0
  0
LINE
  5
4E9
330
17
100
AcDbEntity
  8
E_COTAS
100
AcDbLine
 10
30.2
 20
7.0
 30
0.0
 11
30.2
 21
15.0
 31
0.0
  0
LINE
  5
4EA
330
17
100
AcDbEntity
  8
E_COTAS
100
AcDbLine
 10
30.11
 20
6.91
 30
0.0
 11
30.29
 21
7.09
 31
0.0
  0
LINE
  5
4EB
330
17
100
AcDbEntity
  8
E_COTAS
100
AcDbLine
 10
30.11
 20
14.91
 30
0.0
 11
30.29
 21
15.09
 31
0.0
  0
TEXT
  5
4EC
330
17
100
AcDbEntity
  8
E_COTAS
100
AcDbText
 10
30.15
 20
11.0
 30
0.0
 40
0.17
  1
hef 400
 50
90.0
  7
KUBIEC
 72
1
 11
30.15
 21
11.0
 31
0.0
100
AcDbText
 73
1
  0
LINE
  5
4ED
330
17
100
AcDbEntity
  8
E_COTAS
100
AcDbLine
 10
21.0
 20
14.3
 30
0.0
 11
19.68
 21
14.3
 31
0.0
  0
LINE
  5
4EE
330
17
100
AcDbEntity
  8
E_COTAS
100
AcDbLine
 10
21.0
 20
15.8
 30
0.0
 11
19.68
 21
15.8
 31
0.0
  0
LINE
  5
4EF
330
17
100
AcDbEntity
  8
E_COTAS
100
AcDbLine
 10
19.8
 20
14.3
 30
0.0
 11
19.8
 21
15.8
 31
0.0
  0
LINE
  5
4F0
330
17
100
AcDbEntity
  8
E_COTAS
100
AcDbLine
 10
19.71
 20
14.21
 30
0.0
 11
19.89
 21
14.39
 31
0.0
  0
LINE
  5
4F1
330
17
100
AcDbEntity
  8
E_COTAS
100
AcDbLine
 10
19.71
 20
15.71
 30
0.0
 11
19.89
 21
15.89
 31
0.0
  0
TEXT
  5
4F2
330
17
100
AcDbEntity
  8
E_COTAS
100
AcDbText
 10
19.75
 20
15.05
 30
0.0
 40
0.17
  1
75
 50
90.0
  7
KUBIEC
 72
1
 11
19.75
 21
15.05
 31
0.0
100
AcDbText
 73
1
  0
LINE
  5
4F3
330
17
100
AcDbEntity
  8
E_COTAS
100
AcDbLine
 10
21.0
 20
6.0
 30
0.0
 11
21.0
 21
5.08
 31
0.0
  0
LINE
  5
4F4
330
17
100
AcDbEntity
  8
E_COTAS
100
AcDbLine
 10
29.0
 20
6.0
 30
0.0
 11
29.0
 21
5.08
 31
0.0
  0
LINE
  5
4F5
330
17
100
AcDbEntity
  8
E_COTAS
100
AcDbLine
 10
21.0
 20
5.199999999999999
 30
0.0
 11
29.0
 21
5.199999999999999
 31
0.0
  0
LINE
  5
4F6
330
17
100
AcDbEntity
  8
E_COTAS
100
AcDbLine
 10
20.91
 20
5.109999999999999
 30
0.0
 11
21.09
 21
5.289999999999999
 31
0.0
  0
LINE
  5
4F7
330
17
100
AcDbEntity
  8
E_COTAS
100
AcDbLine
 10
28.91
 20
5.109999999999999
 30
0.0
 11
29.09
 21
5.289999999999999
 31
0.0
  0
TEXT
  5
4F8
330
17
100
AcDbEntity
  8
E_COTAS
100
AcDbText
 10
25.0
 20
5.249999999999999
 30
0.0
 40
0.17
  1
400
  7
KUBIEC
 72
1
 11
25.0
 21
5.249999999999999
 31
0.0
100
AcDbText
 73
1
  0
LINE
  5
4F9
330
17
100
AcDbEntity
  8
E_COTAS
100
AcDbLine
 10
22.5
 20
21.5
 30
0.0
 11
22.5
 21
22.42
 31
0.0
  0
LINE
  5
4FA
330
17
100
AcDbEntity
  8
E_COTAS
100
AcDbLine
 10
27.5
 20
21.5
 30
0.0
 11
27.5
 21
22.42
 31
0.0
  0
LINE
  5
4FB
330
17
100
AcDbEntity
  8
E_COTAS
100
AcDbLine
 10
22.5
 20
22.3
 30
0.0
 11
27.5
 21
22.3
 31
0.0
  0
LINE
  5
4FC
330
17
100
AcDbEntity
  8
E_COTAS
100
AcDbLine
 10
22.41
 20
22.21
 30
0.0
 11
22.59
 21
22.39
 31
0.0
  0
LINE
  5
4FD
330
17
100
AcDbEntity
  8
E_COTAS
100
AcDbLine
 10
27.41
 20
22.21
 30
0.0
 11
27.59
 21
22.39
 31
0.0
  0
TEXT
  5
4FE
330
17
100
AcDbEntity
  8
E_COTAS
100
AcDbText
 10
25.0
 20
22.35
 30
0.0
 40
0.17
  1
250
  7
KUBIEC
 72
1
 11
25.0
 21
22.35
 31
0.0
100
AcDbText
 73
1
  0
LINE
  5
4FF
330
17
100
AcDbEntity
  8
E_COTAS
100
AcDbLine
 10
22.5
 20
6.84
 30
0.0
 11
22.5
 21
5.02
 31
0.0
  0
LINE
  5
500
330
17
100
AcDbEntity
  8
E_COTAS
100
AcDbLine
 10
27.5
 20
6.84
 30
0.0
 11
27.5
 21
5.02
 31
0.0
  0
LINE
  5
501
330
17
100
AcDbEntity
  8
E_COTAS
100
AcDbLine
 10
22.5
 20
5.140000000000001
 30
0.0
 11
27.5
 21
5.140000000000001
 31
0.0
  0
LINE
  5
502
330
17
100
AcDbEntity
  8
E_COTAS
100
AcDbLine
 10
22.41
 20
5.050000000000001
 30
0.0
 11
22.59
 21
5.23
 31
0.0
  0
LINE
  5
503
330
17
100
AcDbEntity
  8
E_COTAS
100
AcDbLine
 10
27.41
 20
5.050000000000001
 30
0.0
 11
27.59
 21
5.23
 31
0.0
  0
TEXT
  5
504
330
17
100
AcDbEntity
  8
E_COTAS
100
AcDbText
 10
25.0
 20
5.19
 30
0.0
 40
0.17
  1
250
  7
KUBIEC
 72
1
 11
25.0
 21
5.19
 31
0.0
100
AcDbText
 73
1
  0
LINE
  5
505
330
17
100
AcDbEntity
  8
E_COTAS
100
AcDbLine
 10
16.6
 20
17.9
 30
0.0
 11
21.2
 21
16.05
 31
0.0
  0
CIRCLE
  5
506
330
17
100
AcDbEntity
  8
E_COTAS
100
AcDbCircle
 10
21.2
 20
16.05
 30
0.0
 40
0.04
  0
TEXT
  5
507
330
17
100
AcDbEntity
  8
E_TEXTO
100
AcDbText
 10
16.6
 20
17.9
 30
0.0
 40
0.16
  1
PL 380x380x25
  7
KUBIEC
 72
2
 11
16.6
 21
17.9
 31
0.0
100
AcDbText
  0
LINE
  5
508
330
17
100
AcDbEntity
  8
E_COTAS
100
AcDbLine
 10
18.4
 20
13.4
 30
0.0
 11
25.0
 21
15.0
 31
0.0
  0
CIRCLE
  5
509
330
17
100
AcDbEntity
  8
E_COTAS
100
AcDbCircle
 10
25.0
 20
15.0
 30
0.0
 40
0.04
  0
TEXT
  5
50A
330
17
100
AcDbEntity
  8
E_TEXTO
100
AcDbText
 10
18.4
 20
13.4
 30
0.0
 40
0.16
  1
taco []100x100x6 L=75
  7
KUBIEC
 72
2
 11
18.4
 21
13.4
 31
0.0
100
AcDbText
  0
LINE
  5
50B
330
17
100
AcDbEntity
  8
E_COTAS
100
AcDbLine
 10
12.2
 20
10.0
 30
0.0
 11
22.5
 21
10.0
 31
0.0
  0
CIRCLE
  5
50C
330
17
100
AcDbEntity
  8
E_COTAS
100
AcDbCircle
 10
22.5
 20
10.0
 30
0.0
 40
0.04
  0
TEXT
  5
50D
330
17
100
AcDbEntity
  8
E_TEXTO
100
AcDbText
 10
12.2
 20
10.0
 30
0.0
 40
0.16
  1
anclaje φ19 L=515
  7
KUBIEC
 72
2
 11
12.2
 21
10.0
 31
0.0
100
AcDbText
  0
LINE
  5
50E
330
17
100
AcDbEntity
  8
E_COTAS
100
AcDbLine
 10
12.2
 20
11.8
 30
0.0
 11
22.8
 21
12.3
 31
0.0
  0
CIRCLE
  5
50F
330
17
100
AcDbEntity
  8
E_COTAS
100
AcDbCircle
 10
22.8
 20
12.3
 30
0.0
 40
0.04
  0
TEXT
  5
510
330
17
100
AcDbEntity
  8
E_TEXTO
100
AcDbText
 10
12.2
 20
11.8
 30
0.0
 40
0.16
  1
estribos φ10@50 (3 en 150 mm)
  7
KUBIEC
 72
2
 11
12.2
 21
11.8
 31
0.0
100
AcDbText
  0
LINE
  5
511
330
17
100
AcDbEntity
  8
E_COTAS
100
AcDbLine
 10
31.6
 20
8.399999999999999
 30
0.0
 11
28.3
 21
11.0
 31
0.0
  0
CIRCLE
  5
512
330
17
100
AcDbEntity
  8
E_COTAS
100
AcDbCircle
 10
28.3
 20
11.0
 30
0.0
 40
0.04
  0
TEXT
  5
513
330
17
100
AcDbEntity
  8
E_TEXTO
100
AcDbText
 10
31.6
 20
8.399999999999999
 30
0.0
 40
0.16
  1
8 barras verticales del pedestal
  7
KUBIEC
 11
31.6
 21
8.399999999999999
 31
0.0
100
AcDbText
  0
LINE
  5
514
330
17
100
AcDbEntity
  8
E_COTAS
100
AcDbLine
 10
27.4
 20
17.4
 30
0.0
 11
25.0
 21
15.4
 31
0.0
  0
CIRCLE
  5
515
330
17
100
AcDbEntity
  8
E_COTAS
100
AcDbCircle
 10
25.0
 20
15.4
 30
0.0
 40
0.04
  0
TEXT
  5
516
330
17
100
AcDbEntity
  8
E_TEXTO
100
AcDbText
 10
27.4
 20
17.4
 30
0.0
 40
0.16
  1
grout sin retraccion (e=40)
  7
KUBIEC
 11
27.4
 21
17.4
 31
0.0
100
AcDbText
  0
LINE
  5
517
330
17
100
AcDbEntity
  8
E_COTAS
100
AcDbLine
 10
29.3
 20
20.1
 30
0.0
 11
27.42
 21
18.7
 31
0.0
  0
CIRCLE
  5
518
330
17
100
AcDbEntity
  8
E_COTAS
100
AcDbCircle
 10
27.42
 20
18.7
 30
0.0
 40
0.04
  0
TEXT
  5
519
330
17
100
AcDbEntity
  8
E_TEXTO
100
AcDbText
 10
29.3
 20
20.1
 30
0.0
 40
0.16
  1
columna cajon (rellena f'c>=210)
  7
KUBIEC
 11
29.3
 21
20.1
 31
0.0
100
AcDbText
  0
LINE
  5
51A
330
17
100
AcDbEntity
  8
E_COTAS
100
AcDbLine
 10
29.9
 20
17.7
 30
0.0
 11
27.5
 21
16.36
 31
0.0
  0
CIRCLE
  5
51B
330
17
100
AcDbEntity
  8
E_COTAS
100
AcDbCircle
 10
27.5
 20
16.36
 30
0.0
 40
0.04
  0
TEXT
  5
51C
330
17
100
AcDbEntity
  8
E_TEXTO
100
AcDbText
 10
29.9
 20
17.7
 30
0.0
 40
0.16
  1
filete 6 mm perimetral
  7
KUBIEC
 11
29.9
 21
17.7
 31
0.0
100
AcDbText
  0
TEXT
  5
51D
330
17
100
AcDbEntity
  8
E_TEXTO
100
AcDbText
 10
25.0
 20
4.6
 30
0.0
 40
0.2
  1
CORTE A-A  ESC 1:5
  7
KUBIEC
 72
1
 11
25.0
 21
4.6
 31
0.0
100
AcDbText
 73
2
  0
TEXT
  5
51E
330
17
100
AcDbEntity
  8
E_TITULO
100
AcDbText
 10
38.0
 20
56.4
 30
0.0
 40
0.26
  1
CUADRO DE PLACAS BASE
  7
KUBIEC
 11
38.0
 21
56.4
 31
0.0
100
AcDbText
  0
LINE
  5
51F
330
17
100
AcDbEntity
  8
E_TABLA
100
AcDbLine
 10
38.0
 20
55.4
 30
0.0
 11
59.800000000000004
 21
55.4
 31
0.0
  0
LINE
  5
520
330
17
100
AcDbEntity
  8
E_TABLA
100
AcDbLine
 10
38.0
 20
54.699999999999996
 30
0.0
 11
59.800000000000004
 21
54.699999999999996
 31
0.0
  0
LINE
  5
521
330
17
100
AcDbEntity
  8
E_TABLA
100
AcDbLine
 10
38.0
 20
54.0
 30
0.0
 11
59.800000000000004
 21
54.0
 31
0.0
  0
LINE
  5
522
330
17
100
AcDbEntity
  8
E_TABLA
100
AcDbLine
 10
38.0
 20
53.3
 30
0.0
 11
59.800000000000004
 21
53.3
 31
0.0
  0
LINE
  5
523
330
17
100
AcDbEntity
  8
E_TABLA
100
AcDbLine
 10
38.0
 20
52.6
 30
0.0
 11
59.800000000000004
 21
52.6
 31
0.0
  0
LINE
  5
524
330
17
100
AcDbEntity
  8
E_TABLA
100
AcDbLine
 10
38.0
 20
55.4
 30
0.0
 11
38.0
 21
52.6
 31
0.0
  0
LINE
  5
525
330
17
100
AcDbEntity
  8
E_TABLA
100
AcDbLine
 10
39.6
 20
55.4
 30
0.0
 11
39.6
 21
52.6
 31
0.0
  0
LINE
  5
526
330
17
100
AcDbEntity
  8
E_TABLA
100
AcDbLine
 10
42.2
 20
55.4
 30
0.0
 11
42.2
 21
52.6
 31
0.0
  0
LINE
  5
527
330
17
100
AcDbEntity
  8
E_TABLA
100
AcDbLine
 10
45.2
 20
55.4
 30
0.0
 11
45.2
 21
52.6
 31
0.0
  0
LINE
  5
528
330
17
100
AcDbEntity
  8
E_TABLA
100
AcDbLine
 10
49.6
 20
55.4
 30
0.0
 11
49.6
 21
52.6
 31
0.0
  0
LINE
  5
529
330
17
100
AcDbEntity
  8
E_TABLA
100
AcDbLine
 10
53.0
 20
55.4
 30
0.0
 11
53.0
 21
52.6
 31
0.0
  0
LINE
  5
52A
330
17
100
AcDbEntity
  8
E_TABLA
100
AcDbLine
 10
55.4
 20
55.4
 30
0.0
 11
55.4
 21
52.6
 31
0.0
  0
LINE
  5
52B
330
17
100
AcDbEntity
  8
E_TABLA
100
AcDbLine
 10
59.8
 20
55.4
 30
0.0
 11
59.8
 21
52.6
 31
0.0
  0
TEXT
  5
52C
330
17
100
AcDbEntity
  8
E_TEXTO
100
AcDbText
 10
38.8
 20
55.05
 30
0.0
 40
0.15
  1
MARCA
  7
KUBIEC
 72
1
 11
38.8
 21
55.05
 31
0.0
100
AcDbText
 73
2
  0
TEXT
  5
52D
330
17
100
AcDbEntity
  8
E_TEXTO
100
AcDbText
 10
40.9
 20
55.05
 30
0.0
 40
0.15
  1
COLUMNA
  7
KUBIEC
 72
1
 11
40.9
 21
55.05
 31
0.0
100
AcDbText
 73
2
  0
TEXT
  5
52E
330
17
100
AcDbEntity
  8
E_TEXTO
100
AcDbText
 10
43.7
 20
55.05
 30
0.0
 40
0.15
  1
PLACA (mm)
  7
KUBIEC
 72
1
 11
43.7
 21
55.05
 31
0.0
100
AcDbText
 73
2
  0
TEXT
  5
52F
330
17
100
AcDbEntity
  8
E_TEXTO
100
AcDbText
 10
47.400000000000006
 20
55.05
 30
0.0
 40
0.15
  1
ANCLAJES (4)
  7
KUBIEC
 72
1
 11
47.400000000000006
 21
55.05
 31
0.0
100
AcDbText
 73
2
  0
TEXT
  5
530
330
17
100
AcDbEntity
  8
E_TEXTO
100
AcDbText
 10
51.300000000000004
 20
55.05
 30
0.0
 40
0.15
  1
TACO
  7
KUBIEC
 72
1
 11
51.300000000000004
 21
55.05
 31
0.0
100
AcDbText
 73
2
  0
TEXT
  5
531
330
17
100
AcDbEntity
  8
E_TEXTO
100
AcDbText
 10
54.2
 20
55.05
 30
0.0
 40
0.15
  1
SOLDADURA
  7
KUBIEC
 72
1
 11
54.2
 21
55.05
 31
0.0
100
AcDbText
 73
2
  0
TEXT
  5
532
330
17
100
AcDbEntity
  8
E_TEXTO
100
AcDbText
 10
57.6
 20
55.05
 30
0.0
 40
0.15
  1
DEMANDA MAX.
  7
KUBIEC
 72
1
 11
57.6
 21
55.05
 31
0.0
100
AcDbText
 73
2
  0
TEXT
  5
533
330
17
100
AcDbEntity
  8
E_TEXTO
100
AcDbText
 10
38.8
 20
54.349999999999994
 30
0.0
 40
0.15
  1
PB-1L
  7
KUBIEC
 72
1
 11
38.8
 21
54.349999999999994
 31
0.0
100
AcDbText
 73
2
  0
TEXT
  5
534
330
17
100
AcDbEntity
  8
E_TEXTO
100
AcDbText
 10
40.9
 20
54.349999999999994
 30
0.0
 40
0.15
  1
[]200X200X8
  7
KUBIEC
 72
1
 11
40.9
 21
54.349999999999994
 31
0.0
100
AcDbText
 73
2
  0
TEXT
  5
535
330
17
100
AcDbEntity
  8
E_TEXTO
100
AcDbText
 10
43.7
 20
54.349999999999994
 30
0.0
 40
0.15
  1
PL 380x380x20
  7
KUBIEC
 72
1
 11
43.7
 21
54.349999999999994
 31
0.0
100
AcDbText
 73
2
  0
TEXT
  5
536
330
17
100
AcDbEntity
  8
E_TEXTO
100
AcDbText
 10
47.400000000000006
 20
54.349999999999994
 30
0.0
 40
0.15
  1
φ19 F1554 Gr.36 L=510
  7
KUBIEC
 72
1
 11
47.400000000000006
 21
54.349999999999994
 31
0.0
100
AcDbText
 73
2
  0
TEXT
  5
537
330
17
100
AcDbEntity
  8
E_TEXTO
100
AcDbText
 10
51.300000000000004
 20
54.349999999999994
 30
0.0
 40
0.15
  1
[]100x100x6 L=75
  7
KUBIEC
 72
1
 11
51.300000000000004
 21
54.349999999999994
 31
0.0
100
AcDbText
 73
2
  0
TEXT
  5
538
330
17
100
AcDbEntity
  8
E_TEXTO
100
AcDbText
 10
54.2
 20
54.349999999999994
 30
0.0
 40
0.15
  1
filete 6 mm
  7
KUBIEC
 72
1
 11
54.2
 21
54.349999999999994
 31
0.0
100
AcDbText
 73
2
  0
TEXT
  5
539
330
17
100
AcDbEntity
  8
E_TEXTO
100
AcDbText
 10
57.6
 20
54.349999999999994
 30
0.0
 40
0.15
  1
Pu 40.5 T  Tu 8.2 T
  7
KUBIEC
 72
1
 11
57.6
 21
54.349999999999994
 31
0.0
100
AcDbText
 73
2
  0
TEXT
  5
53A
330
17
100
AcDbEntity
  8
E_TEXTO
100
AcDbText
 10
38.8
 20
53.65
 30
0.0
 40
0.15
  1
PB-1
  7
KUBIEC
 72
1
 11
38.8
 21
53.65
 31
0.0
100
AcDbText
 73
2
  0
TEXT
  5
53B
330
17
100
AcDbEntity
  8
E_TEXTO
100
AcDbText
 10
40.9
 20
53.65
 30
0.0
 40
0.15
  1
[]200X200X8
  7
KUBIEC
 72
1
 11
40.9
 21
53.65
 31
0.0
100
AcDbText
 73
2
  0
TEXT
  5
53C
330
17
100
AcDbEntity
  8
E_TEXTO
100
AcDbText
 10
43.7
 20
53.65
 30
0.0
 40
0.15
  1
PL 380x380x32
  7
KUBIEC
 72
1
 11
43.7
 21
53.65
 31
0.0
100
AcDbText
 73
2
  0
TEXT
  5
53D
330
17
100
AcDbEntity
  8
E_TEXTO
100
AcDbText
 10
47.400000000000006
 20
53.65
 30
0.0
 40
0.15
  1
φ19 F1554 Gr.36 L=530
  7
KUBIEC
 72
1
 11
47.400000000000006
 21
53.65
 31
0.0
100
AcDbText
 73
2
  0
TEXT
  5
53E
330
17
100
AcDbEntity
  8
E_TEXTO
100
AcDbText
 10
51.300000000000004
 20
53.65
 30
0.0
 40
0.15
  1
[]100x100x6 L=75
  7
KUBIEC
 72
1
 11
51.300000000000004
 21
53.65
 31
0.0
100
AcDbText
 73
2
  0
TEXT
  5
53F
330
17
100
AcDbEntity
  8
E_TEXTO
100
AcDbText
 10
54.2
 20
53.65
 30
0.0
 40
0.15
  1
filete 6 mm
  7
KUBIEC
 72
1
 11
54.2
 21
53.65
 31
0.0
100
AcDbText
 73
2
  0
TEXT
  5
540
330
17
100
AcDbEntity
  8
E_TEXTO
100
AcDbText
 10
57.6
 20
53.65
 30
0.0
 40
0.15
  1
V 12.6 T  Tu 10.6 T
  7
KUBIEC
 72
1
 11
57.6
 21
53.65
 31
0.0
100
AcDbText
 73
2
  0
TEXT
  5
541
330
17
100
AcDbEntity
  8
E_TEXTO
100
AcDbText
 10
38.8
 20
52.949999999999996
 30
0.0
 40
0.15
  1
PB-2
  7
KUBIEC
 72
1
 11
38.8
 21
52.949999999999996
 31
0.0
100
AcDbText
 73
2
  0
TEXT
  5
542
330
17
100
AcDbEntity
  8
E_TEXTO
100
AcDbText
 10
40.9
 20
52.949999999999996
 30
0.0
 40
0.15
  1
[]250X200X8
  7
KUBIEC
 72
1
 11
40.9
 21
52.949999999999996
 31
0.0
100
AcDbText
 73
2
  0
TEXT
  5
543
330
17
100
AcDbEntity
  8
E_TEXTO
100
AcDbText
 10
43.7
 20
52.949999999999996
 30
0.0
 40
0.15
  1
PL 380x380x25
  7
KUBIEC
 72
1
 11
43.7
 21
52.949999999999996
 31
0.0
100
AcDbText
 73
2
  0
TEXT
  5
544
330
17
100
AcDbEntity
  8
E_TEXTO
100
AcDbText
 10
47.400000000000006
 20
52.949999999999996
 30
0.0
 40
0.15
  1
φ19 F1554 Gr.36 L=515
  7
KUBIEC
 72
1
 11
47.400000000000006
 21
52.949999999999996
 31
0.0
100
AcDbText
 73
2
  0
TEXT
  5
545
330
17
100
AcDbEntity
  8
E_TEXTO
100
AcDbText
 10
51.300000000000004
 20
52.949999999999996
 30
0.0
 40
0.15
  1
[]100x100x6 L=75
  7
KUBIEC
 72
1
 11
51.300000000000004
 21
52.949999999999996
 31
0.0
100
AcDbText
 73
2
  0
TEXT
  5
546
330
17
100
AcDbEntity
  8
E_TEXTO
100
AcDbText
 10
54.2
 20
52.949999999999996
 30
0.0
 40
0.15
  1
filete 6 mm
  7
KUBIEC
 72
1
 11
54.2
 21
52.949999999999996
 31
0.0
100
AcDbText
 73
2
  0
TEXT
  5
547
330
17
100
AcDbEntity
  8
E_TEXTO
100
AcDbText
 10
57.6
 20
52.949999999999996
 30
0.0
 40
0.15
  1
Pu 44.1 T  V 8.0 T
  7
KUBIEC
 72
1
 11
57.6
 21
52.949999999999996
 31
0.0
100
AcDbText
 73
2
  0
TEXT
  5
548
330
17
100
AcDbEntity
  8
E_TEXTO
100
AcDbText
 10
38.0
 20
52.1
 30
0.0
 40
0.15
  1
PB-1L: A'-1, A'-2, A'-3, A'-4, A'-5, A-3, A-4, A-5, B-3, B-4, B-5.
  7
KUBIEC
 11
38.0
 21
52.1
 31
0.0
100
AcDbText
  0
TEXT
  5
549
330
17
100
AcDbEntity
  8
E_TEXTO
100
AcDbText
 10
38.0
 20
51.800000000000004
 30
0.0
 40
0.15
  1
PB-1: B-6, B-7, B-8, C-5, C-6, C-7, C-8, D-4, D-5, E-4, E-5, F-4, F-5, G-4, G-5.
  7
KUBIEC
 11
38.0
 21
51.800000000000004
 31
0.0
100
AcDbText
  0
TEXT
  5
54A
330
17
100
AcDbEntity
  8
E_TEXTO
100
AcDbText
 10
38.0
 20
51.5
 30
0.0
 40
0.15
  1
PB-2: B-1, B-2.
  7
KUBIEC
 11
38.0
 21
51.5
 31
0.0
100
AcDbText
  0
TEXT
  5
54B
330
17
100
AcDbEntity
  8
E_TEXTO
100
AcDbText
 10
38.0
 20
51.2
 30
0.0
 40
0.15
  1
Columnas C-1 a C-4 y de la torre: sobre pilastras de H.A. (embebidas); no llevan placa base y su detalle de embebido no esta en esta lamina.
  7
KUBIEC
 11
38.0
 21
51.2
 31
0.0
100
AcDbText
  0
TEXT
  5
54C
330
17
100
AcDbEntity
  8
E_TITULO
100
AcDbText
 10
38.0
 20
50.199999999999996
 30
0.0
 40
0.26
  1
VERIFICACION (PREDISEÑO)
  7
KUBIEC
 11
38.0
 21
50.199999999999996
 31
0.0
100
AcDbText
  0
LINE
  5
54D
330
17
100
AcDbEntity
  8
E_TABLA
100
AcDbLine
 10
38.0
 20
49.4
 30
0.0
 11
56.400000000000006
 21
49.4
 31
0.0
  0
LINE
  5
54E
330
17
100
AcDbEntity
  8
E_TABLA
100
AcDbLine
 10
38.0
 20
48.699999999999996
 30
0.0
 11
56.400000000000006
 21
48.699999999999996
 31
0.0
  0
LINE
  5
54F
330
17
100
AcDbEntity
  8
E_TABLA
100
AcDbLine
 10
38.0
 20
48.0
 30
0.0
 11
56.400000000000006
 21
48.0
 31
0.0
  0
LINE
  5
550
330
17
100
AcDbEntity
  8
E_TABLA
100
AcDbLine
 10
38.0
 20
47.3
 30
0.0
 11
56.400000000000006
 21
47.3
 31
0.0
  0
LINE
  5
551
330
17
100
AcDbEntity
  8
E_TABLA
100
AcDbLine
 10
38.0
 20
46.6
 30
0.0
 11
56.400000000000006
 21
46.6
 31
0.0
  0
LINE
  5
552
330
17
100
AcDbEntity
  8
E_TABLA
100
AcDbLine
 10
38.0
 20
49.4
 30
0.0
 11
38.0
 21
46.6
 31
0.0
  0
LINE
  5
553
330
17
100
AcDbEntity
  8
E_TABLA
100
AcDbLine
 10
39.6
 20
49.4
 30
0.0
 11
39.6
 21
46.6
 31
0.0
  0
LINE
  5
554
330
17
100
AcDbEntity
  8
E_TABLA
100
AcDbLine
 10
42.6
 20
49.4
 30
0.0
 11
42.6
 21
46.6
 31
0.0
  0
LINE
  5
555
330
17
100
AcDbEntity
  8
E_TABLA
100
AcDbLine
 10
44.800000000000004
 20
49.4
 30
0.0
 11
44.800000000000004
 21
46.6
 31
0.0
  0
LINE
  5
556
330
17
100
AcDbEntity
  8
E_TABLA
100
AcDbLine
 10
48.400000000000006
 20
49.4
 30
0.0
 11
48.400000000000006
 21
46.6
 31
0.0
  0
LINE
  5
557
330
17
100
AcDbEntity
  8
E_TABLA
100
AcDbLine
 10
51.800000000000004
 20
49.4
 30
0.0
 11
51.800000000000004
 21
46.6
 31
0.0
  0
LINE
  5
558
330
17
100
AcDbEntity
  8
E_TABLA
100
AcDbLine
 10
54.400000000000006
 20
49.4
 30
0.0
 11
54.400000000000006
 21
46.6
 31
0.0
  0
LINE
  5
559
330
17
100
AcDbEntity
  8
E_TABLA
100
AcDbLine
 10
56.400000000000006
 20
49.4
 30
0.0
 11
56.400000000000006
 21
46.6
 31
0.0
  0
TEXT
  5
55A
330
17
100
AcDbEntity
  8
E_TEXTO
100
AcDbText
 10
38.8
 20
49.05
 30
0.0
 40
0.15
  1
MARCA
  7
KUBIEC
 72
1
 11
38.8
 21
49.05
 31
0.0
100
AcDbText
 73
2
  0
TEXT
  5
55B
330
17
100
AcDbEntity
  8
E_TEXTO
100
AcDbText
 10
41.1
 20
49.05
 30
0.0
 40
0.15
  1
COLUMNA CRITICA
  7
KUBIEC
 72
1
 11
41.1
 21
49.05
 31
0.0
100
AcDbText
 73
2
  0
TEXT
  5
55C
330
17
100
AcDbEntity
  8
E_TEXTO
100
AcDbText
 10
43.7
 20
49.05
 30
0.0
 40
0.15
  1
t req. (mm)
  7
KUBIEC
 72
1
 11
43.7
 21
49.05
 31
0.0
100
AcDbText
 73
2
  0
TEXT
  5
55D
330
17
100
AcDbEntity
  8
E_TEXTO
100
AcDbText
 10
46.6
 20
49.05
 30
0.0
 40
0.15
  1
T anclaje / φNsa
  7
KUBIEC
 72
1
 11
46.6
 21
49.05
 31
0.0
100
AcDbText
 73
2
  0
TEXT
  5
55E
330
17
100
AcDbEntity
  8
E_TEXTO
100
AcDbText
 10
50.10000000000001
 20
49.05
 30
0.0
 40
0.15
  1
T anc. conserv.
  7
KUBIEC
 72
1
 11
50.10000000000001
 21
49.05
 31
0.0
100
AcDbText
 73
2
  0
TEXT
  5
55F
330
17
100
AcDbEntity
  8
E_TEXTO
100
AcDbText
 10
53.1
 20
49.05
 30
0.0
 40
0.15
  1
V / φVtaco
  7
KUBIEC
 72
1
 11
53.1
 21
49.05
 31
0.0
100
AcDbText
 73
2
  0
TEXT
  5
560
330
17
100
AcDbEntity
  8
E_TEXTO
100
AcDbText
 10
55.400000000000006
 20
49.05
 30
0.0
 40
0.15
  1
ESPESOR
  7
KUBIEC
 72
1
 11
55.400000000000006
 21
49.05
 31
0.0
100
AcDbText
 73
2
  0
TEXT
  5
561
330
17
100
AcDbEntity
  8
E_TEXTO
100
AcDbText
 10
38.8
 20
48.349999999999994
 30
0.0
 40
0.15
  1
PB-1L
  7
KUBIEC
 72
1
 11
38.8
 21
48.349999999999994
 31
0.0
100
AcDbText
 73
2
  0
TEXT
  5
562
330
17
100
AcDbEntity
  8
E_TEXTO
100
AcDbText
 10
41.1
 20
48.349999999999994
 30
0.0
 40
0.15
  1
B-3
  7
KUBIEC
 72
1
 11
41.1
 21
48.349999999999994
 31
0.0
100
AcDbText
 73
2
  0
TEXT
  5
563
330
17
100
AcDbEntity
  8
E_TEXTO
100
AcDbText
 10
43.7
 20
48.349999999999994
 30
0.0
 40
0.15
  1
16.9
  7
KUBIEC
 72
1
 11
43.7
 21
48.349999999999994
 31
0.0
100
AcDbText
 73
2
  0
TEXT
  5
564
330
17
100
AcDbEntity
  8
E_TEXTO
100
AcDbText
 10
46.6
 20
48.349999999999994
 30
0.0
 40
0.15
  1
0.31
  7
KUBIEC
 72
1
 11
46.6
 21
48.349999999999994
 31
0.0
100
AcDbText
 73
2
  0
TEXT
  5
565
330
17
100
AcDbEntity
  8
E_TEXTO
100
AcDbText
 10
50.10000000000001
 20
48.349999999999994
 30
0.0
 40
0.15
  1
0.61
  7
KUBIEC
 72
1
 11
50.10000000000001
 21
48.349999999999994
 31
0.0
100
AcDbText
 73
2
  0
TEXT
  5
566
330
17
100
AcDbEntity
  8
E_TEXTO
100
AcDbText
 10
53.1
 20
48.349999999999994
 30
0.0
 40
0.15
  1
0.41
  7
KUBIEC
 72
1
 11
53.1
 21
48.349999999999994
 31
0.0
100
AcDbText
 73
2
  0
TEXT
  5
567
330
17
100
AcDbEntity
  8
E_TEXTO
100
AcDbText
 10
55.400000000000006
 20
48.349999999999994
 30
0.0
 40
0.15
  1
20
  7
KUBIEC
 72
1
 11
55.400000000000006
 21
48.349999999999994
 31
0.0
100
AcDbText
 73
2
  0
TEXT
  5
568
330
17
100
AcDbEntity
  8
E_TEXTO
100
AcDbText
 10
38.8
 20
47.65
 30
0.0
 40
0.15
  1
PB-1
  7
KUBIEC
 72
1
 11
38.8
 21
47.65
 31
0.0
100
AcDbText
 73
2
  0
TEXT
  5
569
330
17
100
AcDbEntity
  8
E_TEXTO
100
AcDbText
 10
41.1
 20
47.65
 30
0.0
 40
0.15
  1
G-4
  7
KUBIEC
 72
1
 11
41.1
 21
47.65
 31
0.0
100
AcDbText
 73
2
  0
TEXT
  5
56A
330
17
100
AcDbEntity
  8
E_TEXTO
100
AcDbText
 10
43.7
 20
47.65
 30
0.0
 40
0.15
  1
29.6
  7
KUBIEC
 72
1
 11
43.7
 21
47.65
 31
0.0
100
AcDbText
 73
2
  0
TEXT
  5
56B
330
17
100
AcDbEntity
  8
E_TEXTO
100
AcDbText
 10
46.6
 20
47.65
 30
0.0
 40
0.15
  1
0.57
  7
KUBIEC
 72
1
 11
46.6
 21
47.65
 31
0.0
100
AcDbText
 73
2
  0
TEXT
  5
56C
330
17
100
AcDbEntity
  8
E_TEXTO
100
AcDbText
 10
50.10000000000001
 20
47.65
 30
0.0
 40
0.15
  1
1.76
  7
KUBIEC
 72
1
 11
50.10000000000001
 21
47.65
 31
0.0
100
AcDbText
 73
2
  0
TEXT
  5
56D
330
17
100
AcDbEntity
  8
E_TEXTO
100
AcDbText
 10
53.1
 20
47.65
 30
0.0
 40
0.15
  1
0.78
  7
KUBIEC
 72
1
 11
53.1
 21
47.65
 31
0.0
100
AcDbText
 73
2
  0
TEXT
  5
56E
330
17
100
AcDbEntity
  8
E_TEXTO
100
AcDbText
 10
55.400000000000006
 20
47.65
 30
0.0
 40
0.15
  1
32
  7
KUBIEC
 72
1
 11
55.400000000000006
 21
47.65
 31
0.0
100
AcDbText
 73
2
  0
TEXT
  5
56F
330
17
100
AcDbEntity
  8
E_TEXTO
100
AcDbText
 10
38.8
 20
46.949999999999996
 30
0.0
 40
0.15
  1
PB-2
  7
KUBIEC
 72
1
 11
38.8
 21
46.949999999999996
 31
0.0
100
AcDbText
 73
2
  0
TEXT
  5
570
330
17
100
AcDbEntity
  8
E_TEXTO
100
AcDbText
 10
41.1
 20
46.949999999999996
 30
0.0
 40
0.15
  1
B-1
  7
KUBIEC
 72
1
 11
41.1
 21
46.949999999999996
 31
0.0
100
AcDbText
 73
2
  0
TEXT
  5
571
330
17
100
AcDbEntity
  8
E_TEXTO
100
AcDbText
 10
43.7
 20
46.949999999999996
 30
0.0
 40
0.15
  1
19.8
  7
KUBIEC
 72
1
 11
43.7
 21
46.949999999999996
 31
0.0
100
AcDbText
 73
2
  0
TEXT
  5
572
330
17
100
AcDbEntity
  8
E_TEXTO
100
AcDbText
 10
46.6
 20
46.949999999999996
 30
0.0
 40
0.15
  1
0.00
  7
KUBIEC
 72
1
 11
46.6
 21
46.949999999999996
 31
0.0
100
AcDbText
 73
2
  0
TEXT
  5
573
330
17
100
AcDbEntity
  8
E_TEXTO
100
AcDbText
 10
50.10000000000001
 20
46.949999999999996
 30
0.0
 40
0.15
  1
0.95
  7
KUBIEC
 72
1
 11
50.10000000000001
 21
46.949999999999996
 31
0.0
100
AcDbText
 73
2
  0
TEXT
  5
574
330
17
100
AcDbEntity
  8
E_TEXTO
100
AcDbText
 10
53.1
 20
46.949999999999996
 30
0.0
 40
0.15
  1
0.63
  7
KUBIEC
 72
1
 11
53.1
 21
46.949999999999996
 31
0.0
100
AcDbText
 73
2
  0
TEXT
  5
575
330
17
100
AcDbEntity
  8
E_TEXTO
100
AcDbText
 10
55.400000000000006
 20
46.949999999999996
 30
0.0
 40
0.15
  1
25
  7
KUBIEC
 72
1
 11
55.400000000000006
 21
46.949999999999996
 31
0.0
100
AcDbText
 73
2
  0
TEXT
  5
576
330
17
100
AcDbEntity
  8
E_TEXTO
100
AcDbText
 10
38.0
 20
46.1
 30
0.0
 40
0.15
  1
BASES DE CALCULO: AISC Design Guide 1 (placa con excentricidad), AISC 360-16 J8, ACI 318-19 cap. 17 y 22.8. A36 en placas, F1554 Gr.36 en anclajes, E70XX.
  7
KUBIEC
 11
38.0
 21
46.1
 31
0.0
100
AcDbText
  0
TEXT
  5
577
330
17
100
AcDbEntity
  8
E_TEXTO
100
AcDbText
 10
38.0
 20
45.800000000000004
 30
0.0
 40
0.15
  1
Cargas: tabla de cargas REV11 en la base del pedestal. Momento en la placa = |Mu - Vu x 1.25 m| (altura del pedestal); a confirmar.
  7
KUBIEC
 11
38.0
 21
45.800000000000004
 31
0.0
100
AcDbText
  0
TEXT
  5
578
330
17
100
AcDbEntity
  8
E_TEXTO
100
AcDbText
 10
38.0
 20
45.5
 30
0.0
 40
0.15
  1
T anclaje: Tu repartida en 4 anclajes y traccion por momento (DG1). 'conserv.' suma ademas el momento completo de la fila (no simultaneo).
  7
KUBIEC
 11
38.0
 21
45.5
 31
0.0
100
AcDbText
  0
TEXT
  5
579
330
17
100
AcDbEntity
  8
E_TEXTO
100
AcDbText
 10
38.0
 20
45.2
 30
0.0
 40
0.15
  1
El cortante lo toma el taco de corte (aplastamiento phi=0.65 x 0.85 f'c x 10x7.5 cm = 11.6 T por direccion); los anclajes no se cuentan para cortante.
  7
KUBIEC
 11
38.0
 21
45.2
 31
0.0
100
AcDbText
  0
TEXT
  5
57A
330
17
100
AcDbEntity
  8
E_TEXTO
100
AcDbText
 10
38.0
 20
44.9
 30
0.0
 40
0.15
  1
Traccion en anclajes: se transmite a las barras verticales del pedestal (8 phi16 min.) con estribos phi10@50 en los 150 mm superiores (ACI 17.5.2).
  7
KUBIEC
 11
38.0
 21
44.9
 31
0.0
100
AcDbText
  0
TEXT
  5
57B
330
17
100
AcDbEntity
  8
E_TEXTO
100
AcDbText
 10
38.0
 20
44.6
 30
0.0
 40
0.15
  1
Distancia de anclaje al borde del pedestal: 75 mm (4.7 da). Si se exige 6 da para anclajes pretensados, aumentar el pedestal a 45x45 cm.
  7
KUBIEC
 11
38.0
 21
44.6
 31
0.0
100
AcDbText
  0
TEXT
  5
57C
330
17
100
AcDbEntity
  8
E_TEXTO
100
AcDbText
 10
38.0
 20
44.300000000000004
 30
0.0
 40
0.15
  1
Soldadura de la columna a la placa: filete perimetral 6 mm (phi Rn = 0.94 T/cm >= 0.58 T/cm); si el EOR la califica de demanda critica, usar CJP con respaldo.
  7
KUBIEC
 11
38.0
 21
44.300000000000004
 31
0.0
100
AcDbText
  0
TEXT
  5
57D
330
17
100
AcDbEntity
  8
E_TEXTO
100
AcDbText
 10
38.0
 20
44.0
 30
0.0
 40
0.15
  1
Nivelacion con tuercas y arandelas; relleno con grout sin retraccion f'c >= 350 kg/cm2; apretar las tuercas a ajuste ceñido (snug-tight).
  7
KUBIEC
 11
38.0
 21
44.0
 31
0.0
100
AcDbText
  0
TEXT
  5
57E
330
17
100
AcDbEntity
  8
E_TEXTO
100
AcDbText
 10
38.0
 20
43.7
 30
0.0
 40
0.15
  1
Longitud de anclaje L = hef 400 + grout 40 + t + 50 mm; extremo inferior con arandela 50x50x8 y tuerca (resistencia a arrancamiento no gobierna).
  7
KUBIEC
 11
38.0
 21
43.7
 31
0.0
100
AcDbText
  0
TEXT
  5
57F
330
17
100
AcDbEntity
  8
E_TITULO
100
AcDbText
 10
42.0
 20
42.9
 30
0.0
 40
0.26
  1
LOSA COLABORANTE (ESPESOR TOTAL 10 cm)
  7
KUBIEC
 11
42.0
 21
42.9
 31
0.0
100
AcDbText
  0
LWPOLYLINE
  5
580
330
17
100
AcDbEntity
  8
E_VIGAS_ACERO
100
AcDbPolyline
 90
4
 70
1
 10
46.9
 20
37.04
 10
49.1
 20
37.04
 10
49.1
 20
37.199999999999996
 10
46.9
 20
37.199999999999996
  0
LWPOLYLINE
  5
581
330
17
100
AcDbEntity
  8
E_VIGAS_ACERO
100
AcDbPolyline
 90
4
 70
1
 10
47.96
 20
32.959999999999994
 10
48.04
 20
32.959999999999994
 10
48.04
 20
37.04
 10
47.96
 20
37.04
  0
LWPOLYLINE
  5
582
330
17
100
AcDbEntity
  8
E_VIGAS_ACERO
100
AcDbPolyline
 90
4
 70
1
 10
46.9
 20
32.8
 10
49.1
 20
32.8
 10
49.1
 20
32.959999999999994
 10
46.9
 20
32.959999999999994
  0
HATCH
  5
583
330
17
100
AcDbEntity
  8
E_HATCH
 62
7
100
AcDbHatch
 10
0.0
 20
0.0
 30
0.0
210
0.0
220
0.0
230
1.0
  2
ANSI31
 70
0
 71
0
 91
1
 92
3
 72
0
 73
1
 93
4
 10
46.9
 20
37.04
 10
49.1
 20
37.04
 10
49.1
 20
37.199999999999996
 10
46.9
 20
37.199999999999996
 97
0
 75
1
 76
1
 52
0.0
 41
0.05
 77
0
 78
1
 53
45.0
 43
0.0
 44
0.0
 45
-0.1122532015
 46
0.1122532015
 79
0
 98
0
  0
LWPOLYLINE
  5
584
330
17
100
AcDbEntity
  8
E_ARMADO
100
AcDbPolyline
 90
21
 70
0
 10
43.4
 20
38.199999999999996
 10
43.99
 20
38.199999999999996
 10
44.23
 20
37.199999999999996
 10
45.49
 20
37.199999999999996
 10
45.57
 20
38.199999999999996
 10
46.4
 20
38.199999999999996
 10
46.99
 20
38.199999999999996
 10
47.23
 20
37.199999999999996
 10
48.49
 20
37.199999999999996
 10
48.57
 20
38.199999999999996
 10
49.4
 20
38.199999999999996
 10
49.99
 20
38.199999999999996
 10
50.23
 20
37.199999999999996
 10
51.49
 20
37.199999999999996
 10
51.57
 20
38.199999999999996
 10
52.4
 20
38.199999999999996
 10
52.99
 20
38.199999999999996
 10
53.230000000000004
 20
37.199999999999996
 10
54.49
 20
37.199999999999996
 10
54.57
 20
38.199999999999996
 10
55.4
 20
38.199999999999996
  0
LWPOLYLINE
  5
585
330
17
100
AcDbEntity
  8
E_VIGAS_ACERO
100
AcDbPolyline
 90
2
 70
0
 10
43.4
 20
39.199999999999996
 10
52.6
 20
39.199999999999996
  0
HATCH
  5
586
330
17
100
AcDbEntity
  8
E_HATCH
 62
7
100
AcDbHatch
 10
0.0
 20
0.0
 30
0.0
210
0.0
220
0.0
230
1.0
  2
AR-CONC
 70
0
 71
0
 91
1
 92
3
 72
0
 73
1
 93
4
 10
43.4
 20
38.199999999999996
 10
52.6
 20
38.199999999999996
 10
52.6
 20
39.199999999999996
 10
43.4
 20
39.199999999999996
 97
0
 75
1
 76
1
 52
0.0
 41
0.045
 77
0
 78
13
 53
50.0
 43
0.0
 44
0.0
 45
8.1983101048
 46
-0.7172588493
 79
2
 49
0.85725
 49
-9.42975
 53
355.0
 43
0.0
 44
0.0
 45
-1.5859539641
 46
8.5975580358
 79
2
 49
0.6858
 49
-7.5438262876
 53
100.4514447
 43
0.683190315
 44
-0.0597714075
 45
6.6123561191
 46
7.880298836
 79
2
 49
0.728550396
 49
-8.014061007
 53
46.1842
 43
0.0
 44
2.286
 45
12.1985568401
 46
-1.891904757
 79
2
 49
1.285875
 49
-14.144625
 53
96.63555761
 43
1.0165455
 44
2.1283425
 45
10.6831860323
 46
11.1341756069
 79
2
 49
1.0928260413
 49
-12.0211023672
 53
351.18415117
 43
0.0
 44
2.286
 45
10.6831860329
 46
11.1341756063
 79
2
 49
1.0286985181
 49
-11.3156879364
 53
21.0
 43
1.143
 44
1.7145
 45
6.8226476071
 46
-4.6019339184
 79
2
 49
0.85725
 49
-9.42975
 53
326.0
 43
1.143
 44
1.7145
 45
2.7810912756
 46
8.2884584755
 79
2
 49
0.6858
 49
-7.5438
 53
71.451445
 43
1.711553967
 44
1.3310055045
 45
9.6037388675
 46
3.6865245999
 79
2
 49
0.728550396
 49
-8.014047192
 53
37.5
 43
0.0
 44
0.0
 45
0.1389871463
 46
3.8049767493
 79
6
 49
0.0
 49
-7.45236
 49
0.0
 49
-7.6581
 49
0.0
 49
-7.572375
 53
7.5
 43
0.0
 44
0.0
 45
3.006884813
 46
4.5081258668
 79
6
 49
0.0
 49
-4.36626
 49
0.0
 49
-7.28091
 49
0.0
 49
-2.886075
 53
-32.5
 43
-2.54889
 44
0.0
 45
6.1015767825
 46
-0.2577934797
 79
6
 49
0.0
 49
-2.8575
 49
0.0
 49
-8.9154
 49
0.0
 49
-11.83005
 53
-42.5
 43
-3.69189
 44
0.0
 45
6.6658131624
 46
1.1441920965
 79
6
 49
0.0
 49
-3.71475
 49
0.0
 49
-5.92074
 49
0.0
 49
-8.40105
 98
0
  0
CIRCLE
  5
587
330
17
100
AcDbEntity
  8
E_ARMADO
100
AcDbCircle
 10
43.8
 20
38.72
 30
0.0
 40
0.054000000000000006
  0
CIRCLE
  5
588
330
17
100
AcDbEntity
  8
E_ARMADO
100
AcDbCircle
 10
46.8
 20
38.72
 30
0.0
 40
0.054000000000000006
  0
CIRCLE
  5
589
330
17
100
AcDbEntity
  8
E_ARMADO
100
AcDbCircle
 10
49.8
 20
38.72
 30
0.0
 40
0.054000000000000006
  0
LINE
  5
58A
330
17
100
AcDbEntity
  8
E_ARMADO_FINO
  6
DASHED
100
AcDbLine
 10
43.4
 20
38.72
 30
0.0
 11
52.6
 21
38.72
 31
0.0
  0
LWPOLYLINE
  5
58B
330
17
100
AcDbEntity
  8
E_ARMADO
100
AcDbPolyline
 90
4
 70
1
 10
47.87
 20
37.199999999999996
 10
48.13
 20
37.199999999999996
 10
48.13
 20
38.599999999999994
 10
47.87
 20
38.599999999999994
  0
LWPOLYLINE
  5
58C
330
17
100
AcDbEntity
  8
E_ARMADO
100
AcDbPolyline
 90
4
 70
1
 10
47.8
 20
38.599999999999994
 10
48.2
 20
38.599999999999994
 10
48.2
 20
38.699999999999996
 10
47.8
 20
38.699999999999996
  0
LINE
  5
58D
330
17
100
AcDbEntity
  8
E_COTAS
100
AcDbLine
 10
52.6
 20
37.199999999999996
 30
0.0
 11
53.52
 21
37.199999999999996
 31
0.0
  0
LINE
  5
58E
330
17
100
AcDbEntity
  8
E_COTAS
100
AcDbLine
 10
52.6
 20
39.199999999999996
 30
0.0
 11
53.52
 21
39.199999999999996
 31
0.0
  0
LINE
  5
58F
330
17
100
AcDbEntity
  8
E_COTAS
100
AcDbLine
 10
53.4
 20
37.199999999999996
 30
0.0
 11
53.4
 21
39.199999999999996
 31
0.0
  0
LINE
  5
590
330
17
100
AcDbEntity
  8
E_COTAS
100
AcDbLine
 10
53.309999999999995
 20
37.10999999999999
 30
0.0
 11
53.49
 21
37.29
 31
0.0
  0
LINE
  5
591
330
17
100
AcDbEntity
  8
E_COTAS
100
AcDbLine
 10
53.309999999999995
 20
39.10999999999999
 30
0.0
 11
53.49
 21
39.29
 31
0.0
  0
TEXT
  5
592
330
17
100
AcDbEntity
  8
E_COTAS
100
AcDbText
 10
53.35
 20
38.199999999999996
 30
0.0
 40
0.17
  1
100
 50
90.0
  7
KUBIEC
 72
1
 11
53.35
 21
38.199999999999996
 31
0.0
100
AcDbText
 73
1
  0
LINE
  5
593
330
17
100
AcDbEntity
  8
E_COTAS
100
AcDbLine
 10
43.4
 20
37.199999999999996
 30
0.0
 11
42.48
 21
37.199999999999996
 31
0.0
  0
LINE
  5
594
330
17
100
AcDbEntity
  8
E_COTAS
100
AcDbLine
 10
43.4
 20
38.199999999999996
 30
0.0
 11
42.48
 21
38.199999999999996
 31
0.0
  0
LINE
  5
595
330
17
100
AcDbEntity
  8
E_COTAS
100
AcDbLine
 10
42.6
 20
37.199999999999996
 30
0.0
 11
42.6
 21
38.199999999999996
 31
0.0
  0
LINE
  5
596
330
17
100
AcDbEntity
  8
E_COTAS
100
AcDbLine
 10
42.51
 20
37.10999999999999
 30
0.0
 11
42.690000000000005
 21
37.29
 31
0.0
  0
LINE
  5
597
330
17
100
AcDbEntity
  8
E_COTAS
100
AcDbLine
 10
42.51
 20
38.10999999999999
 30
0.0
 11
42.690000000000005
 21
38.29
 31
0.0
  0
TEXT
  5
598
330
17
100
AcDbEntity
  8
E_COTAS
100
AcDbText
 10
42.550000000000004
 20
37.699999999999996
 30
0.0
 40
0.17
  1
50
 50
90.0
  7
KUBIEC
 72
1
 11
42.550000000000004
 21
37.699999999999996
 31
0.0
100
AcDbText
 73
1
  0
LINE
  5
599
330
17
100
AcDbEntity
  8
E_COTAS
100
AcDbLine
 10
53.2
 20
40.99999999999999
 30
0.0
 11
50.4
 21
39.199999999999996
 31
0.0
  0
CIRCLE
  5
59A
330
17
100
AcDbEntity
  8
E_COTAS
100
AcDbCircle
 10
50.4
 20
39.199999999999996
 30
0.0
 40
0.04
  0
TEXT
  5
59B
330
17
100
AcDbEntity
  8
E_TEXTO
100
AcDbText
 10
53.2
 20
40.99999999999999
 30
0.0
 40
0.15
  1
concreto f'c >= 210 kg/cm2
  7
KUBIEC
 11
53.2
 21
40.99999999999999
 31
0.0
100
AcDbText
  0
LINE
  5
59C
330
17
100
AcDbEntity
  8
E_COTAS
100
AcDbLine
 10
53.2
 20
40.199999999999996
 30
0.0
 11
49.2
 21
38.72
 31
0.0
  0
CIRCLE
  5
59D
330
17
100
AcDbEntity
  8
E_COTAS
100
AcDbCircle
 10
49.2
 20
38.72
 30
0.0
 40
0.04
  0
TEXT
  5
59E
330
17
100
AcDbEntity
  8
E_TEXTO
100
AcDbText
 10
53.2
 20
40.199999999999996
 30
0.0
 40
0.15
  1
malla electrosoldada φ5 @ 15x15
  7
KUBIEC
 11
53.2
 21
40.199999999999996
 31
0.0
100
AcDbText
  0
LINE
  5
59F
330
17
100
AcDbEntity
  8
E_COTAS
100
AcDbLine
 10
39.6
 20
39.4
 30
0.0
 11
46.4
 21
37.699999999999996
 31
0.0
  0
CIRCLE
  5
5A0
330
17
100
AcDbEntity
  8
E_COTAS
100
AcDbCircle
 10
46.4
 20
37.699999999999996
 30
0.0
 40
0.04
  0
TEXT
  5
5A1
330
17
100
AcDbEntity
  8
E_TEXTO
100
AcDbText
 10
39.6
 20
39.4
 30
0.0
 40
0.15
  1
placa colaborante e=0.76 mm, h=50
  7
KUBIEC
 72
2
 11
39.6
 21
39.4
 31
0.0
100
AcDbText
  0
LINE
  5
5A2
330
17
100
AcDbEntity
  8
E_COTAS
100
AcDbLine
 10
39.6
 20
40.99999999999999
 30
0.0
 11
48.0
 21
37.99999999999999
 31
0.0
  0
CIRCLE
  5
5A3
330
17
100
AcDbEntity
  8
E_COTAS
100
AcDbCircle
 10
48.0
 20
37.99999999999999
 30
0.0
 40
0.04
  0
TEXT
  5
5A4
330
17
100
AcDbEntity
  8
E_TEXTO
100
AcDbText
 10
39.6
 20
40.99999999999999
 30
0.0
 40
0.15
  1
conector φ13 L=75 @ 300 (solo vigas principales)
  7
KUBIEC
 72
2
 11
39.6
 21
40.99999999999999
 31
0.0
100
AcDbText
  0
LINE
  5
5A5
330
17
100
AcDbEntity
  8
E_COTAS
100
AcDbLine
 10
39.6
 20
35.199999999999996
 30
0.0
 11
47.1
 21
37.12
 31
0.0
  0
CIRCLE
  5
5A6
330
17
100
AcDbEntity
  8
E_COTAS
100
AcDbCircle
 10
47.1
 20
37.12
 30
0.0
 40
0.04
  0
TEXT
  5
5A7
330
17
100
AcDbEntity
  8
E_TEXTO
100
AcDbText
 10
39.6
 20
35.199999999999996
 30
0.0
 40
0.15
  1
viga principal VK (ala superior)
  7
KUBIEC
 72
2
 11
39.6
 21
35.199999999999996
 31
0.0
100
AcDbText
  0
TEXT
  5
5A8
330
17
100
AcDbEntity
  8
E_TEXTO
100
AcDbText
 10
48.0
 20
31.599999999999994
 30
0.0
 40
0.18
  1
DETALLE 1: CORTE SOBRE VIGA PRINCIPAL  ESC 1:5
  7
KUBIEC
 72
1
 11
48.0
 21
31.599999999999994
 31
0.0
100
AcDbText
 73
2
  0
LWPOLYLINE
  5
5A9
330
17
100
AcDbEntity
  8
E_VIGAS_ACERO
100
AcDbPolyline
 90
4
 70
1
 10
61.0
 20
37.04
 10
65.0
 20
37.04
 10
65.0
 20
37.199999999999996
 10
61.0
 20
37.199999999999996
  0
HATCH
  5
5AA
330
17
100
AcDbEntity
  8
E_HATCH
 62
7
100
AcDbHatch
 10
0.0
 20
0.0
 30
0.0
210
0.0
220
0.0
230
1.0
  2
ANSI31
 70
0
 71
0
 91
1
 92
3
 72
0
 73
1
 93
4
 10
61.0
 20
37.04
 10
65.0
 20
37.04
 10
65.0
 20
37.199999999999996
 10
61.0
 20
37.199999999999996
 97
0
 75
1
 76
1
 52
0.0
 41
0.05
 77
0
 78
1
 53
45.0
 43
0.0
 44
0.0
 45
-0.1122532015
 46
0.1122532015
 79
0
 98
0
  0
LWPOLYLINE
  5
5AB
330
17
100
AcDbEntity
  8
E_VIGAS_ACERO
100
AcDbPolyline
 90
4
 70
1
 10
61.0
 20
34.199999999999996
 10
61.08
 20
34.199999999999996
 10
61.08
 20
37.04
 10
61.0
 20
37.04
  0
LWPOLYLINE
  5
5AC
330
17
100
AcDbEntity
  8
E_ARMADO
100
AcDbPolyline
 90
16
 70
0
 10
58.0
 20
38.199999999999996
 10
58.59
 20
38.199999999999996
 10
58.83
 20
37.199999999999996
 10
60.09
 20
37.199999999999996
 10
60.17
 20
38.199999999999996
 10
61.0
 20
38.199999999999996
 10
61.59
 20
38.199999999999996
 10
61.83
 20
37.199999999999996
 10
63.09
 20
37.199999999999996
 10
63.17
 20
38.199999999999996
 10
64.0
 20
38.199999999999996
 10
64.59
 20
38.199999999999996
 10
64.83
 20
37.199999999999996
 10
66.09
 20
37.199999999999996
 10
66.17
 20
38.199999999999996
 10
67.0
 20
38.199999999999996
  0
LWPOLYLINE
  5
5AD
330
17
100
AcDbEntity
  8
E_VIGAS_ACERO
100
AcDbPolyline
 90
3
 70
0
 10
58.0
 20
39.199999999999996
 10
65.2
 20
39.199999999999996
 10
65.2
 20
37.199999999999996
  0
HATCH
  5
5AE
330
17
100
AcDbEntity
  8
E_HATCH
 62
7
100
AcDbHatch
 10
0.0
 20
0.0
 30
0.0
210
0.0
220
0.0
230
1.0
  2
AR-CONC
 70
0
 71
0
 91
1
 92
3
 72
0
 73
1
 93
4
 10
58.0
 20
38.199999999999996
 10
65.2
 20
38.199999999999996
 10
65.2
 20
39.199999999999996
 10
58.0
 20
39.199999999999996
 97
0
 75
1
 76
1
 52
0.0
 41
0.045
 77
0
 78
13
 53
50.0
 43
0.0
 44
0.0
 45
8.1983101048
 46
-0.7172588493
 79
2
 49
0.85725
 49
-9.42975
 53
355.0
 43
0.0
 44
0.0
 45
-1.5859539641
 46
8.5975580358
 79
2
 49
0.6858
 49
-7.5438262876
 53
100.4514447
 43
0.683190315
 44
-0.0597714075
 45
6.6123561191
 46
7.880298836
 79
2
 49
0.728550396
 49
-8.014061007
 53
46.1842
 43
0.0
 44
2.286
 45
12.1985568401
 46
-1.891904757
 79
2
 49
1.285875
 49
-14.144625
 53
96.63555761
 43
1.0165455
 44
2.1283425
 45
10.6831860323
 46
11.1341756069
 79
2
 49
1.0928260413
 49
-12.0211023672
 53
351.18415117
 43
0.0
 44
2.286
 45
10.6831860329
 46
11.1341756063
 79
2
 49
1.0286985181
 49
-11.3156879364
 53
21.0
 43
1.143
 44
1.7145
 45
6.8226476071
 46
-4.6019339184
 79
2
 49
0.85725
 49
-9.42975
 53
326.0
 43
1.143
 44
1.7145
 45
2.7810912756
 46
8.2884584755
 79
2
 49
0.6858
 49
-7.5438
 53
71.451445
 43
1.711553967
 44
1.3310055045
 45
9.6037388675
 46
3.6865245999
 79
2
 49
0.728550396
 49
-8.014047192
 53
37.5
 43
0.0
 44
0.0
 45
0.1389871463
 46
3.8049767493
 79
6
 49
0.0
 49
-7.45236
 49
0.0
 49
-7.6581
 49
0.0
 49
-7.572375
 53
7.5
 43
0.0
 44
0.0
 45
3.006884813
 46
4.5081258668
 79
6
 49
0.0
 49
-4.36626
 49
0.0
 49
-7.28091
 49
0.0
 49
-2.886075
 53
-32.5
 43
-2.54889
 44
0.0
 45
6.1015767825
 46
-0.2577934797
 79
6
 49
0.0
 49
-2.8575
 49
0.0
 49
-8.9154
 49
0.0
 49
-11.83005
 53
-42.5
 43
-3.69189
 44
0.0
 45
6.6658131624
 46
1.1441920965
 79
6
 49
0.0
 49
-3.71475
 49
0.0
 49
-5.92074
 49
0.0
 49
-8.40105
 98
0
  0
LWPOLYLINE
  5
5AF
330
17
100
AcDbEntity
  8
E_ARMADO
100
AcDbPolyline
 90
3
 70
0
 10
65.2
 20
39.199999999999996
 10
65.2
 20
37.12
 10
64.2
 20
37.12
  0
LINE
  5
5B0
330
17
100
AcDbEntity
  8
E_COTAS
100
AcDbLine
 10
66.8
 20
40.199999999999996
 30
0.0
 11
65.2
 21
38.199999999999996
 31
0.0
  0
CIRCLE
  5
5B1
330
17
100
AcDbEntity
  8
E_COTAS
100
AcDbCircle
 10
65.2
 20
38.199999999999996
 30
0.0
 40
0.04
  0
TEXT
  5
5B2
330
17
100
AcDbEntity
  8
E_TEXTO
100
AcDbText
 10
66.8
 20
40.199999999999996
 30
0.0
 40
0.15
  1
cierre de borde L 100x50x3
  7
KUBIEC
 11
66.8
 21
40.199999999999996
 31
0.0
100
AcDbText
  0
LINE
  5
5B3
330
17
100
AcDbEntity
  8
E_COTAS
100
AcDbLine
 10
58.0
 20
40.99999999999999
 30
0.0
 11
58.0
 21
38.599999999999994
 31
0.0
  0
CIRCLE
  5
5B4
330
17
100
AcDbEntity
  8
E_COTAS
100
AcDbCircle
 10
58.0
 20
38.599999999999994
 30
0.0
 40
0.04
  0
TEXT
  5
5B5
330
17
100
AcDbEntity
  8
E_TEXTO
100
AcDbText
 10
58.0
 20
40.99999999999999
 30
0.0
 40
0.15
  1
borde de placa colaborante
  7
KUBIEC
 11
58.0
 21
40.99999999999999
 31
0.0
100
AcDbText
  0
LINE
  5
5B6
330
17
100
AcDbEntity
  8
E_COTAS
100
AcDbLine
 10
60.6
 20
33.199999999999996
 30
0.0
 11
61.0
 21
35.8
 31
0.0
  0
CIRCLE
  5
5B7
330
17
100
AcDbEntity
  8
E_COTAS
100
AcDbCircle
 10
61.0
 20
35.8
 30
0.0
 40
0.04
  0
TEXT
  5
5B8
330
17
100
AcDbEntity
  8
E_TEXTO
100
AcDbText
 10
60.6
 20
33.199999999999996
 30
0.0
 40
0.15
  1
viga de borde VK150X100X4X4
  7
KUBIEC
 72
2
 11
60.6
 21
33.199999999999996
 31
0.0
100
AcDbText
  0
TEXT
  5
5B9
330
17
100
AcDbEntity
  8
E_TEXTO
100
AcDbText
 10
62.0
 20
31.999999999999996
 30
0.0
 40
0.18
  1
DETALLE 2: BORDE DE LOSA  ESC 1:5
  7
KUBIEC
 72
1
 11
62.0
 21
31.999999999999996
 31
0.0
100
AcDbText
 73
2
  0
LWPOLYLINE
  5
5BA
330
17
100
AcDbEntity
  8
E_VIGAS_ACERO
100
AcDbPolyline
 90
4
 70
1
 10
47.0
 20
27.24
 10
49.0
 20
27.24
 10
49.0
 20
27.4
 10
47.0
 20
27.4
  0
HATCH
  5
5BB
330
17
100
AcDbEntity
  8
E_HATCH
 62
7
100
AcDbHatch
 10
0.0
 20
0.0
 30
0.0
210
0.0
220
0.0
230
1.0
  2
ANSI31
 70
0
 71
0
 91
1
 92
3
 72
0
 73
1
 93
4
 10
47.0
 20
27.24
 10
49.0
 20
27.24
 10
49.0
 20
27.4
 10
47.0
 20
27.4
 97
0
 75
1
 76
1
 52
0.0
 41
0.05
 77
0
 78
1
 53
45.0
 43
0.0
 44
0.0
 45
-0.1122532015
 46
0.1122532015
 79
0
 98
0
  0
LWPOLYLINE
  5
5BC
330
17
100
AcDbEntity
  8
E_VIGAS_ACERO
100
AcDbPolyline
 90
4
 70
1
 10
47.96
 20
25.0
 10
48.04
 20
25.0
 10
48.04
 20
27.24
 10
47.96
 20
27.24
  0
LWPOLYLINE
  5
5BD
330
17
100
AcDbEntity
  8
E_ARMADO
100
AcDbPolyline
 90
4
 70
0
 10
43.0
 20
28.4
 10
47.6
 20
28.4
 10
47.9
 20
27.4
 10
49.2
 20
27.4
  0
LWPOLYLINE
  5
5BE
330
17
100
AcDbEntity
  8
E_ARMADO
100
AcDbPolyline
 90
4
 70
0
 10
46.8
 20
27.479999999999997
 10
47.8
 20
27.479999999999997
 10
48.1
 20
28.479999999999997
 10
53.0
 20
28.479999999999997
  0
CIRCLE
  5
5BF
330
17
100
AcDbEntity
  8
E_ARMADO_FINO
100
AcDbCircle
 10
48.0
 20
27.439999999999998
 30
0.0
 40
0.2
  0
LINE
  5
5C0
330
17
100
AcDbEntity
  8
E_COTAS
100
AcDbLine
 10
46.8
 20
27.4
 30
0.0
 11
46.8
 21
28.919999999999998
 31
0.0
  0
LINE
  5
5C1
330
17
100
AcDbEntity
  8
E_COTAS
100
AcDbLine
 10
49.2
 20
27.4
 30
0.0
 11
49.2
 21
28.919999999999998
 31
0.0
  0
LINE
  5
5C2
330
17
100
AcDbEntity
  8
E_COTAS
100
AcDbLine
 10
46.8
 20
28.799999999999997
 30
0.0
 11
49.2
 21
28.799999999999997
 31
0.0
  0
LINE
  5
5C3
330
17
100
AcDbEntity
  8
E_COTAS
100
AcDbLine
 10
46.709999999999994
 20
28.709999999999997
 30
0.0
 11
46.89
 21
28.889999999999997
 31
0.0
  0
LINE
  5
5C4
330
17
100
AcDbEntity
  8
E_COTAS
100
AcDbLine
 10
49.11
 20
28.709999999999997
 30
0.0
 11
49.290000000000006
 21
28.889999999999997
 31
0.0
  0
TEXT
  5
5C5
330
17
100
AcDbEntity
  8
E_COTAS
100
AcDbText
 10
48.0
 20
28.849999999999998
 30
0.0
 40
0.17
  1
traslape >= 100
  7
KUBIEC
 72
1
 11
48.0
 21
28.849999999999998
 31
0.0
100
AcDbText
 73
1
  0
LINE
  5
5C6
330
17
100
AcDbEntity
  8
E_COTAS
100
AcDbLine
 10
47.0
 20
27.24
 30
0.0
 11
47.0
 21
26.419999999999998
 31
0.0
  0
LINE
  5
5C7
330
17
100
AcDbEntity
  8
E_COTAS
100
AcDbLine
 10
49.0
 20
27.24
 30
0.0
 11
49.0
 21
26.419999999999998
 31
0.0
  0
LINE
  5
5C8
330
17
100
AcDbEntity
  8
E_COTAS
100
AcDbLine
 10
47.0
 20
26.54
 30
0.0
 11
49.0
 21
26.54
 31
0.0
  0
LINE
  5
5C9
330
17
100
AcDbEntity
  8
E_COTAS
100
AcDbLine
 10
46.91
 20
26.45
 30
0.0
 11
47.09
 21
26.63
 31
0.0
  0
LINE
  5
5CA
330
17
100
AcDbEntity
  8
E_COTAS
100
AcDbLine
 10
48.91
 20
26.45
 30
0.0
 11
49.09
 21
26.63
 31
0.0
  0
TEXT
  5
5CB
330
17
100
AcDbEntity
  8
E_COTAS
100
AcDbText
 10
48.0
 20
26.59
 30
0.0
 40
0.17
  1
apoyo >= 40
  7
KUBIEC
 72
1
 11
48.0
 21
26.59
 31
0.0
100
AcDbText
 73
1
  0
LINE
  5
5CC
330
17
100
AcDbEntity
  8
E_COTAS
100
AcDbLine
 10
50.4
 20
29.799999999999997
 30
0.0
 11
48.0
 21
27.439999999999998
 31
0.0
  0
CIRCLE
  5
5CD
330
17
100
AcDbEntity
  8
E_COTAS
100
AcDbCircle
 10
48.0
 20
27.439999999999998
 30
0.0
 40
0.04
  0
TEXT
  5
5CE
330
17
100
AcDbEntity
  8
E_TEXTO
100
AcDbText
 10
50.4
 20
29.799999999999997
 30
0.0
 40
0.15
  1
soldadura de tapon φ19 @ 300
  7
KUBIEC
 11
50.4
 21
29.799999999999997
 31
0.0
100
AcDbText
  0
LINE
  5
5CF
330
17
100
AcDbEntity
  8
E_COTAS
100
AcDbLine
 10
50.8
 20
31.2
 30
0.0
 11
48.8
 21
28.479999999999997
 31
0.0
  0
CIRCLE
  5
5D0
330
17
100
AcDbEntity
  8
E_COTAS
100
AcDbCircle
 10
48.8
 20
28.479999999999997
 30
0.0
 40
0.04
  0
TEXT
  5
5D1
330
17
100
AcDbEntity
  8
E_TEXTO
100
AcDbText
 10
50.8
 20
31.2
 30
0.0
 40
0.15
  1
tornillo autoperforante lateral @ 600
  7
KUBIEC
 11
50.8
 21
31.2
 31
0.0
100
AcDbText
  0
TEXT
  5
5D2
330
17
100
AcDbEntity
  8
E_TEXTO
100
AcDbText
 10
48.0
 20
23.599999999999998
 30
0.0
 40
0.18
  1
DETALLE 3: APOYO Y TRASLAPE DE LA PLACA  ESC 1:5
  7
KUBIEC
 72
1
 11
48.0
 21
23.599999999999998
 31
0.0
100
AcDbText
 73
2
  0
TEXT
  5
5D3
330
17
100
AcDbEntity
  8
E_TEXTO
100
AcDbText
 10
59.0
 20
30.4
 30
0.0
 40
0.15
  1
NOTAS: la losa se calcula como NO COMPUESTA (la memoria no considera accion compuesta); el peso propio es 190 kg/m2.
  7
KUBIEC
 11
59.0
 21
30.4
 31
0.0
100
AcDbText
  0
TEXT
  5
5D4
330
17
100
AcDbEntity
  8
E_TEXTO
100
AcDbText
 10
59.0
 20
30.099999999999998
 30
0.0
 40
0.15
  1
Los conectores φ13 x 75 solo transmiten el cortante del diafragma (la cabeza queda a 25 mm de la cara superior).
  7
KUBIEC
 11
59.0
 21
30.099999999999998
 31
0.0
100
AcDbText
  0
TEXT
  5
5D5
330
17
100
AcDbEntity
  8
E_TEXTO
100
AcDbText
 10
59.0
 20
29.799999999999997
 30
0.0
 40
0.15
  1
Placa colaborante galvanizada e = 0.76 mm, h = 50 mm; apoyo minimo 40 mm; traslape de extremo 100 mm.
  7
KUBIEC
 11
59.0
 21
29.799999999999997
 31
0.0
100
AcDbText
  0
TEXT
  5
5D6
330
17
100
AcDbEntity
  8
E_TEXTO
100
AcDbText
 10
59.0
 20
29.5
 30
0.0
 40
0.15
  1
Malla electrosoldada φ5 @ 15x15 cm: 1.31 cm2/m (>= 0.0018 x 5 cm x 100); recubrimiento superior 25 mm.
  7
KUBIEC
 11
59.0
 21
29.5
 31
0.0
100
AcDbText
  0
TEXT
  5
5D7
330
17
100
AcDbEntity
  8
E_TEXTO
100
AcDbText
 10
59.0
 20
29.2
 30
0.0
 40
0.15
  1
Apuntalar la placa a luces mayores a 2.0 m durante el vaciado; el hormigon se vibra y cura >= 7 dias.
  7
KUBIEC
 11
59.0
 21
29.2
 31
0.0
100
AcDbText
  0
TEXT
  5
5D8
330
17
100
AcDbEntity
  8
E_TEXTO
100
AcDbText
 10
59.0
 20
28.9
 30
0.0
 40
0.15
  1
Verificar con el fabricante la capacidad en voladizo de los aleros (0.50 m) y la perforacion para pasantes.
  7
KUBIEC
 11
59.0
 21
28.9
 31
0.0
100
AcDbText
  0
ENDSEC
  0
SECTION
  2
OBJECTS
  0
DICTIONARY
  5
A
330
0
100
AcDbDictionary
281
1
  3
ACAD_CIP_PREVIOUS_PRODUCT_INFO
350
391
  3
ACAD_COLOR
350
B
  3
ACAD_DETAILVIEWSTYLE
350
383
  3
ACAD_GROUP
350
C
  3
ACAD_LAST_SAVED_VERSION_INFO
350
392
  3
ACAD_LAYOUT
350
D
  3
ACAD_MATERIAL
350
E
  3
ACAD_MLEADERSTYLE
350
F
  3
ACAD_MLINESTYLE
350
10
  3
ACAD_PLOTSETTINGS
350
11
  3
ACAD_PLOTSTYLENAME
350
12
  3
ACAD_SCALELIST
350
14
  3
ACAD_SECTIONVIEWSTYLE
350
381
  3
ACAD_TABLESTYLE
350
15
  3
ACAD_VISUALSTYLE
350
16
  3
AcDbVariableDictionary
350
394
  3
EZDXF_META
350
2D
  0
DICTIONARY
  5
B
330
A
100
AcDbDictionary
281
1
  0
DICTIONARY
  5
C
330
A
100
AcDbDictionary
281
1
  0
DICTIONARY
  5
D
330
A
100
AcDbDictionary
281
1
  3
Layout1
350
1E
  3
Model
350
1A
  0
DICTIONARY
  5
E
330
A
100
AcDbDictionary
281
1
  3
ByBlock
350
39C
  3
ByLayer
350
39D
  3
Global
350
39E
  0
DICTIONARY
  5
F
330
A
100
AcDbDictionary
281
1
  3
Standard
350
2C
  0
DICTIONARY
  5
10
330
A
100
AcDbDictionary
281
1
  3
Standard
350
22
  0
DICTIONARY
  5
11
330
A
100
AcDbDictionary
281
1
  0
ACDBDICTIONARYWDFLT
  5
12
330
A
100
AcDbDictionary
281
1
  3
Normal
350
13
100
AcDbDictionaryWithDefault
340
13
  0
ACDBPLACEHOLDER
  5
13
330
12
  0
DICTIONARY
  5
14
330
A
100
AcDbDictionary
281
1
  3
A0
350
370
  3
A1
350
371
  3
A2
350
372
  3
A3
350
373
  3
A4
350
374
  3
A5
350
375
  3
A6
350
376
  3
A7
350
377
  3
A8
350
378
  3
A9
350
379
  3
B0
350
37A
  3
B1
350
37B
  3
B2
350
37C
  3
B3
350
37D
  3
B4
350
37E
  3
B5
350
37F
  3
B6
350
380
  0
DICTIONARY
  5
15
330
A
100
AcDbDictionary
281
1
  3
Standard
350
36F
  0
DICTIONARY
  5
16
330
A
100
AcDbDictionary
281
1
  3
2dWireframe
350
5A
  3
Basic
350
5B
  3
Brighten
350
5C
  3
ColorChange
350
5D
  3
Conceptual
350
5E
  3
Dim
350
5F
  3
EdgeColorOff
350
60
  3
Facepattern
350
61
  3
Flat
350
62
  3
FlatWithEdges
350
63
  3
Gouraud
350
64
  3
GouraudWithEdges
350
65
  3
Hidden
350
66
  3
JitterOff
350
67
  3
Linepattern
350
68
  3
Modeling
350
69
  3
OverhangOff
350
6A
  3
Realistic
350
6B
  3
Shaded
350
6C
  3
Shaded with edges
350
6D
  3
Shades of Gray
350
6E
  3
Sketchy
350
6F
  3
Thicken
350
70
  3
Wireframe
350
71
  3
X-Ray
350
72
  0
LAYOUT
  5
1A
330
D
100
AcDbPlotSettings
  1

  2
Microsoft Print to PDF
  4
A3
  6

 40
7.5
 41
20.0
 42
7.5
 43
20.0
 44
420.0
 45
297.0
 46
0.0
 47
0.0
 48
0.0
 49
0.0
140
0.0
141
0.0
142
1.0
143
1.0
 70
1024
 72
1
 73
0
 74
5
  7

 75
16
 76
0
 77
2
 78
300
147
1.0
148
0.0
149
0.0
100
AcDbLayout
  1
Model
 70
1
 71
0
 10
0.0
 20
0.0
 11
420.0
 21
297.0
 12
0.0
 22
0.0
 32
0.0
 14
1e+20
 24
1e+20
 34
1e+20
 15
-1e+20
 25
-1e+20
 35
-1e+20
146
0.0
 13
0.0
 23
0.0
 33
0.0
 16
1.0
 26
0.0
 36
0.0
 17
0.0
 27
1.0
 37
0.0
 76
1
330
17
331
23
  0
LAYOUT
  5
1E
330
D
100
AcDbPlotSettings
  1

  2
Microsoft Print to PDF
  4
A3
  6

 40
7.5
 41
20.0
 42
7.5
 43
20.0
 44
420.0
 45
297.0
 46
0.0
 47
0.0
 48
0.0
 49
0.0
140
0.0
141
0.0
142
1.0
143
1.0
 70
0
 72
1
 73
0
 74
5
  7

 75
16
 76
0
 77
2
 78
300
147
1.0
148
0.0
149
0.0
100
AcDbLayout
  1
Layout1
 70
1
 71
1
 10
0.0
 20
0.0
 11
420.0
 21
297.0
 12
0.0
 22
0.0
 32
0.0
 14
1e+20
 24
1e+20
 34
1e+20
 15
-1e+20
 25
-1e+20
 35
-1e+20
146
0.0
 13
0.0
 23
0.0
 33
0.0
 16
1.0
 26
0.0
 36
0.0
 17
0.0
 27
1.0
 37
0.0
 76
0
330
1B
  0
MLINESTYLE
  5
22
102
{ACAD_REACTORS
330
10
102
}
330
10
100
AcDbMlineStyle
  2
STANDARD
 70
0
  3

 62
0
 51
90.0
 52
90.0
 71
2
 49
0.5
 62
0
  6
ByLayer
 49
-0.5
 62
0
  6
ByLayer
  0
MLEADERSTYLE
  5
2C
102
{ACAD_REACTORS
330
F
102
}
330
F
100
AcDbMLeaderStyle
179
2
170
2
171
1
172
0
 90
2
 40
0.0
 41
0.0
173
1
 91
-1056964608
340
0
 92
-2
290
1
 42
2.0
291
1
 43
8.0
  3
Standard
341
0
 44
4.0
300

342
29
174
1
175
1
176
0
178
1
 93
-1056964608
 45
4.0
292
0
297
0
 46
4.0
293
1
343
0
 94
-1056964608
 47
1.0
 49
1.0
140
1.0
294
1
141
0.0
177
0
142
1.0
295
0
296
0
143
3.75
271
0
272
9
273
9
298
1
  0
DICTIONARY
  5
2D
330
A
100
AcDbDictionary
280
1
281
1
  3
CREATED_BY_EZDXF
360
2E
  3
WRITTEN_BY_EZDXF
360
36B
  0
DICTIONARYVAR
  5
2E
330
2D
100
DictionaryVariables
280
0
  1
1.4.4 @ 2026-10-03T00:24:18.230819+00:00
  0
VISUALSTYLE
  5
5A
102
{ACAD_REACTORS
330
16
102
}
330
16
100
AcDbVisualStyle
  2
2dWireframe
 70
4
177
2
291
0
 70
58
 90
2
176
1
 90
2
176
1
 90
0
176
1
 90
0
176
1
 40
0.6
176
1
 40
30.0
176
1
 62
7
420
3271557119
176
1
 90
1
176
1
 90
4
176
1
 62
7
176
1
 62
257
176
1
 90
1
176
1
 90
1
176
1
 40
1.0
176
1
 90
8
176
1
 62
7
176
1
 40
1.0
176
1
 90
1
176
1
 90
6
176
1
 90
2
176
1
 62
7
176
1
 90
5
176
1
 90
0
176
1
 90
0
176
1
290
0
176
1
 90
1
176
1
 40
0.0
176
1
 90
0
176
1
290
1
176
1
290
1
176
1
290
0
176
1
290
0
290
0
176
1
290
0
290
0
176
1
290
0
176
1
290
0
176
1
 90
50
176
1
 40
0.0
176
1
 40
1.0
176
1
 90
0
176
1
 62
18
176
1
 90
50
176
1
 90
3
176
1
 62
5
420
3254780159
176
1
290
0
176
1
 90
50
176
1
 90
50
176
1
 90
50
176
1
290
0
176
1
 90
50
176
1
 62
0
176
0
 40
1.0
176
0
 90
2
176
1
  1
strokes_ogs.tif
176
1
290
0
176
1
 40
1.0
176
1
 40
1.0
176
1
  0
VISUALSTYLE
  5
5B
102
{ACAD_REACTORS
330
16
102
}
330
16
100
AcDbVisualStyle
  2
Basic
 70
7
177
2
291
1
 70
58
 90
2
176
1
 90
2
176
1
 90
0
176
1
 90
1
176
1
 40
0.6
176
1
 40
30.0
176
1
 62
7
420
3271557119
176
1
 90
1
176
1
 90
4
176
1
 62
7
176
1
 62
257
176
1
 90
1
176
1
 90
1
176
1
 40
1.0
176
1
 90
8
176
1
 62
7
176
1
 40
1.0
176
1
 90
1
176
1
 90
6
176
1
 90
2
176
1
 62
7
176
1
 90
5
176
1
 90
0
176
1
 90
0
176
1
290
0
176
1
 90
1
176
1
 40
0.0
176
1
 90
0
176
1
290
0
176
1
290
1
176
1
290
1
176
1
290
0
290
0
176
1
290
0
290
0
176
1
290
0
176
1
290
0
176
1
 90
50
176
1
 40
0.0
176
1
 40
1.0
176
1
 90
0
176
1
 62
18
176
1
 90
50
176
1
 90
3
176
1
 62
5
420
3254780159
176
1
290
0
176
1
 90
50
176
1
 90
50
176
1
 90
50
176
1
290
0
176
1
 90
50
176
1
 62
0
176
0
 40
1.0
176
0
 90
2
176
1
  1
strokes_ogs.tif
176
1
290
0
176
1
 40
1.0
176
1
 40
1.0
176
1
  0
VISUALSTYLE
  5
5C
102
{ACAD_REACTORS
330
16
102
}
330
16
100
AcDbVisualStyle
  2
Brighten
 70
12
177
2
291
1
 70
58
 90
2
176
1
 90
2
176
1
 90
0
176
1
 90
2
176
1
 40
0.6
176
1
 40
30.0
176
1
 62
7
420
3271557119
176
1
 90
1
176
1
 90
4
176
1
 62
7
176
1
 62
257
176
1
 90
1
176
1
 90
1
176
1
 40
1.0
176
1
 90
8
176
1
 62
7
176
1
 40
1.0
176
1
 90
1
176
1
 90
6
176
1
 90
2
176
1
 62
7
176
1
 90
5
176
1
 90
0
176
1
 90
0
176
1
290
0
176
1
 90
1
176
1
 40
0.0
176
1
 90
0
176
1
290
0
176
1
290
1
176
1
290
1
176
1
290
0
290
0
176
1
290
0
290
0
176
1
290
0
176
1
290
0
176
1
 90
50
176
1
 40
0.0
176
1
 40
1.0
176
1
 90
0
176
1
 62
18
176
1
 90
50
176
1
 90
3
176
1
 62
5
420
3254780159
176
1
290
0
176
1
 90
50
176
1
 90
50
176
1
 90
50
176
1
290
0
176
1
 90
50
176
1
 62
0
176
0
 40
1.0
176
0
 90
2
176
1
  1
strokes_ogs.tif
176
1
290
0
176
1
 40
1.0
176
1
 40
1.0
176
1
  0
VISUALSTYLE
  5
5D
102
{ACAD_REACTORS
330
16
102
}
330
16
100
AcDbVisualStyle
  2
ColorChange
 70
16
177
2
291
1
 70
58
 90
2
176
1
 90
2
176
1
 90
0
176
1
 90
2
176
1
 40
0.6
176
1
 40
30.0
176
1
 62
7
420
3271557119
176
1
 90
1
176
1
 90
4
176
1
 62
7
176
1
 62
257
176
1
 90
1
176
1
 90
1
176
1
 40
1.0
176
1
 90
8
176
1
 62
7
176
1
 40
1.0
176
1
 90
1
176
1
 90
6
176
1
 90
2
176
1
 62
7
176
1
 90
5
176
1
 90
0
176
1
 90
0
176
1
290
0
176
1
 90
1
176
1
 40
0.0
176
1
 90
0
176
1
290
0
176
1
290
1
176
1
290
1
176
1
290
0
290
0
176
1
290
0
290
0
176
1
290
0
176
1
290
0
176
1
 90
50
176
1
 40
0.0
176
1
 40
1.0
176
1
 90
0
176
1
 62
18
176
1
 90
50
176
1
 90
3
176
1
 62
5
420
3254780159
176
1
290
0
176
1
 90
50
176
1
 90
50
176
1
 90
50
176
1
290
0
176
1
 90
50
176
1
 62
0
176
0
 40
1.0
176
0
 90
2
176
1
  1
strokes_ogs.tif
176
1
290
0
176
1
 40
1.0
176
1
 40
1.0
176
1
  0
VISUALSTYLE
  5
5E
102
{ACAD_REACTORS
330
16
102
}
330
16
100
AcDbVisualStyle
  2
Conceptual
 70
9
177
2
291
0
 70
58
 90
2
176
1
 90
2
176
1
 90
0
176
1
 90
3
176
1
 40
0.6
176
1
 40
30.0
176
1
 62
7
420
3271557119
176
1
 90
1
176
1
 90
4
176
1
 62
7
176
1
 62
257
176
1
 90
1
176
1
 90
1
176
1
 40
1.0
176
1
 90
8
176
1
 62
7
176
1
 40
1.0
176
1
 90
1
176
1
 90
6
176
1
 90
2
176
1
 62
7
176
1
 90
5
176
1
 90
0
176
1
 90
0
176
1
290
0
176
1
 90
1
176
1
 40
0.0
176
1
 90
0
176
1
290
0
176
1
290
1
176
1
290
1
176
1
290
0
290
0
176
1
290
0
290
0
176
1
290
0
176
1
290
0
176
1
 90
50
176
1
 40
0.0
176
1
 40
1.0
176
1
 90
0
176
1
 62
18
176
1
 90
50
176
1
 90
3
176
1
 62
5
420
3254780159
176
1
290
0
176
1
 90
50
176
1
 90
50
176
1
 90
50
176
1
290
0
176
1
 90
50
176
1
 62
0
176
0
 40
1.0
176
0
 90
2
176
1
  1
strokes_ogs.tif
176
1
290
0
176
1
 40
1.0
176
1
 40
1.0
176
1
  0
VISUALSTYLE
  5
5F
102
{ACAD_REACTORS
330
16
102
}
330
16
100
AcDbVisualStyle
  2
Dim
 70
11
177
2
291
1
 70
58
 90
2
176
1
 90
2
176
1
 90
0
176
1
 90
2
176
1
 40
0.6
176
1
 40
30.0
176
1
 62
7
420
3271557119
176
1
 90
1
176
1
 90
4
176
1
 62
7
176
1
 62
257
176
1
 90
1
176
1
 90
1
176
1
 40
1.0
176
1
 90
8
176
1
 62
7
176
1
 40
1.0
176
1
 90
1
176
1
 90
6
176
1
 90
2
176
1
 62
7
176
1
 90
5
176
1
 90
0
176
1
 90
0
176
1
290
0
176
1
 90
1
176
1
 40
0.0
176
1
 90
0
176
1
290
0
176
1
290
1
176
1
290
1
176
1
290
0
290
0
176
1
290
0
290
0
176
1
290
0
176
1
290
0
176
1
 90
50
176
1
 40
0.0
176
1
 40
1.0
176
1
 90
0
176
1
 62
18
176
1
 90
50
176
1
 90
3
176
1
 62
5
420
3254780159
176
1
290
0
176
1
 90
50
176
1
 90
50
176
1
 90
50
176
1
290
0
176
1
 90
50
176
1
 62
0
176
0
 40
1.0
176
0
 90
2
176
1
  1
strokes_ogs.tif
176
1
290
0
176
1
 40
1.0
176
1
 40
1.0
176
1
  0
VISUALSTYLE
  5
60
102
{ACAD_REACTORS
330
16
102
}
330
16
100
AcDbVisualStyle
  2
EdgeColorOff
 70
22
177
2
291
1
 70
58
 90
2
176
1
 90
2
176
1
 90
0
176
1
 90
2
176
1
 40
0.6
176
1
 40
30.0
176
1
 62
7
420
3271557119
176
1
 90
1
176
1
 90
4
176
1
 62
7
176
1
 62
257
176
1
 90
1
176
1
 90
1
176
1
 40
1.0
176
1
 90
8
176
1
 62
7
176
1
 40
1.0
176
1
 90
1
176
1
 90
6
176
1
 90
2
176
1
 62
7
176
1
 90
5
176
1
 90
0
176
1
 90
0
176
1
290
0
176
1
 90
1
176
1
 40
0.0
176
1
 90
0
176
1
290
0
176
1
290
1
176
1
290
1
176
1
290
0
290
0
176
1
290
0
290
0
176
1
290
0
176
1
290
0
176
1
 90
50
176
1
 40
0.0
176
1
 40
1.0
176
1
 90
0
176
1
 62
18
176
1
 90
50
176
1
 90
3
176
1
 62
5
420
3254780159
176
1
290
0
176
1
 90
50
176
1
 90
50
176
1
 90
50
176
1
290
0
176
1
 90
50
176
1
 62
0
176
0
 40
1.0
176
0
 90
2
176
1
  1
strokes_ogs.tif
176
1
290
0
176
1
 40
1.0
176
1
 40
1.0
176
1
  0
VISUALSTYLE
  5
61
102
{ACAD_REACTORS
330
16
102
}
330
16
100
AcDbVisualStyle
  2
Facepattern
 70
15
177
2
291
1
 70
58
 90
2
176
1
 90
2
176
1
 90
0
176
1
 90
2
176
1
 40
0.6
176
1
 40
30.0
176
1
 62
7
420
3271557119
176
1
 90
1
176
1
 90
4
176
1
 62
7
176
1
 62
257
176
1
 90
1
176
1
 90
1
176
1
 40
1.0
176
1
 90
8
176
1
 62
7
176
1
 40
1.0
176
1
 90
1
176
1
 90
6
176
1
 90
2
176
1
 62
7
176
1
 90
5
176
1
 90
0
176
1
 90
0
176
1
290
0
176
1
 90
1
176
1
 40
0.0
176
1
 90
0
176
1
290
0
176
1
290
1
176
1
290
1
176
1
290
0
290
0
176
1
290
0
290
0
176
1
290
0
176
1
290
0
176
1
 90
50
176
1
 40
0.0
176
1
 40
1.0
176
1
 90
0
176
1
 62
18
176
1
 90
50
176
1
 90
3
176
1
 62
5
420
3254780159
176
1
290
0
176
1
 90
50
176
1
 90
50
176
1
 90
50
176
1
290
0
176
1
 90
50
176
1
 62
0
176
0
 40
1.0
176
0
 90
2
176
1
  1
strokes_ogs.tif
176
1
290
0
176
1
 40
1.0
176
1
 40
1.0
176
1
  0
VISUALSTYLE
  5
62
102
{ACAD_REACTORS
330
16
102
}
330
16
100
AcDbVisualStyle
  2
Flat
 70
0
177
2
291
1
 70
58
 90
2
176
1
 90
2
176
1
 90
0
176
1
 90
2
176
1
 40
0.6
176
1
 40
30.0
176
1
 62
7
420
3271557119
176
1
 90
1
176
1
 90
4
176
1
 62
7
176
1
 62
257
176
1
 90
1
176
1
 90
1
176
1
 40
1.0
176
1
 90
8
176
1
 62
7
176
1
 40
1.0
176
1
 90
1
176
1
 90
6
176
1
 90
2
176
1
 62
7
176
1
 90
5
176
1
 90
0
176
1
 90
0
176
1
290
0
176
1
 90
1
176
1
 40
0.0
176
1
 90
0
176
1
290
0
176
1
290
1
176
1
290
1
176
1
290
0
290
0
176
1
290
0
290
0
176
1
290
0
176
1
290
0
176
1
 90
50
176
1
 40
0.0
176
1
 40
1.0
176
1
 90
0
176
1
 62
18
176
1
 90
50
176
1
 90
3
176
1
 62
5
420
3254780159
176
1
290
0
176
1
 90
50
176
1
 90
50
176
1
 90
50
176
1
290
0
176
1
 90
50
176
1
 62
0
176
0
 40
1.0
176
0
 90
2
176
1
  1
strokes_ogs.tif
176
1
290
0
176
1
 40
1.0
176
1
 40
1.0
176
1
  0
VISUALSTYLE
  5
63
102
{ACAD_REACTORS
330
16
102
}
330
16
100
AcDbVisualStyle
  2
FlatWithEdges
 70
1
177
2
291
1
 70
58
 90
2
176
1
 90
2
176
1
 90
0
176
1
 90
2
176
1
 40
0.6
176
1
 40
30.0
176
1
 62
7
420
3271557119
176
1
 90
1
176
1
 90
4
176
1
 62
7
176
1
 62
257
176
1
 90
1
176
1
 90
1
176
1
 40
1.0
176
1
 90
8
176
1
 62
7
176
1
 40
1.0
176
1
 90
1
176
1
 90
6
176
1
 90
2
176
1
 62
7
176
1
 90
5
176
1
 90
0
176
1
 90
0
176
1
290
0
176
1
 90
1
176
1
 40
0.0
176
1
 90
0
176
1
290
0
176
1
290
1
176
1
290
1
176
1
290
0
290
0
176
1
290
0
290
0
176
1
290
0
176
1
290
0
176
1
 90
50
176
1
 40
0.0
176
1
 40
1.0
176
1
 90
0
176
1
 62
18
176
1
 90
50
176
1
 90
3
176
1
 62
5
420
3254780159
176
1
290
0
176
1
 90
50
176
1
 90
50
176
1
 90
50
176
1
290
0
176
1
 90
50
176
1
 62
0
176
0
 40
1.0
176
0
 90
2
176
1
  1
strokes_ogs.tif
176
1
290
0
176
1
 40
1.0
176
1
 40
1.0
176
1
  0
VISUALSTYLE
  5
64
102
{ACAD_REACTORS
330
16
102
}
330
16
100
AcDbVisualStyle
  2
Gouraud
 70
2
177
2
291
1
 70
58
 90
2
176
1
 90
2
176
1
 90
0
176
1
 90
2
176
1
 40
0.6
176
1
 40
30.0
176
1
 62
7
420
3271557119
176
1
 90
1
176
1
 90
4
176
1
 62
7
176
1
 62
257
176
1
 90
1
176
1
 90
1
176
1
 40
1.0
176
1
 90
8
176
1
 62
7
176
1
 40
1.0
176
1
 90
1
176
1
 90
6
176
1
 90
2
176
1
 62
7
176
1
 90
5
176
1
 90
0
176
1
 90
0
176
1
290
0
176
1
 90
1
176
1
 40
0.0
176
1
 90
0
176
1
290
0
176
1
290
1
176
1
290
1
176
1
290
0
290
0
176
1
290
0
290
0
176
1
290
0
176
1
290
0
176
1
 90
50
176
1
 40
0.0
176
1
 40
1.0
176
1
 90
0
176
1
 62
18
176
1
 90
50
176
1
 90
3
176
1
 62
5
420
3254780159
176
1
290
0
176
1
 90
50
176
1
 90
50
176
1
 90
50
176
1
290
0
176
1
 90
50
176
1
 62
0
176
0
 40
1.0
176
0
 90
2
176
1
  1
strokes_ogs.tif
176
1
290
0
176
1
 40
1.0
176
1
 40
1.0
176
1
  0
VISUALSTYLE
  5
65
102
{ACAD_REACTORS
330
16
102
}
330
16
100
AcDbVisualStyle
  2
GouraudWithEdges
 70
3
177
2
291
1
 70
58
 90
2
176
1
 90
2
176
1
 90
0
176
1
 90
2
176
1
 40
0.6
176
1
 40
30.0
176
1
 62
7
420
3271557119
176
1
 90
1
176
1
 90
4
176
1
 62
7
176
1
 62
257
176
1
 90
1
176
1
 90
1
176
1
 40
1.0
176
1
 90
8
176
1
 62
7
176
1
 40
1.0
176
1
 90
1
176
1
 90
6
176
1
 90
2
176
1
 62
7
176
1
 90
5
176
1
 90
0
176
1
 90
0
176
1
290
0
176
1
 90
1
176
1
 40
0.0
176
1
 90
0
176
1
290
0
176
1
290
1
176
1
290
1
176
1
290
0
290
0
176
1
290
0
290
0
176
1
290
0
176
1
290
0
176
1
 90
50
176
1
 40
0.0
176
1
 40
1.0
176
1
 90
0
176
1
 62
18
176
1
 90
50
176
1
 90
3
176
1
 62
5
420
3254780159
176
1
290
0
176
1
 90
50
176
1
 90
50
176
1
 90
50
176
1
290
0
176
1
 90
50
176
1
 62
0
176
0
 40
1.0
176
0
 90
2
176
1
  1
strokes_ogs.tif
176
1
290
0
176
1
 40
1.0
176
1
 40
1.0
176
1
  0
VISUALSTYLE
  5
66
102
{ACAD_REACTORS
330
16
102
}
330
16
100
AcDbVisualStyle
  2
Hidden
 70
6
177
2
291
0
 70
58
 90
2
176
1
 90
2
176
1
 90
0
176
1
 90
1
176
1
 40
0.6
176
1
 40
30.0
176
1
 62
7
420
3271557119
176
1
 90
1
176
1
 90
4
176
1
 62
7
176
1
 62
257
176
1
 90
1
176
1
 90
1
176
1
 40
1.0
176
1
 90
8
176
1
 62
7
176
1
 40
1.0
176
1
 90
1
176
1
 90
6
176
1
 90
2
176
1
 62
7
176
1
 90
5
176
1
 90
0
176
1
 90
0
176
1
290
0
176
1
 90
1
176
1
 40
0.0
176
1
 90
0
176
1
290
0
176
1
290
1
176
1
290
1
176
1
290
0
290
0
176
1
290
0
290
0
176
1
290
0
176
1
290
0
176
1
 90
50
176
1
 40
0.0
176
1
 40
1.0
176
1
 90
0
176
1
 62
18
176
1
 90
50
176
1
 90
3
176
1
 62
5
420
3254780159
176
1
290
0
176
1
 90
50
176
1
 90
50
176
1
 90
50
176
1
290
0
176
1
 90
50
176
1
 62
0
176
0
 40
1.0
176
0
 90
2
176
1
  1
strokes_ogs.tif
176
1
290
0
176
1
 40
1.0
176
1
 40
1.0
176
1
  0
VISUALSTYLE
  5
67
102
{ACAD_REACTORS
330
16
102
}
330
16
100
AcDbVisualStyle
  2
JitterOff
 70
20
177
2
291
1
 70
58
 90
2
176
1
 90
2
176
1
 90
0
176
1
 90
2
176
1
 40
0.6
176
1
 40
30.0
176
1
 62
7
420
3271557119
176
1
 90
1
176
1
 90
4
176
1
 62
7
176
1
 62
257
176
1
 90
1
176
1
 90
1
176
1
 40
1.0
176
1
 90
8
176
1
 62
7
176
1
 40
1.0
176
1
 90
1
176
1
 90
6
176
1
 90
2
176
1
 62
7
176
1
 90
5
176
1
 90
0
176
1
 90
0
176
1
290
0
176
1
 90
1
176
1
 40
0.0
176
1
 90
0
176
1
290
0
176
1
290
1
176
1
290
1
176
1
290
0
290
0
176
1
290
0
290
0
176
1
290
0
176
1
290
0
176
1
 90
50
176
1
 40
0.0
176
1
 40
1.0
176
1
 90
0
176
1
 62
18
176
1
 90
50
176
1
 90
3
176
1
 62
5
420
3254780159
176
1
290
0
176
1
 90
50
176
1
 90
50
176
1
 90
50
176
1
290
0
176
1
 90
50
176
1
 62
0
176
0
 40
1.0
176
0
 90
2
176
1
  1
strokes_ogs.tif
176
1
290
0
176
1
 40
1.0
176
1
 40
1.0
176
1
  0
VISUALSTYLE
  5
68
102
{ACAD_REACTORS
330
16
102
}
330
16
100
AcDbVisualStyle
  2
Linepattern
 70
14
177
2
291
1
 70
58
 90
2
176
1
 90
2
176
1
 90
0
176
1
 90
2
176
1
 40
0.6
176
1
 40
30.0
176
1
 62
7
420
3271557119
176
1
 90
1
176
1
 90
4
176
1
 62
7
176
1
 62
257
176
1
 90
1
176
1
 90
1
176
1
 40
1.0
176
1
 90
8
176
1
 62
7
176
1
 40
1.0
176
1
 90
1
176
1
 90
6
176
1
 90
2
176
1
 62
7
176
1
 90
5
176
1
 90
0
176
1
 90
0
176
1
290
0
176
1
 90
1
176
1
 40
0.0
176
1
 90
0
176
1
290
0
176
1
290
1
176
1
290
1
176
1
290
0
290
0
176
1
290
0
290
0
176
1
290
0
176
1
290
0
176
1
 90
50
176
1
 40
0.0
176
1
 40
1.0
176
1
 90
0
176
1
 62
18
176
1
 90
50
176
1
 90
3
176
1
 62
5
420
3254780159
176
1
290
0
176
1
 90
50
176
1
 90
50
176
1
 90
50
176
1
290
0
176
1
 90
50
176
1
 62
0
176
0
 40
1.0
176
0
 90
2
176
1
  1
strokes_ogs.tif
176
1
290
0
176
1
 40
1.0
176
1
 40
1.0
176
1
  0
VISUALSTYLE
  5
69
102
{ACAD_REACTORS
330
16
102
}
330
16
100
AcDbVisualStyle
  2
Modeling
 70
10
177
2
291
0
 70
58
 90
2
176
1
 90
2
176
1
 90
0
176
1
 90
2
176
1
 40
0.6
176
1
 40
30.0
176
1
 62
7
420
3271557119
176
1
 90
1
176
1
 90
4
176
1
 62
7
176
1
 62
257
176
1
 90
1
176
1
 90
1
176
1
 40
1.0
176
1
 90
8
176
1
 62
7
176
1
 40
1.0
176
1
 90
1
176
1
 90
6
176
1
 90
2
176
1
 62
7
176
1
 90
5
176
1
 90
0
176
1
 90
0
176
1
290
0
176
1
 90
1
176
1
 40
0.0
176
1
 90
0
176
1
290
0
176
1
290
1
176
1
290
1
176
1
290
0
290
0
176
1
290
0
290
0
176
1
290
0
176
1
290
0
176
1
 90
50
176
1
 40
0.0
176
1
 40
1.0
176
1
 90
0
176
1
 62
18
176
1
 90
50
176
1
 90
3
176
1
 62
5
420
3254780159
176
1
290
0
176
1
 90
50
176
1
 90
50
176
1
 90
50
176
1
290
0
176
1
 90
50
176
1
 62
0
176
0
 40
1.0
176
0
 90
2
176
1
  1
strokes_ogs.tif
176
1
290
0
176
1
 40
1.0
176
1
 40
1.0
176
1
  0
VISUALSTYLE
  5
6A
102
{ACAD_REACTORS
330
16
102
}
330
16
100
AcDbVisualStyle
  2
OverhangOff
 70
21
177
2
291
1
 70
58
 90
2
176
1
 90
2
176
1
 90
0
176
1
 90
2
176
1
 40
0.6
176
1
 40
30.0
176
1
 62
7
420
3271557119
176
1
 90
1
176
1
 90
4
176
1
 62
7
176
1
 62
257
176
1
 90
1
176
1
 90
1
176
1
 40
1.0
176
1
 90
8
176
1
 62
7
176
1
 40
1.0
176
1
 90
1
176
1
 90
6
176
1
 90
2
176
1
 62
7
176
1
 90
5
176
1
 90
0
176
1
 90
0
176
1
290
0
176
1
 90
1
176
1
 40
0.0
176
1
 90
0
176
1
290
0
176
1
290
1
176
1
290
1
176
1
290
0
290
0
176
1
290
0
290
0
176
1
290
0
176
1
290
0
176
1
 90
50
176
1
 40
0.0
176
1
 40
1.0
176
1
 90
0
176
1
 62
18
176
1
 90
50
176
1
 90
3
176
1
 62
5
420
3254780159
176
1
290
0
176
1
 90
50
176
1
 90
50
176
1
 90
50
176
1
290
0
176
1
 90
50
176
1
 62
0
176
0
 40
1.0
176
0
 90
2
176
1
  1
strokes_ogs.tif
176
1
290
0
176
1
 40
1.0
176
1
 40
1.0
176
1
  0
VISUALSTYLE
  5
6B
102
{ACAD_REACTORS
330
16
102
}
330
16
100
AcDbVisualStyle
  2
Realistic
 70
8
177
2
291
0
 70
58
 90
2
176
1
 90
2
176
1
 90
0
176
1
 90
2
176
1
 40
0.6
176
1
 40
30.0
176
1
 62
7
420
3271557119
176
1
 90
1
176
1
 90
4
176
1
 62
7
176
1
 62
257
176
1
 90
1
176
1
 90
1
176
1
 40
1.0
176
1
 90
8
176
1
 62
7
176
1
 40
1.0
176
1
 90
1
176
1
 90
6
176
1
 90
2
176
1
 62
7
176
1
 90
5
176
1
 90
0
176
1
 90
0
176
1
290
0
176
1
 90
1
176
1
 40
0.0
176
1
 90
0
176
1
290
0
176
1
290
1
176
1
290
1
176
1
290
0
290
0
176
1
290
0
290
0
176
1
290
0
176
1
290
0
176
1
 90
50
176
1
 40
0.0
176
1
 40
1.0
176
1
 90
0
176
1
 62
18
176
1
 90
50
176
1
 90
3
176
1
 62
5
420
3254780159
176
1
290
0
176
1
 90
50
176
1
 90
50
176
1
 90
50
176
1
290
0
176
1
 90
50
176
1
 62
0
176
0
 40
1.0
176
0
 90
2
176
1
  1
strokes_ogs.tif
176
1
290
0
176
1
 40
1.0
176
1
 40
1.0
176
1
  0
VISUALSTYLE
  5
6C
102
{ACAD_REACTORS
330
16
102
}
330
16
100
AcDbVisualStyle
  2
Shaded
 70
27
177
2
291
0
 70
58
 90
2
176
1
 90
2
176
1
 90
0
176
1
 90
2
176
1
 40
0.6
176
1
 40
30.0
176
1
 62
7
420
3271557119
176
1
 90
1
176
1
 90
4
176
1
 62
7
176
1
 62
257
176
1
 90
1
176
1
 90
1
176
1
 40
1.0
176
1
 90
8
176
1
 62
7
176
1
 40
1.0
176
1
 90
1
176
1
 90
6
176
1
 90
2
176
1
 62
7
176
1
 90
5
176
1
 90
0
176
1
 90
0
176
1
290
0
176
1
 90
1
176
1
 40
0.0
176
1
 90
0
176
1
290
0
176
1
290
1
176
1
290
1
176
1
290
0
290
0
176
1
290
0
290
0
176
1
290
0
176
1
290
0
176
1
 90
50
176
1
 40
0.0
176
1
 40
1.0
176
1
 90
0
176
1
 62
18
176
1
 90
50
176
1
 90
3
176
1
 62
5
420
3254780159
176
1
290
0
176
1
 90
50
176
1
 90
50
176
1
 90
50
176
1
290
0
176
1
 90
50
176
1
 62
0
176
0
 40
1.0
176
0
 90
2
176
1
  1
strokes_ogs.tif
176
1
290
0
176
1
 40
1.0
176
1
 40
1.0
176
1
  0
VISUALSTYLE
  5
6D
102
{ACAD_REACTORS
330
16
102
}
330
16
100
AcDbVisualStyle
  2
Shaded with edges
 70
26
177
2
291
0
 70
58
 90
2
176
1
 90
2
176
1
 90
0
176
1
 90
2
176
1
 40
0.6
176
1
 40
30.0
176
1
 62
7
420
3271557119
176
1
 90
1
176
1
 90
4
176
1
 62
7
176
1
 62
257
176
1
 90
1
176
1
 90
1
176
1
 40
1.0
176
1
 90
8
176
1
 62
7
176
1
 40
1.0
176
1
 90
1
176
1
 90
6
176
1
 90
2
176
1
 62
7
176
1
 90
5
176
1
 90
0
176
1
 90
0
176
1
290
0
176
1
 90
1
176
1
 40
0.0
176
1
 90
0
176
1
290
0
176
1
290
1
176
1
290
1
176
1
290
0
290
0
176
1
290
0
290
0
176
1
290
0
176
1
290
0
176
1
 90
50
176
1
 40
0.0
176
1
 40
1.0
176
1
 90
0
176
1
 62
18
176
1
 90
50
176
1
 90
3
176
1
 62
5
420
3254780159
176
1
290
0
176
1
 90
50
176
1
 90
50
176
1
 90
50
176
1
290
0
176
1
 90
50
176
1
 62
0
176
0
 40
1.0
176
0
 90
2
176
1
  1
strokes_ogs.tif
176
1
290
0
176
1
 40
1.0
176
1
 40
1.0
176
1
  0
VISUALSTYLE
  5
6E
102
{ACAD_REACTORS
330
16
102
}
330
16
100
AcDbVisualStyle
  2
Shades of Gray
 70
23
177
2
291
0
 70
58
 90
2
176
1
 90
2
176
1
 90
0
176
1
 90
2
176
1
 40
0.6
176
1
 40
30.0
176
1
 62
7
420
3271557119
176
1
 90
1
176
1
 90
4
176
1
 62
7
176
1
 62
257
176
1
 90
1
176
1
 90
1
176
1
 40
1.0
176
1
 90
8
176
1
 62
7
176
1
 40
1.0
176
1
 90
1
176
1
 90
6
176
1
 90
2
176
1
 62
7
176
1
 90
5
176
1
 90
0
176
1
 90
0
176
1
290
0
176
1
 90
1
176
1
 40
0.0
176
1
 90
0
176
1
290
0
176
1
290
1
176
1
290
1
176
1
290
0
290
0
176
1
290
0
290
0
176
1
290
0
176
1
290
0
176
1
 90
50
176
1
 40
0.0
176
1
 40
1.0
176
1
 90
0
176
1
 62
18
176
1
 90
50
176
1
 90
3
176
1
 62
5
420
3254780159
176
1
290
0
176
1
 90
50
176
1
 90
50
176
1
 90
50
176
1
290
0
176
1
 90
50
176
1
 62
0
176
0
 40
1.0
176
0
 90
2
176
1
  1
strokes_ogs.tif
176
1
290
0
176
1
 40
1.0
176
1
 40
1.0
176
1
  0
VISUALSTYLE
  5
6F
102
{ACAD_REACTORS
330
16
102
}
330
16
100
AcDbVisualStyle
  2
Sketchy
 70
24
177
2
291
0
 70
58
 90
2
176
1
 90
2
176
1
 90
0
176
1
 90
1
176
1
 40
0.6
176
1
 40
30.0
176
1
 62
7
420
3271557119
176
1
 90
1
176
1
 90
4
176
1
 62
7
176
1
 62
257
176
1
 90
1
176
1
 90
1
176
1
 40
1.0
176
1
 90
8
176
1
 62
7
176
1
 40
1.0
176
1
 90
1
176
1
 90
6
176
1
 90
2
176
1
 62
7
176
1
 90
5
176
1
 90
0
176
1
 90
0
176
1
290
0
176
1
 90
1
176
1
 40
0.0
176
1
 90
0
176
1
290
0
176
1
290
1
176
1
290
1
176
1
290
0
290
0
176
1
290
0
290
0
176
1
290
0
176
1
290
0
176
1
 90
50
176
1
 40
0.0
176
1
 40
1.0
176
1
 90
0
176
1
 62
18
176
1
 90
50
176
1
 90
3
176
1
 62
5
420
3254780159
176
1
290
0
176
1
 90
50
176
1
 90
50
176
1
 90
50
176
1
290
0
176
1
 90
50
176
1
 62
0
176
0
 40
1.0
176
0
 90
2
176
1
  1
strokes_ogs.tif
176
1
290
0
176
1
 40
1.0
176
1
 40
1.0
176
1
  0
VISUALSTYLE
  5
70
102
{ACAD_REACTORS
330
16
102
}
330
16
100
AcDbVisualStyle
  2
Thicken
 70
13
177
2
291
1
 70
58
 90
2
176
1
 90
2
176
1
 90
0
176
1
 90
2
176
1
 40
0.6
176
1
 40
30.0
176
1
 62
7
420
3271557119
176
1
 90
1
176
1
 90
4
176
1
 62
7
176
1
 62
257
176
1
 90
1
176
1
 90
1
176
1
 40
1.0
176
1
 90
8
176
1
 62
7
176
1
 40
1.0
176
1
 90
1
176
1
 90
6
176
1
 90
2
176
1
 62
7
176
1
 90
5
176
1
 90
0
176
1
 90
0
176
1
290
0
176
1
 90
1
176
1
 40
0.0
176
1
 90
0
176
1
290
0
176
1
290
1
176
1
290
1
176
1
290
0
290
0
176
1
290
0
290
0
176
1
290
0
176
1
290
0
176
1
 90
50
176
1
 40
0.0
176
1
 40
1.0
176
1
 90
0
176
1
 62
18
176
1
 90
50
176
1
 90
3
176
1
 62
5
420
3254780159
176
1
290
0
176
1
 90
50
176
1
 90
50
176
1
 90
50
176
1
290
0
176
1
 90
50
176
1
 62
0
176
0
 40
1.0
176
0
 90
2
176
1
  1
strokes_ogs.tif
176
1
290
0
176
1
 40
1.0
176
1
 40
1.0
176
1
  0
VISUALSTYLE
  5
71
102
{ACAD_REACTORS
330
16
102
}
330
16
100
AcDbVisualStyle
  2
Wireframe
 70
5
177
2
291
0
 70
58
 90
2
176
1
 90
2
176
1
 90
0
176
1
 90
0
176
1
 40
0.6
176
1
 40
30.0
176
1
 62
7
420
3271557119
176
1
 90
1
176
1
 90
4
176
1
 62
7
176
1
 62
257
176
1
 90
1
176
1
 90
1
176
1
 40
1.0
176
1
 90
8
176
1
 62
7
176
1
 40
1.0
176
1
 90
1
176
1
 90
6
176
1
 90
2
176
1
 62
7
176
1
 90
5
176
1
 90
0
176
1
 90
0
176
1
290
0
176
1
 90
1
176
1
 40
0.0
176
1
 90
0
176
1
290
0
176
1
290
1
176
1
290
1
176
1
290
0
290
0
176
1
290
0
290
0
176
1
290
0
176
1
290
0
176
1
 90
50
176
1
 40
0.0
176
1
 40
1.0
176
1
 90
0
176
1
 62
18
176
1
 90
50
176
1
 90
3
176
1
 62
5
420
3254780159
176
1
290
0
176
1
 90
50
176
1
 90
50
176
1
 90
50
176
1
290
0
176
1
 90
50
176
1
 62
0
176
0
 40
1.0
176
0
 90
2
176
1
  1
strokes_ogs.tif
176
1
290
0
176
1
 40
1.0
176
1
 40
1.0
176
1
  0
VISUALSTYLE
  5
72
102
{ACAD_REACTORS
330
16
102
}
330
16
100
AcDbVisualStyle
  2
X-Ray
 70
25
177
2
291
0
 70
58
 90
2
176
1
 90
2
176
1
 90
0
176
1
 90
2
176
1
 40
0.5
176
1
 40
30.0
176
1
 62
7
420
3271557119
176
1
 90
1
176
1
 90
4
176
1
 62
7
176
1
 62
257
176
1
 90
1
176
1
 90
1
176
1
 40
1.0
176
1
 90
8
176
1
 62
7
176
1
 40
1.0
176
1
 90
1
176
1
 90
6
176
1
 90
2
176
1
 62
7
176
1
 90
5
176
1
 90
0
176
1
 90
0
176
1
290
0
176
1
 90
1
176
1
 40
0.0
176
1
 90
0
176
1
290
0
176
1
290
1
176
1
290
1
176
1
290
0
290
0
176
1
290
0
290
0
176
1
290
0
176
1
290
0
176
1
 90
50
176
1
 40
0.0
176
1
 40
1.0
176
1
 90
0
176
1
 62
18
176
1
 90
50
176
1
 90
3
176
1
 62
5
420
3254780159
176
1
290
0
176
1
 90
50
176
1
 90
50
176
1
 90
50
176
1
290
0
176
1
 90
50
176
1
 62
0
176
0
 40
1.0
176
0
 90
2
176
1
  1
strokes_ogs.tif
176
1
290
0
176
1
 40
1.0
176
1
 40
1.0
176
1
  0
DICTIONARYVAR
  5
36B
330
2D
100
DictionaryVariables
280
0
  1
1.4.4 @ 2026-10-05T15:23:38.657372+00:00
  0
TABLESTYLE
  5
36F
102
{ACAD_REACTORS
330
15
102
}
330
15
100
AcDbTableStyle
 70
0
  3
Standard
  1
TABLEFORMAT_BEGIN
 90
5
170
1
 91
0
 92
0
 62
257
 93
1
300
CONTENTFORMAT
  1
CONTENTFORMAT_BEGIN
 90
0
 91
0
 92
512
 93
0
300

 40
0.0
140
1.0
 94
1
 62
0
340
0
144
4.5
309
CONTENTFORMAT_END
171
1
301
MARGIN
  1
CELLMARGIN_BEGIN
 40
1.5
 40
1.5
 40
1.5
 40
1.5
 40
4.5
 40
4.5
309
CELLMARGIN_END
 94
6
 95
1
302
GRIDFORMAT
  1
GRIDFORMAT_BEGIN
 90
0
 91
1
 62
0
 92
-2
340
0
 93
0
 40
1.125
309
GRIDFORMAT_END
 95
2
302
GRIDFORMAT
  1
GRIDFORMAT_BEGIN
 90
0
 91
1
 62
0
 92
-2
340
0
 93
0
 40
1.125
309
GRIDFORMAT_END
 95
4
302
GRIDFORMAT
  1
GRIDFORMAT_BEGIN
 90
0
 91
1
 62
0
 92
-2
340
0
 93
0
 40
1.125
309
GRIDFORMAT_END
 95
8
302
GRIDFORMAT
  1
GRIDFORMAT_BEGIN
 90
0
 91
1
 62
0
 92
-2
340
0
 93
0
 40
1.125
309
GRIDFORMAT_END
 95
16
302
GRIDFORMAT
  1
GRIDFORMAT_BEGIN
 90
0
 91
1
 62
0
 92
-2
340
0
 93
0
 40
1.125
309
GRIDFORMAT_END
 95
32
302
GRIDFORMAT
  1
GRIDFORMAT_BEGIN
 90
0
 91
1
 62
0
 92
-2
340
0
 93
0
 40
1.125
309
GRIDFORMAT_END
309
TABLEFORMAT_END
  1
CELLSTYLE_BEGIN
 90
4
 91
2
300
Table
309
CELLSTYLE_END
  1
TABLEFORMAT_BEGIN
 90
5
170
1
 91
0
 92
32768
 62
257
 93
1
300
CONTENTFORMAT
  1
CONTENTFORMAT_BEGIN
 90
0
 91
0
 92
512
 93
0
300

 40
0.0
140
1.0
 94
5
 62
0
340
29
144
6.0
309
CONTENTFORMAT_END
171
1
301
MARGIN
  1
CELLMARGIN_BEGIN
 40
1.5
 40
1.5
 40
1.5
 40
1.5
 40
4.5
 40
4.5
309
CELLMARGIN_END
 94
6
 95
1
302
GRIDFORMAT
  1
GRIDFORMAT_BEGIN
 90
0
 91
1
 62
0
 92
-2
340
0
 93
0
 40
1.125
309
GRIDFORMAT_END
 95
2
302
GRIDFORMAT
  1
GRIDFORMAT_BEGIN
 90
0
 91
1
 62
0
 92
-2
340
0
 93
0
 40
1.125
309
GRIDFORMAT_END
 95
4
302
GRIDFORMAT
  1
GRIDFORMAT_BEGIN
 90
0
 91
1
 62
0
 92
-2
340
0
 93
0
 40
1.125
309
GRIDFORMAT_END
 95
8
302
GRIDFORMAT
  1
GRIDFORMAT_BEGIN
 90
0
 91
1
 62
0
 92
-2
340
0
 93
0
 40
1.125
309
GRIDFORMAT_END
 95
16
302
GRIDFORMAT
  1
GRIDFORMAT_BEGIN
 90
0
 91
1
 62
0
 92
-2
340
0
 93
0
 40
1.125
309
GRIDFORMAT_END
 95
32
302
GRIDFORMAT
  1
GRIDFORMAT_BEGIN
 90
0
 91
1
 62
0
 92
-2
340
0
 93
0
 40
1.125
309
GRIDFORMAT_END
309
TABLEFORMAT_END
  1
CELLSTYLE_BEGIN
 90
1
 91
1
300
_TITLE
309
CELLSTYLE_END
  0
SCALE
  5
370
102
{ACAD_REACTORS
330
14
102
}
330
14
100
AcDbScale
 70
0
300
1:1
140
1.0
141
1.0
290
1
  0
SCALE
  5
371
102
{ACAD_REACTORS
330
14
102
}
330
14
100
AcDbScale
 70
0
300
1:2
140
1.0
141
2.0
290
0
  0
SCALE
  5
372
102
{ACAD_REACTORS
330
14
102
}
330
14
100
AcDbScale
 70
0
300
1:4
140
1.0
141
4.0
290
0
  0
SCALE
  5
373
102
{ACAD_REACTORS
330
14
102
}
330
14
100
AcDbScale
 70
0
300
1:5
140
1.0
141
5.0
290
0
  0
SCALE
  5
374
102
{ACAD_REACTORS
330
14
102
}
330
14
100
AcDbScale
 70
0
300
1:8
140
1.0
141
8.0
290
0
  0
SCALE
  5
375
102
{ACAD_REACTORS
330
14
102
}
330
14
100
AcDbScale
 70
0
300
1:10
140
1.0
141
10.0
290
0
  0
SCALE
  5
376
102
{ACAD_REACTORS
330
14
102
}
330
14
100
AcDbScale
 70
0
300
1:16
140
1.0
141
16.0
290
0
  0
SCALE
  5
377
102
{ACAD_REACTORS
330
14
102
}
330
14
100
AcDbScale
 70
0
300
1:20
140
1.0
141
20.0
290
0
  0
SCALE
  5
378
102
{ACAD_REACTORS
330
14
102
}
330
14
100
AcDbScale
 70
0
300
1:30
140
1.0
141
30.0
290
0
  0
SCALE
  5
379
102
{ACAD_REACTORS
330
14
102
}
330
14
100
AcDbScale
 70
0
300
1:40
140
1.0
141
40.0
290
0
  0
SCALE
  5
37A
102
{ACAD_REACTORS
330
14
102
}
330
14
100
AcDbScale
 70
0
300
1:50
140
1.0
141
50.0
290
0
  0
SCALE
  5
37B
102
{ACAD_REACTORS
330
14
102
}
330
14
100
AcDbScale
 70
0
300
1:100
140
1.0
141
100.0
290
0
  0
SCALE
  5
37C
102
{ACAD_REACTORS
330
14
102
}
330
14
100
AcDbScale
 70
0
300
2:1
140
2.0
141
1.0
290
0
  0
SCALE
  5
37D
102
{ACAD_REACTORS
330
14
102
}
330
14
100
AcDbScale
 70
0
300
4:1
140
4.0
141
1.0
290
0
  0
SCALE
  5
37E
102
{ACAD_REACTORS
330
14
102
}
330
14
100
AcDbScale
 70
0
300
8:1
140
8.0
141
1.0
290
0
  0
SCALE
  5
37F
102
{ACAD_REACTORS
330
14
102
}
330
14
100
AcDbScale
 70
0
300
10:1
140
10.0
141
1.0
290
0
  0
SCALE
  5
380
102
{ACAD_REACTORS
330
14
102
}
330
14
100
AcDbScale
 70
0
300
100:1
140
100.0
141
1.0
290
0
  0
DICTIONARY
  5
381
102
{ACAD_REACTORS
330
A
102
}
330
A
100
AcDbDictionary
281
1
  3
Metric50
350
382
  0
ACDBSECTIONVIEWSTYLE
  5
382
102
{ACAD_REACTORS
330
381
102
}
330
381
100
AcDbModelDocViewStyle
 70
0
  3
Metric50
290
0
300
Metric50
 90
0
100
AcDbSectionViewStyle
 70
0
 71
0
 90
102
 71
1
340
29
 62
0
 40
5.0
340
0
340
0
 62
0
 40
5.0
300
I, O, Q, S, X, Z
 40
10.0
 90
0
 40
2.5
 90
0
 71
2
340
26
 90
25
 62
0
340
26
 90
50
 62
0
 40
5.0
 40
2.5
 40
5.0
 71
3
340
29
 62
0
 40
5.0
 90
0
 40
15.0
 90
1
300
%<\AcVar ViewSectionStartId>%-%<\AcVar ViewSectionEndId>% (%<\AcVar ViewScale \f "%sn">%)
 71
4
 62
0
 62
257
300
ANSI31
 40
1.0
 90
0
290
0
290
0
 90
6
 40
0.0
 40
1.570796326794897
 40
0.2617993877991494
 40
1.308996938995747
 40
-0.2617993877991494
 40
1.832595714594046
  0
DICTIONARY
  5
383
102
{ACAD_REACTORS
330
A
102
}
330
A
100
AcDbDictionary
281
1
  3
Metric50
350
384
  0
ACDBDETAILVIEWSTYLE
  5
384
102
{ACAD_REACTORS
330
383
102
}
330
383
100
AcDbModelDocViewStyle
 70
0
  3
Metric50
290
0
300
Metric50
 90
0
100
AcDbDetailViewStyle
 70
0
 71
0
 90
3
 71
1
340
29
 62
0
 40
5.0
340
0
 62
0
 40
5.0
300

 40
0.0
280
1
 71
2
340
26
 90
25
 62
0
 71
3
340
29
 62
0
 40
5.0
 90
0
 40
15.0
 90
1
300
%<\AcVar ViewDetailId>% (%<\AcVar ViewScale \f "%sn">%)
 71
4
340
26
 90
25
 62
0
340
26
 90
25
 62
0
280
0
  0
XRECORD
  5
391
102
{ACAD_REACTORS
330
A
102
}
330
A
100
AcDbXrecord
280
1
300
ACDLT
300
2026
300

  0
XRECORD
  5
392
102
{ACAD_REACTORS
330
A
102
}
330
A
100
AcDbXrecord
280
1
300
{BE4D2973-23E5-8F45-BA8C-421A7E14F319}
301
{72472318-F2BA-8A4A-9F6F-C3F4739C5073}
302
{BE4D2973-23E5-8F45-BA8C-421A7E14F319}
303
C:\Users\msemblantes\Downloads\correccion E-10_CUADRO_COLUMNAS_VIGAS.dwg
  0
DICTIONARY
  5
394
102
{ACAD_REACTORS
330
A
102
}
330
A
100
AcDbDictionary
281
1
  3
CANNOSCALE
350
399
  3
CMLEADERSTYLE
350
396
  3
CTABLESTYLE
350
395
  3
CVIEWDETAILSTYLE
350
397
  3
CVIEWSECTIONSTYLE
350
398
  0
DICTIONARYVAR
  5
395
102
{ACAD_REACTORS
330
394
102
}
330
394
100
DictionaryVariables
280
0
  1
STANDARD
  0
DICTIONARYVAR
  5
396
102
{ACAD_REACTORS
330
394
102
}
330
394
100
DictionaryVariables
280
0
  1
STANDARD
  0
DICTIONARYVAR
  5
397
102
{ACAD_REACTORS
330
394
102
}
330
394
100
DictionaryVariables
280
0
  1
Metric50
  0
DICTIONARYVAR
  5
398
102
{ACAD_REACTORS
330
394
102
}
330
394
100
DictionaryVariables
280
0
  1
Metric50
  0
DICTIONARYVAR
  5
399
102
{ACAD_REACTORS
330
394
102
}
330
394
100
DictionaryVariables
280
0
  1
1:1
  0
MATERIAL
  5
39C
102
{ACAD_REACTORS
330
E
102
}
330
E
100
AcDbMaterial
  1
ByBlock
  2

 70
0
 40
1.0
 71
1
 41
1.0
 91
-1023410177
 42
1.0
 72
1
  3

 73
1
 74
1
 75
1
 44
0.5
 73
0
 45
1.0
 46
1.0
 77
1
  4

 78
1
 79
1
170
1
 48
1.0
171
1
  6

172
1
173
1
174
1
140
1.0
141
1.0
175
1
  7

176
1
177
1
178
1
143
1.0
179
1
  8

270
1
271
1
272
1
145
1.0
146
1.0
273
1
  9

274
1
275
1
276
1
 42
1.0
 72
1
  3

 73
1
 74
1
 75
1
 94
63
  0
MATERIAL
  5
39D
102
{ACAD_REACTORS
330
E
102
}
330
E
100
AcDbMaterial
  1
ByLayer
  2

 70
0
 40
1.0
 71
1
 41
1.0
 91
-1023410177
 42
1.0
 72
1
  3

 73
1
 74
1
 75
1
 44
0.5
 73
0
 45
1.0
 46
1.0
 77
1
  4

 78
1
 79
1
170
1
 48
1.0
171
1
  6

172
1
173
1
174
1
140
1.0
141
1.0
175
1
  7

176
1
177
1
178
1
143
1.0
179
1
  8

270
1
271
1
272
1
145
1.0
146
1.0
273
1
  9

274
1
275
1
276
1
 42
1.0
 72
1
  3

 73
1
 74
1
 75
1
 94
63
  0
MATERIAL
  5
39E
102
{ACAD_REACTORS
330
E
102
}
330
E
100
AcDbMaterial
  1
Global
  2

 70
0
 40
1.0
 71
1
 41
1.0
 91
-1023410177
 42
1.0
 72
1
  3

 73
1
 74
1
 75
1
 44
0.5
 73
0
 45
1.0
 46
1.0
 77
1
  4

 78
1
 79
1
170
1
 48
1.0
171
1
  6

172
1
173
1
174
1
140
1.0
141
1.0
175
1
  7

176
1
177
1
178
1
143
1.0
179
1
  8

270
1
271
1
272
1
145
1.0
146
1.0
273
1
  9

274
1
275
1
276
1
 42
1.0
 72
1
  3

 73
1
 74
1
 75
1
 94
63
  0
ENDSEC
  0
EOF
